<?xml version="1.0" encoding="utf-8" standalone="no"?>
<!DOCTYPE svg PUBLIC "-//W3C//DTD SVG 1.1//EN"
  "http://www.w3.org/Graphics/SVG/1.1/DTD/svg11.dtd">
<!-- Created with matplotlib (https://matplotlib.org/) -->
<svg height="504pt" version="1.1" viewBox="0 0 1080 504" width="1080pt" xmlns="http://www.w3.org/2000/svg" xmlns:xlink="http://www.w3.org/1999/xlink">
 <defs>
  <style type="text/css">
*{stroke-linecap:butt;stroke-linejoin:round;}
  </style>
 </defs>
 <g id="figure_1">
  <g id="patch_1">
   <path d="M 0 504 
L 1080 504 
L 1080 0 
L 0 0 
z
" style="fill:#ffffff;"/>
  </g>
  <g id="axes_1">
   <g id="patch_2">
    <path d="M 58.35125 454.67125 
L 1069.2 454.67125 
L 1069.2 33.41625 
L 58.35125 33.41625 
z
" style="fill:#ffffff;"/>
   </g>
   <g id="matplotlib.axis_1">
    <g id="xtick_1">
     <g id="line2d_1">
      <defs>
       <path d="M 0 0 
L 0 3.5 
" id="m3bb1d1a92d" style="stroke:#000000;stroke-width:0.8;"/>
      </defs>
      <g>
       <use style="stroke:#000000;stroke-width:0.8;" x="109.801635" xlink:href="#m3bb1d1a92d" y="454.67125"/>
      </g>
     </g>
     <g id="text_1">
      <!-- 12月8日 -->
      <defs>
       <path d="M 21.875 56.25 
Q 16.796875 51.171875 8.984375 46.484375 
L 8.984375 53.90625 
Q 18.75 60.546875 25 69.53125 
L 29.6875 69.53125 
L 29.6875 2.34375 
L 21.875 2.34375 
z
" id="SimHei-49"/>
       <path d="M 4.6875 3.90625 
Q 5.078125 9.765625 10.15625 14.453125 
Q 15.234375 19.140625 23.046875 29.09375 
Q 30.859375 39.0625 33.203125 44.53125 
Q 35.546875 50 34.953125 53.90625 
Q 34.375 57.8125 31.25 60.34375 
Q 28.125 62.890625 24.015625 62.5 
Q 19.921875 62.109375 16.203125 59.375 
Q 12.5 56.640625 10.546875 51.171875 
L 3.125 52.34375 
Q 6.25 61.328125 11.125 65.421875 
Q 16.015625 69.53125 22.65625 69.921875 
Q 26.5625 70.3125 29.6875 69.71875 
Q 32.8125 69.140625 36.125 66.984375 
Q 39.453125 64.84375 41.59375 60.546875 
Q 43.75 56.25 43.15625 50.1875 
Q 42.578125 44.140625 37.109375 35.734375 
Q 31.640625 27.34375 16.015625 9.375 
L 44.140625 9.375 
L 44.140625 2.34375 
L 4.6875 2.34375 
z
" id="SimHei-50"/>
       <path d="M 82.03125 75.390625 
Q 81.25 66.015625 81.25 58.59375 
L 81.25 3.125 
Q 81.25 -4.296875 77.34375 -5.859375 
Q 73.4375 -7.421875 62.109375 -8.203125 
Q 61.328125 -3.515625 58.59375 0.78125 
Q 67.1875 0.390625 70.5 0.78125 
Q 73.828125 1.171875 73.828125 6.25 
L 73.828125 25 
L 28.90625 25 
Q 26.953125 12.109375 22.65625 3.515625 
Q 18.359375 -5.078125 14.0625 -8.984375 
Q 10.9375 -6.25 6.25 -5.078125 
Q 12.5 0.390625 16.203125 8 
Q 19.921875 15.625 20.890625 23.046875 
Q 21.875 30.46875 21.875 39.453125 
L 21.875 56.640625 
Q 21.875 65.234375 21.484375 75.390625 
L 82.03125 75.390625 
z
M 73.828125 53.125 
L 73.828125 69.53125 
L 29.296875 69.53125 
L 29.296875 53.125 
z
M 73.828125 31.25 
L 73.828125 47.265625 
L 29.296875 47.265625 
L 29.296875 31.25 
z
" id="SimHei-26376"/>
       <path d="M 2.734375 16.796875 
Q 2.734375 26.171875 5.078125 30.65625 
Q 7.421875 35.15625 12.890625 37.890625 
Q 8.203125 40.625 6.640625 43.9375 
Q 5.078125 47.265625 4.875 51.5625 
Q 4.6875 55.859375 6.046875 58.984375 
Q 7.421875 62.109375 10.15625 64.84375 
Q 12.890625 67.578125 16.203125 68.546875 
Q 19.53125 69.53125 23.4375 69.53125 
Q 27.34375 69.53125 30.46875 68.75 
Q 33.59375 67.96875 37.109375 65.421875 
Q 40.625 62.890625 42.1875 58.203125 
Q 43.75 53.515625 41.984375 47.265625 
Q 40.234375 41.015625 32.8125 37.5 
Q 39.453125 35.546875 42.1875 31.4375 
Q 44.921875 27.34375 44.921875 21.484375 
Q 44.921875 15.625 43.15625 12.109375 
Q 41.40625 8.59375 39.25 6.25 
Q 37.109375 3.90625 33.390625 2.53125 
Q 29.6875 1.171875 24.015625 1.171875 
Q 18.359375 1.171875 14.25 2.53125 
Q 10.15625 3.90625 7.421875 6.640625 
Q 4.6875 9.375 3.703125 13.078125 
Q 2.734375 16.796875 2.734375 26.171875 
z
M 10.9375 26.5625 
Q 10.546875 17.1875 12.296875 13.671875 
Q 14.0625 10.15625 18.75 9.171875 
Q 23.4375 8.203125 28.515625 9.375 
Q 33.59375 10.546875 35.546875 14.84375 
Q 37.5 19.140625 36.90625 23.4375 
Q 36.328125 27.734375 32.03125 30.65625 
Q 27.734375 33.59375 22.65625 33.203125 
Q 17.578125 32.8125 14.25 29.6875 
Q 10.9375 26.5625 10.546875 17.1875 
z
M 12.109375 56.25 
Q 12.109375 48.4375 14.84375 44.921875 
Q 17.578125 41.40625 23.4375 41.40625 
Q 29.296875 41.40625 32.21875 44.921875 
Q 35.15625 48.4375 34.953125 53.3125 
Q 34.765625 58.203125 31.4375 60.546875 
Q 28.125 62.890625 22.453125 62.5 
Q 16.796875 62.109375 14.453125 59.171875 
Q 12.109375 56.25 12.109375 48.4375 
z
" id="SimHei-56"/>
       <path d="M 83.984375 78.125 
Q 83.59375 58.984375 83.59375 35.546875 
Q 83.59375 12.109375 83.984375 -7.03125 
L 75 -7.03125 
L 75 2.734375 
L 28.125 2.734375 
L 28.125 -8.984375 
L 19.53125 -8.984375 
Q 19.921875 8.984375 19.921875 33.203125 
Q 19.921875 57.421875 19.53125 78.125 
L 83.984375 78.125 
z
M 75 9.375 
L 75 37.109375 
L 28.125 37.109375 
L 28.125 9.375 
z
M 75 43.75 
L 75 71.09375 
L 28.125 71.09375 
L 28.125 43.75 
z
" id="SimHei-26085"/>
      </defs>
      <g transform="translate(83.551635 472.862656)scale(0.15 -0.15)">
       <use xlink:href="#SimHei-49"/>
       <use x="50" xlink:href="#SimHei-50"/>
       <use x="100" xlink:href="#SimHei-26376"/>
       <use x="200" xlink:href="#SimHei-56"/>
       <use x="250" xlink:href="#SimHei-26085"/>
      </g>
     </g>
    </g>
    <g id="xtick_2">
     <g id="line2d_2">
      <g>
       <use style="stroke:#000000;stroke-width:0.8;" x="241.866796" xlink:href="#m3bb1d1a92d" y="454.67125"/>
      </g>
     </g>
     <g id="text_2">
      <!-- 12月9日 -->
      <defs>
       <path d="M 12.5 1.171875 
Q 21.09375 15.625 26.5625 27.34375 
Q 16.796875 25.78125 10.34375 29.875 
Q 3.90625 33.984375 2.53125 41.015625 
Q 1.171875 48.046875 2.734375 53.703125 
Q 4.296875 59.375 7.609375 63.078125 
Q 10.9375 66.796875 15.625 68.359375 
Q 20.3125 69.921875 24.015625 69.921875 
Q 27.734375 69.921875 31.640625 68.359375 
Q 35.546875 66.796875 38.671875 63.671875 
Q 41.796875 60.546875 42.96875 57.21875 
Q 44.140625 53.90625 44.140625 48.625 
Q 44.140625 43.359375 40.234375 35.15625 
Q 36.328125 26.953125 21.09375 1.171875 
z
M 9.765625 50 
Q 10.9375 39.84375 14.640625 36.515625 
Q 18.359375 33.203125 22.65625 33.59375 
Q 26.953125 33.984375 29.484375 35.9375 
Q 32.03125 37.890625 34.375 42.578125 
Q 35.9375 48.4375 35.15625 52.53125 
Q 34.375 56.640625 31.046875 59.375 
Q 27.734375 62.109375 23.828125 62.109375 
Q 21.484375 62.5 17.765625 60.9375 
Q 14.0625 59.375 11.90625 54.6875 
Q 9.765625 50 10.9375 39.84375 
z
" id="SimHei-57"/>
      </defs>
      <g transform="translate(215.616796 472.862656)scale(0.15 -0.15)">
       <use xlink:href="#SimHei-49"/>
       <use x="50" xlink:href="#SimHei-50"/>
       <use x="100" xlink:href="#SimHei-26376"/>
       <use x="200" xlink:href="#SimHei-57"/>
       <use x="250" xlink:href="#SimHei-26085"/>
      </g>
     </g>
    </g>
    <g id="xtick_3">
     <g id="line2d_3">
      <g>
       <use style="stroke:#000000;stroke-width:0.8;" x="373.931957" xlink:href="#m3bb1d1a92d" y="454.67125"/>
      </g>
     </g>
     <g id="text_3">
      <!-- 12月10日 -->
      <defs>
       <path d="M 3.125 29.296875 
Q 3.90625 50 6.4375 56.046875 
Q 8.984375 62.109375 13.671875 66.015625 
Q 18.359375 69.921875 25.1875 69.921875 
Q 32.03125 69.921875 37.109375 64.25 
Q 42.1875 58.59375 43.75 50 
Q 45.3125 41.40625 44.71875 30.265625 
Q 44.140625 19.140625 40.8125 12.109375 
Q 37.5 5.078125 30.859375 2.34375 
Q 24.21875 -0.390625 17.578125 2.921875 
Q 10.9375 6.25 8.203125 11.71875 
Q 5.46875 17.1875 4.296875 23.234375 
Q 3.125 29.296875 3.90625 50 
z
M 12.890625 52.734375 
Q 10.546875 31.25 12.5 22.84375 
Q 14.453125 14.453125 18.9375 10.9375 
Q 23.4375 7.421875 28.125 9.5625 
Q 32.8125 11.71875 34.953125 18.15625 
Q 37.109375 24.609375 37.109375 32.21875 
Q 37.109375 39.84375 36.515625 46.09375 
Q 35.9375 52.34375 33 57.421875 
Q 30.078125 62.5 25.1875 62.6875 
Q 20.3125 62.890625 16.59375 57.8125 
Q 12.890625 52.734375 10.546875 31.25 
z
" id="SimHei-48"/>
      </defs>
      <g transform="translate(343.931957 472.862656)scale(0.15 -0.15)">
       <use xlink:href="#SimHei-49"/>
       <use x="50" xlink:href="#SimHei-50"/>
       <use x="100" xlink:href="#SimHei-26376"/>
       <use x="200" xlink:href="#SimHei-49"/>
       <use x="250" xlink:href="#SimHei-48"/>
       <use x="300" xlink:href="#SimHei-26085"/>
      </g>
     </g>
    </g>
    <g id="xtick_4">
     <g id="line2d_4">
      <g>
       <use style="stroke:#000000;stroke-width:0.8;" x="505.997117" xlink:href="#m3bb1d1a92d" y="454.67125"/>
      </g>
     </g>
     <g id="text_4">
      <!-- 12月11日 -->
      <g transform="translate(475.997117 472.862656)scale(0.15 -0.15)">
       <use xlink:href="#SimHei-49"/>
       <use x="50" xlink:href="#SimHei-50"/>
       <use x="100" xlink:href="#SimHei-26376"/>
       <use x="200" xlink:href="#SimHei-49"/>
       <use x="250" xlink:href="#SimHei-49"/>
       <use x="300" xlink:href="#SimHei-26085"/>
      </g>
     </g>
    </g>
    <g id="xtick_5">
     <g id="line2d_5">
      <g>
       <use style="stroke:#000000;stroke-width:0.8;" x="638.062278" xlink:href="#m3bb1d1a92d" y="454.67125"/>
      </g>
     </g>
     <g id="text_5">
      <!-- 12月12日 -->
      <g transform="translate(608.062278 472.862656)scale(0.15 -0.15)">
       <use xlink:href="#SimHei-49"/>
       <use x="50" xlink:href="#SimHei-50"/>
       <use x="100" xlink:href="#SimHei-26376"/>
       <use x="200" xlink:href="#SimHei-49"/>
       <use x="250" xlink:href="#SimHei-50"/>
       <use x="300" xlink:href="#SimHei-26085"/>
      </g>
     </g>
    </g>
    <g id="xtick_6">
     <g id="line2d_6">
      <g>
       <use style="stroke:#000000;stroke-width:0.8;" x="770.127438" xlink:href="#m3bb1d1a92d" y="454.67125"/>
      </g>
     </g>
     <g id="text_6">
      <!-- 12月13日 -->
      <defs>
       <path d="M 3.90625 19.140625 
L 10.9375 20.3125 
Q 12.5 15.234375 16.015625 11.90625 
Q 19.53125 8.59375 24.796875 8.78125 
Q 30.078125 8.984375 33.203125 13.078125 
Q 36.328125 17.1875 35.9375 22.453125 
Q 35.546875 27.734375 31.828125 30.65625 
Q 28.125 33.59375 19.921875 34.765625 
L 19.921875 39.84375 
Q 28.125 40.625 31.828125 44.140625 
Q 35.546875 47.65625 35.15625 53.3125 
Q 34.765625 58.984375 30.078125 61.515625 
Q 25.390625 64.0625 20.109375 62.109375 
Q 14.84375 60.15625 11.71875 51.171875 
L 4.6875 52.34375 
Q 7.03125 59.375 11.125 64.0625 
Q 15.234375 68.75 22.265625 69.53125 
Q 29.296875 70.3125 34.5625 67.765625 
Q 39.84375 65.234375 41.984375 59.953125 
Q 44.140625 54.6875 42.578125 48.4375 
Q 41.015625 42.1875 33.59375 37.5 
Q 39.0625 35.15625 41.984375 30.46875 
Q 44.921875 25.78125 43.9375 18.15625 
Q 42.96875 10.546875 37.109375 5.859375 
Q 31.25 1.171875 23.828125 1.359375 
Q 16.40625 1.5625 10.9375 6.046875 
Q 5.46875 10.546875 3.90625 19.140625 
z
" id="SimHei-51"/>
      </defs>
      <g transform="translate(740.127438 472.862656)scale(0.15 -0.15)">
       <use xlink:href="#SimHei-49"/>
       <use x="50" xlink:href="#SimHei-50"/>
       <use x="100" xlink:href="#SimHei-26376"/>
       <use x="200" xlink:href="#SimHei-49"/>
       <use x="250" xlink:href="#SimHei-51"/>
       <use x="300" xlink:href="#SimHei-26085"/>
      </g>
     </g>
    </g>
    <g id="xtick_7">
     <g id="line2d_7">
      <g>
       <use style="stroke:#000000;stroke-width:0.8;" x="902.192599" xlink:href="#m3bb1d1a92d" y="454.67125"/>
      </g>
     </g>
     <g id="text_7">
      <!-- 12月14日 -->
      <defs>
       <path d="M 31.25 17.1875 
L 1.171875 17.1875 
L 1.171875 23.828125 
L 32.8125 69.53125 
L 38.671875 69.53125 
L 38.671875 23.828125 
L 48.046875 23.828125 
L 48.046875 17.1875 
L 38.671875 17.1875 
L 38.671875 2.34375 
L 31.25 2.34375 
z
M 31.25 23.828125 
L 31.25 54.6875 
L 9.375 23.828125 
z
" id="SimHei-52"/>
      </defs>
      <g transform="translate(872.192599 472.862656)scale(0.15 -0.15)">
       <use xlink:href="#SimHei-49"/>
       <use x="50" xlink:href="#SimHei-50"/>
       <use x="100" xlink:href="#SimHei-26376"/>
       <use x="200" xlink:href="#SimHei-49"/>
       <use x="250" xlink:href="#SimHei-52"/>
       <use x="300" xlink:href="#SimHei-26085"/>
      </g>
     </g>
    </g>
    <g id="text_8">
     <!-- 时间 -->
     <defs>
      <path d="M 39.453125 71.484375 
Q 39.0625 57.421875 39.0625 37.5 
Q 39.0625 17.578125 39.453125 6.25 
L 31.25 6.25 
L 31.25 13.671875 
L 15.625 13.671875 
L 15.625 0.78125 
L 7.421875 0.78125 
Q 7.8125 18.75 7.8125 36.71875 
Q 7.8125 55.078125 7.421875 71.484375 
L 39.453125 71.484375 
z
M 76.171875 59.765625 
Q 76.171875 71.484375 75.78125 81.640625 
L 84.375 81.640625 
Q 83.984375 71.484375 83.984375 59.765625 
Q 89.84375 59.765625 96.484375 60.15625 
L 96.484375 52.734375 
Q 89.84375 53.125 83.984375 53.125 
L 83.984375 0.78125 
Q 83.984375 -5.078125 79.296875 -6.640625 
Q 74.609375 -8.203125 67.1875 -8.984375 
Q 67.1875 -4.296875 62.890625 0 
Q 70.3125 -0.78125 73.234375 -0.390625 
Q 76.171875 0 76.171875 4.6875 
L 76.171875 53.125 
Q 56.640625 53.125 43.359375 52.734375 
L 43.359375 60.15625 
Q 55.859375 59.765625 76.171875 59.765625 
z
M 31.25 20.3125 
L 31.25 39.84375 
L 15.625 39.84375 
L 15.625 20.3125 
z
M 31.25 46.484375 
L 31.25 64.84375 
L 15.625 64.84375 
L 15.625 46.484375 
z
M 55.46875 42.578125 
Q 60.546875 34.375 65.234375 25 
Q 61.328125 23.828125 57.03125 21.484375 
Q 53.90625 30.859375 48.046875 39.0625 
Q 51.5625 40.625 55.46875 42.578125 
z
" id="SimHei-26102"/>
      <path d="M 69.53125 55.46875 
Q 69.140625 48.046875 69.140625 42.578125 
L 69.140625 21.875 
Q 69.140625 16.796875 69.53125 9.765625 
L 30.078125 9.765625 
Q 30.46875 16.796875 30.46875 22.265625 
L 30.46875 42.578125 
Q 30.46875 48.046875 30.078125 55.46875 
L 69.53125 55.46875 
z
M 90.625 76.171875 
Q 90.234375 68.75 90.234375 61.328125 
L 90.234375 3.90625 
Q 90.625 -5.078125 85.34375 -7.03125 
Q 80.078125 -8.984375 73.828125 -9.765625 
Q 73.4375 -5.078125 70.703125 -0.390625 
Q 78.125 -0.78125 80.265625 0.390625 
Q 82.421875 1.5625 82.421875 5.46875 
L 82.421875 69.53125 
L 58.984375 69.53125 
Q 49.609375 69.53125 41.40625 69.140625 
L 41.40625 76.5625 
Q 49.609375 76.171875 58.984375 76.171875 
z
M 8.59375 -8.203125 
Q 9.375 -0.390625 9.375 8.203125 
L 9.375 49.21875 
Q 9.375 57.421875 8.59375 62.890625 
L 17.578125 62.890625 
Q 17.1875 57.03125 17.1875 51.5625 
L 17.1875 7.8125 
Q 17.1875 0 17.578125 -8.203125 
z
M 61.71875 16.015625 
L 61.71875 30.46875 
L 37.890625 30.46875 
L 37.890625 16.015625 
z
M 61.71875 36.71875 
L 61.71875 49.21875 
L 37.890625 49.21875 
L 37.890625 36.71875 
z
M 23.828125 82.8125 
Q 27.34375 78.125 34.765625 67.96875 
Q 30.46875 66.015625 26.5625 63.671875 
Q 22.65625 71.484375 16.796875 78.515625 
Q 21.09375 81.640625 23.828125 82.8125 
z
" id="SimHei-38388"/>
     </defs>
     <g transform="translate(548.775625 490.749375)scale(0.15 -0.15)">
      <use xlink:href="#SimHei-26102"/>
      <use x="100" xlink:href="#SimHei-38388"/>
     </g>
    </g>
   </g>
   <g id="matplotlib.axis_2">
    <g id="ytick_1">
     <g id="line2d_8">
      <defs>
       <path d="M 0 0 
L -3.5 0 
" id="m74d4488821" style="stroke:#000000;stroke-width:0.8;"/>
      </defs>
      <g>
       <use style="stroke:#000000;stroke-width:0.8;" x="58.35125" xlink:href="#m74d4488821" y="445.413034"/>
      </g>
     </g>
     <g id="text_9">
      <!-- -40 -->
      <defs>
       <path d="M 46.484375 33.203125 
L 1.953125 33.203125 
L 1.953125 39.453125 
L 46.484375 39.453125 
z
" id="SimHei-45"/>
      </defs>
      <g transform="translate(28.85125 450.569284)scale(0.15 -0.15)">
       <use xlink:href="#SimHei-45"/>
       <use x="50" xlink:href="#SimHei-52"/>
       <use x="100" xlink:href="#SimHei-48"/>
      </g>
     </g>
    </g>
    <g id="ytick_2">
     <g id="line2d_9">
      <g>
       <use style="stroke:#000000;stroke-width:0.8;" x="58.35125" xlink:href="#m74d4488821" y="396.738005"/>
      </g>
     </g>
     <g id="text_10">
      <!-- -20 -->
      <g transform="translate(28.85125 401.894255)scale(0.15 -0.15)">
       <use xlink:href="#SimHei-45"/>
       <use x="50" xlink:href="#SimHei-50"/>
       <use x="100" xlink:href="#SimHei-48"/>
      </g>
     </g>
    </g>
    <g id="ytick_3">
     <g id="line2d_10">
      <g>
       <use style="stroke:#000000;stroke-width:0.8;" x="58.35125" xlink:href="#m74d4488821" y="348.062976"/>
      </g>
     </g>
     <g id="text_11">
      <!-- 0 -->
      <g transform="translate(43.85125 353.219226)scale(0.15 -0.15)">
       <use xlink:href="#SimHei-48"/>
      </g>
     </g>
    </g>
    <g id="ytick_4">
     <g id="line2d_11">
      <g>
       <use style="stroke:#000000;stroke-width:0.8;" x="58.35125" xlink:href="#m74d4488821" y="299.387948"/>
      </g>
     </g>
     <g id="text_12">
      <!-- 20 -->
      <g transform="translate(36.35125 304.544198)scale(0.15 -0.15)">
       <use xlink:href="#SimHei-50"/>
       <use x="50" xlink:href="#SimHei-48"/>
      </g>
     </g>
    </g>
    <g id="ytick_5">
     <g id="line2d_12">
      <g>
       <use style="stroke:#000000;stroke-width:0.8;" x="58.35125" xlink:href="#m74d4488821" y="250.712919"/>
      </g>
     </g>
     <g id="text_13">
      <!-- 40 -->
      <g transform="translate(36.35125 255.869169)scale(0.15 -0.15)">
       <use xlink:href="#SimHei-52"/>
       <use x="50" xlink:href="#SimHei-48"/>
      </g>
     </g>
    </g>
    <g id="ytick_6">
     <g id="line2d_13">
      <g>
       <use style="stroke:#000000;stroke-width:0.8;" x="58.35125" xlink:href="#m74d4488821" y="202.03789"/>
      </g>
     </g>
     <g id="text_14">
      <!-- 60 -->
      <defs>
       <path d="M 3.515625 19.53125 
Q 4.296875 30.859375 6.046875 34.765625 
Q 7.8125 38.671875 11.328125 44.53125 
L 27.34375 69.53125 
L 36.328125 69.53125 
L 19.921875 43.75 
Q 30.46875 46.484375 36.71875 42.96875 
Q 42.96875 39.453125 45.109375 34.953125 
Q 47.265625 30.46875 47.453125 25.1875 
Q 47.65625 19.921875 45.890625 14.84375 
Q 44.140625 9.765625 39.640625 5.65625 
Q 35.15625 1.5625 27.140625 1.171875 
Q 19.140625 0.78125 13.46875 4.09375 
Q 7.8125 7.421875 5.65625 13.46875 
Q 3.515625 19.53125 4.296875 30.859375 
z
M 12.5 16.015625 
Q 19.53125 8.59375 25.390625 8.203125 
Q 31.25 7.8125 35.15625 12.109375 
Q 39.0625 16.40625 39.0625 24.609375 
Q 39.0625 32.8125 34.171875 35.9375 
Q 29.296875 39.0625 23.234375 38.28125 
Q 17.1875 37.5 14.453125 32.421875 
Q 11.71875 27.34375 12.109375 21.671875 
Q 12.5 16.015625 19.53125 8.59375 
z
" id="SimHei-54"/>
      </defs>
      <g transform="translate(36.35125 207.19414)scale(0.15 -0.15)">
       <use xlink:href="#SimHei-54"/>
       <use x="50" xlink:href="#SimHei-48"/>
      </g>
     </g>
    </g>
    <g id="ytick_7">
     <g id="line2d_14">
      <g>
       <use style="stroke:#000000;stroke-width:0.8;" x="58.35125" xlink:href="#m74d4488821" y="153.362862"/>
      </g>
     </g>
     <g id="text_15">
      <!-- 80 -->
      <g transform="translate(36.35125 158.519112)scale(0.15 -0.15)">
       <use xlink:href="#SimHei-56"/>
       <use x="50" xlink:href="#SimHei-48"/>
      </g>
     </g>
    </g>
    <g id="ytick_8">
     <g id="line2d_15">
      <g>
       <use style="stroke:#000000;stroke-width:0.8;" x="58.35125" xlink:href="#m74d4488821" y="104.687833"/>
      </g>
     </g>
     <g id="text_16">
      <!-- 100 -->
      <g transform="translate(28.85125 109.844083)scale(0.15 -0.15)">
       <use xlink:href="#SimHei-49"/>
       <use x="50" xlink:href="#SimHei-48"/>
       <use x="100" xlink:href="#SimHei-48"/>
      </g>
     </g>
    </g>
    <g id="ytick_9">
     <g id="line2d_16">
      <g>
       <use style="stroke:#000000;stroke-width:0.8;" x="58.35125" xlink:href="#m74d4488821" y="56.012804"/>
      </g>
     </g>
     <g id="text_17">
      <!-- 120 -->
      <g transform="translate(28.85125 61.169054)scale(0.15 -0.15)">
       <use xlink:href="#SimHei-49"/>
       <use x="50" xlink:href="#SimHei-50"/>
       <use x="100" xlink:href="#SimHei-48"/>
      </g>
     </g>
    </g>
    <g id="text_18">
     <!-- 流量 -->
     <defs>
      <path d="M 58.203125 82.03125 
Q 62.109375 76.171875 66.015625 69.53125 
L 78.515625 69.53125 
Q 84.765625 69.53125 92.578125 69.921875 
L 92.578125 62.890625 
Q 83.203125 63.28125 78.515625 63.28125 
L 53.515625 63.28125 
Q 56.640625 60.9375 58.984375 59.765625 
Q 57.03125 58.203125 53.90625 54.296875 
Q 50.78125 50.390625 44.53125 43.359375 
Q 58.59375 43.75 74.609375 44.53125 
Q 70.703125 49.21875 66.796875 52.734375 
Q 70.703125 55.46875 72.265625 57.421875 
Q 83.203125 46.09375 90.625 37.109375 
Q 87.109375 34.375 84.375 32.03125 
Q 81.25 36.328125 78.90625 39.453125 
Q 70.3125 38.671875 55.65625 37.6875 
Q 41.015625 36.71875 35.9375 35.15625 
Q 34.765625 38.671875 32.421875 41.796875 
Q 36.328125 42.96875 41.796875 49.609375 
Q 47.265625 56.25 50.78125 63.28125 
L 46.484375 63.28125 
Q 39.453125 63.28125 32.03125 62.5 
L 32.03125 69.921875 
Q 39.453125 69.53125 46.484375 69.53125 
L 57.421875 69.53125 
Q 54.296875 75 51.953125 78.125 
Q 55.859375 80.078125 58.203125 82.03125 
z
M 78.515625 31.640625 
Q 78.125 26.5625 78.125 21.484375 
L 78.125 2.34375 
Q 78.125 -1.171875 81.640625 -1.171875 
L 85.546875 -1.171875 
Q 88.671875 -1.171875 89.0625 7.8125 
Q 92.1875 5.46875 96.875 4.296875 
Q 94.53125 -5.46875 91.984375 -6.640625 
Q 89.453125 -7.8125 85.9375 -7.8125 
L 78.515625 -7.8125 
Q 71.09375 -7.8125 71.09375 -0.390625 
L 71.09375 22.265625 
Q 71.09375 26.953125 70.703125 31.640625 
L 78.515625 31.640625 
z
M 48.828125 30.859375 
Q 48.046875 26.953125 47.453125 18.9375 
Q 46.875 10.9375 43.9375 3.515625 
Q 41.015625 -3.90625 30.46875 -10.9375 
Q 27.734375 -7.421875 24.609375 -5.078125 
Q 32.421875 -1.5625 36.125 4.484375 
Q 39.84375 10.546875 40.234375 18.15625 
Q 40.625 25.78125 40.234375 31.640625 
Q 44.140625 30.859375 48.828125 30.859375 
z
M 62.5 31.640625 
Q 62.109375 29.296875 62.109375 21.875 
L 62.109375 4.6875 
Q 62.109375 -0.390625 62.5 -7.8125 
L 54.296875 -7.8125 
Q 54.6875 -0.78125 54.6875 4.6875 
L 54.6875 21.875 
Q 54.6875 28.515625 54.296875 31.640625 
L 62.5 31.640625 
z
M 29.6875 25.390625 
Q 25.78125 18.75 21.09375 8.78125 
Q 16.40625 -1.171875 13.28125 -6.640625 
Q 9.765625 -3.90625 5.078125 -1.953125 
Q 8.984375 2.734375 14.0625 11.71875 
Q 19.140625 20.703125 22.65625 30.46875 
Q 25.78125 27.734375 29.6875 25.390625 
z
M 9.765625 53.90625 
Q 18.75 48.4375 26.953125 42.578125 
Q 23.828125 39.453125 21.484375 35.546875 
Q 14.453125 42.1875 5.078125 46.875 
Q 7.421875 50 9.765625 53.90625 
z
M 14.453125 77.734375 
Q 23.4375 72.265625 29.6875 67.1875 
Q 26.953125 63.671875 24.21875 60.546875 
Q 17.96875 66.796875 9.765625 71.484375 
Q 12.5 75 14.453125 77.734375 
z
" id="SimHei-27969"/>
      <path d="M 82.03125 39.0625 
Q 81.640625 34.375 81.640625 26.5625 
Q 81.640625 19.140625 82.03125 14.84375 
L 53.515625 14.84375 
L 53.515625 9.765625 
L 71.484375 9.765625 
Q 78.125 9.765625 83.984375 10.15625 
L 83.984375 4.296875 
Q 78.515625 4.6875 71.484375 4.6875 
L 53.515625 4.6875 
L 53.515625 -1.171875 
L 80.078125 -1.171875 
Q 86.328125 -1.171875 92.578125 -0.78125 
L 92.578125 -6.640625 
Q 86.328125 -6.25 80.078125 -6.25 
L 19.921875 -6.25 
Q 14.0625 -6.25 7.421875 -6.640625 
L 7.421875 -0.78125 
Q 14.453125 -0.78125 19.921875 -1.171875 
L 46.484375 -1.171875 
L 46.484375 4.6875 
L 26.953125 4.6875 
Q 21.09375 4.6875 15.234375 3.90625 
L 15.234375 10.15625 
Q 21.484375 9.765625 26.953125 9.765625 
L 46.484375 9.765625 
L 46.484375 14.84375 
L 17.96875 14.84375 
Q 18.359375 21.484375 18.359375 27.734375 
Q 18.359375 33.984375 17.96875 39.0625 
L 82.03125 39.0625 
z
M 81.25 77.34375 
Q 80.859375 71.484375 80.859375 66.40625 
Q 80.859375 61.328125 81.25 53.125 
L 18.75 53.125 
Q 19.140625 61.328125 19.140625 66.40625 
Q 19.140625 71.484375 18.75 77.34375 
L 81.25 77.34375 
z
M 76.5625 48.4375 
Q 85.9375 48.828125 93.75 49.21875 
L 93.75 42.96875 
Q 85.9375 43.359375 76.953125 43.359375 
L 25.78125 43.359375 
Q 15.234375 43.359375 5.078125 42.96875 
L 5.078125 49.21875 
Q 15.234375 48.828125 25.78125 48.4375 
z
M 73.828125 57.8125 
L 73.828125 62.890625 
L 26.171875 62.890625 
L 26.171875 57.8125 
z
M 73.828125 67.96875 
L 73.828125 72.65625 
L 26.171875 72.65625 
L 26.171875 67.96875 
z
M 74.21875 29.296875 
L 74.21875 33.984375 
L 53.515625 33.984375 
L 53.515625 29.296875 
z
M 46.484375 29.296875 
L 46.484375 33.984375 
L 25.78125 33.984375 
L 25.78125 29.296875 
z
M 46.484375 19.921875 
L 46.484375 24.21875 
L 25.78125 24.21875 
L 25.78125 19.921875 
z
M 74.21875 19.921875 
L 74.21875 24.21875 
L 53.515625 24.21875 
L 53.515625 19.921875 
z
" id="SimHei-37327"/>
     </defs>
     <g transform="translate(22.97625 259.04375)rotate(-90)scale(0.15 -0.15)">
      <use xlink:href="#SimHei-27969"/>
      <use x="100" xlink:href="#SimHei-37327"/>
     </g>
    </g>
   </g>
   <g id="line2d_17">
    <path clip-path="url(#p99f92e53a6)" d="M 104.29892 322.769661 
L 109.801635 312.355779 
L 115.304351 327.153809 
L 120.807066 338.037763 
L 126.309781 331.422822 
L 131.812496 333.40972 
L 137.315211 337.374378 
L 148.320641 311.115592 
L 153.823356 254.736233 
L 159.326071 237.357304 
L 164.828786 212.829725 
L 170.331501 223.310692 
L 175.834216 252.351888 
L 181.336931 243.268042 
L 186.839646 249.004743 
L 192.342361 256.368616 
L 197.845076 220.812286 
L 203.347791 240.727644 
L 208.850506 205.671327 
L 214.353221 236.928231 
L 219.855936 280.21118 
L 225.358651 308.596506 
L 230.861366 304.168271 
L 236.364081 322.979009 
L 241.866796 323.086769 
L 247.369511 322.112037 
L 252.872226 334.99359 
L 258.374941 332.662386 
L 263.877656 333.865286 
L 269.380371 312.701837 
L 274.883086 279.824283 
L 280.385801 155.321139 
L 285.888516 122.871339 
L 291.391231 119.490525 
L 296.893946 147.496452 
L 302.396661 81.410612 
L 307.899376 124.225042 
L 313.402091 135.32361 
L 318.904806 52.671021 
L 324.407521 121.187124 
L 329.910236 85.92232 
L 335.412951 179.132747 
L 340.915667 182.179426 
L 346.418382 194.655571 
L 351.921097 246.756027 
L 357.423812 309.643843 
L 362.926527 323.336434 
L 368.429242 324.266101 
L 373.931957 319.827623 
L 379.434672 330.796933 
L 384.937387 325.012087 
L 390.440102 331.268957 
L 395.942817 333.687014 
L 401.445532 321.863261 
L 406.948247 261.565827 
L 412.450962 188.498463 
L 417.953677 136.339875 
L 423.456392 135.201401 
L 428.959107 119.917665 
L 439.964537 125.188104 
L 445.467252 171.340092 
L 450.969967 189.749139 
L 456.472682 127.4234 
L 461.975397 120.711971 
L 467.478112 169.077162 
L 472.980827 143.703434 
L 478.483542 170.337506 
L 483.986257 213.060661 
L 489.488972 294.369898 
L 494.991687 293.008985 
L 500.494402 316.839972 
L 505.997117 322.740429 
L 511.499832 329.42218 
L 517.002547 330.862291 
L 522.505262 337.926671 
L 528.007977 338.725172 
L 533.510692 331.608068 
L 539.013407 252.839476 
L 544.516122 164.529704 
L 550.018837 86.228094 
L 555.521552 66.769358 
L 561.024267 121.949428 
L 566.526983 68.188692 
L 572.029698 134.96405 
L 577.532413 135.944297 
L 583.035128 89.795824 
L 588.537843 119.601501 
L 594.040558 52.564205 
L 599.543273 147.599674 
L 605.045988 149.152159 
L 610.548703 202.281996 
L 616.051418 234.6833 
L 621.554133 295.853676 
L 627.056848 322.073625 
L 632.559563 333.746754 
L 638.062278 321.276614 
L 643.564993 333.828584 
L 649.067708 330.41544 
L 654.570423 325.368487 
L 660.073138 328.891837 
L 665.575853 327.788672 
L 671.078568 272.087738 
L 676.581283 143.641285 
L 682.083998 122.499943 
L 687.586713 118.407102 
L 693.089428 121.210576 
L 698.592143 164.108608 
L 704.094858 110.906549 
L 709.597573 86.554344 
L 715.100288 106.374499 
L 720.603003 126.615268 
L 726.105718 55.835823 
L 731.608433 85.351827 
L 737.111148 107.083507 
L 742.613863 184.487275 
L 748.116578 240.120538 
L 753.619293 291.389471 
L 759.122008 311.384413 
L 764.624723 317.375918 
L 770.127438 324.553307 
L 775.630153 338.251003 
L 781.132868 334.691168 
L 786.635583 329.47777 
L 792.138299 328.781706 
L 797.641014 314.730518 
L 803.143729 262.124165 
L 808.646444 141.20945 
L 814.149159 80.889416 
L 819.651874 61.727434 
L 825.154589 108.538242 
L 830.657304 147.160029 
L 836.160019 111.385268 
L 841.662734 143.799948 
L 847.165449 109.865544 
L 852.668164 86.647628 
L 858.170879 83.981646 
L 863.673594 92.431492 
L 869.176309 142.881614 
L 874.679024 136.829316 
L 880.181739 195.001027 
L 885.684454 286.43626 
L 891.187169 317.943748 
L 896.689884 320.515719 
L 902.192599 323.729823 
L 907.695314 324.509524 
L 913.198029 305.990651 
L 918.700744 319.478781 
L 924.203459 331.613778 
L 929.706174 320.722767 
L 935.208889 301.520474 
L 940.711604 218.967991 
L 951.717034 165.99094 
L 957.219749 150.360081 
L 962.722464 200.811501 
L 968.225179 204.562836 
L 973.727894 192.874377 
L 979.230609 155.857703 
L 984.733324 198.292874 
L 990.236039 136.703513 
L 995.738754 181.523872 
L 1001.241469 167.101306 
L 1006.744184 202.253209 
L 1012.246899 255.11828 
L 1017.749615 296.513764 
L 1023.25233 307.196528 
L 1023.25233 307.196528 
" style="fill:none;stroke:#0000ff;stroke-linecap:square;stroke-width:1.5;"/>
   </g>
   <g id="line2d_18">
    <path clip-path="url(#p99f92e53a6)" d="M 104.29892 318.807505 
L 109.801635 317.289578 
L 115.304351 323.62034 
L 120.807066 330.915758 
L 126.309781 323.155965 
L 131.812496 333.143094 
L 137.315211 329.133893 
L 142.817926 322.628477 
L 148.320641 303.056796 
L 153.823356 255.657969 
L 159.326071 219.597028 
L 164.828786 202.067542 
L 170.331501 210.372998 
L 175.834216 264.141858 
L 181.336931 240.232407 
L 186.839646 253.584475 
L 192.342361 233.145749 
L 197.845076 220.070364 
L 203.347791 216.000636 
L 208.850506 233.59881 
L 214.353221 242.761927 
L 219.855936 271.062895 
L 225.358651 308.831654 
L 230.861366 317.717501 
L 236.364081 323.317466 
L 241.866796 320.463679 
L 247.369511 329.870848 
L 252.872226 336.054017 
L 258.374941 322.045903 
L 263.877656 333.039645 
L 269.380371 325.874172 
L 274.883086 271.894632 
L 280.385801 186.816878 
L 285.888516 127.13525 
L 291.391231 129.15753 
L 296.893946 104.940356 
L 302.396661 126.770755 
L 307.899376 158.54373 
L 313.402091 169.689512 
L 318.904806 128.863407 
L 324.407521 125.269385 
L 329.910236 97.482905 
L 335.412951 146.414677 
L 340.915667 191.593243 
L 346.418382 211.375664 
L 351.921097 255.313962 
L 357.423812 303.296522 
L 362.926527 316.975605 
L 368.429242 326.296399 
L 379.434672 314.337632 
L 384.937387 328.455524 
L 390.440102 322.037175 
L 395.942817 329.36383 
L 401.445532 318.615627 
L 406.948247 258.683162 
L 412.450962 177.533789 
L 417.953677 126.978319 
L 423.456392 115.232633 
L 428.959107 108.170256 
L 434.461822 123.690856 
L 439.964537 139.926813 
L 445.467252 119.782334 
L 450.969967 116.280903 
L 456.472682 123.520225 
L 461.975397 118.859436 
L 467.478112 120.581564 
L 472.980827 193.008623 
L 478.483542 195.371488 
L 483.986257 242.420293 
L 489.488972 299.447723 
L 494.991687 314.213548 
L 500.494402 330.857189 
L 505.997117 318.579262 
L 511.499832 326.908945 
L 517.002547 334.004093 
L 522.505262 326.631268 
L 528.007977 331.891217 
L 533.510692 321.687235 
L 539.013407 262.661119 
L 544.516122 167.78404 
L 550.018837 126.073944 
L 555.521552 109.687535 
L 561.024267 94.895377 
L 566.526983 148.282293 
L 572.029698 148.53795 
L 577.532413 116.618173 
L 583.035128 118.877729 
L 588.537843 130.983418 
L 594.040558 125.206589 
L 599.543273 111.125928 
L 605.045988 179.982306 
L 610.548703 204.909192 
L 621.554133 289.575721 
L 627.056848 318.296063 
L 632.559563 329.298608 
L 638.062278 324.887252 
L 643.564993 322.866297 
L 649.067708 327.27314 
L 654.570423 322.928159 
L 660.073138 330.049236 
L 665.575853 313.878487 
L 671.078568 268.023945 
L 676.581283 166.007616 
L 682.083998 127.796886 
L 687.586713 119.163508 
L 693.089428 124.860478 
L 698.592143 145.791519 
L 704.094858 134.906187 
L 709.597573 134.433558 
L 715.100288 136.994351 
L 720.603003 134.86364 
L 726.105718 114.424977 
L 731.608433 142.532476 
L 737.111148 177.461918 
L 742.613863 196.140179 
L 748.116578 238.204458 
L 753.619293 300.426074 
L 759.122008 319.224782 
L 764.624723 325.18769 
L 770.127438 323.004959 
L 775.630153 321.679683 
L 781.132868 332.282356 
L 786.635583 322.337687 
L 792.138299 333.630675 
L 797.641014 321.836237 
L 803.143729 278.222199 
L 808.646444 190.575314 
L 814.149159 147.575936 
L 819.651874 131.966381 
L 825.154589 132.411995 
L 830.657304 152.827822 
L 836.160019 182.380362 
L 841.662734 145.57167 
L 847.165449 138.418975 
L 852.668164 155.341132 
L 858.170879 129.732254 
L 863.673594 135.988241 
L 869.176309 182.324351 
L 874.679024 224.289635 
L 880.181739 243.938411 
L 885.684454 290.87916 
L 891.187169 309.687546 
L 896.689884 320.114875 
L 902.192599 316.652824 
L 907.695314 319.964925 
L 913.198029 321.87876 
L 918.700744 322.466943 
L 924.203459 331.70196 
L 929.706174 328.187296 
L 935.208889 310.062352 
L 946.214319 222.738997 
L 951.717034 183.758615 
L 957.219749 178.295966 
L 962.722464 190.338123 
L 968.225179 221.244214 
L 973.727894 205.402462 
L 979.230609 208.487992 
L 984.733324 217.132863 
L 990.236039 202.345178 
L 995.738754 193.019824 
L 1001.241469 207.165979 
L 1006.744184 231.152035 
L 1012.246899 271.093698 
L 1017.749615 291.446109 
L 1023.25233 309.77215 
L 1023.25233 309.77215 
" style="fill:none;stroke:#ff0000;stroke-linecap:square;stroke-width:1.5;"/>
   </g>
   <g id="line2d_19">
    <path clip-path="url(#p99f92e53a6)" d="M 104.29892 344.100821 
L 109.801635 352.996776 
L 115.304351 344.529508 
L 120.807066 340.940971 
L 126.309781 339.79612 
L 131.812496 347.79635 
L 137.315211 339.822491 
L 142.817926 346.463339 
L 148.320641 340.00418 
L 153.823356 348.984713 
L 159.326071 330.3027 
L 164.828786 337.300793 
L 170.331501 335.125283 
L 175.834216 359.852946 
L 181.336931 345.027341 
L 186.839646 352.642709 
L 192.342361 324.840109 
L 197.845076 347.321054 
L 203.347791 323.335968 
L 208.850506 375.990459 
L 214.353221 353.896672 
L 219.855936 338.914692 
L 225.358651 348.298125 
L 230.861366 361.612206 
L 236.364081 348.401434 
L 241.866796 345.439887 
L 247.369511 355.821787 
L 252.872226 349.123404 
L 258.374941 337.446493 
L 263.877656 347.237335 
L 269.380371 361.235311 
L 274.883086 340.133325 
L 280.385801 379.558716 
L 285.888516 352.326888 
L 291.391231 357.729982 
L 296.893946 305.506881 
L 302.396661 393.423119 
L 307.899376 382.381664 
L 313.402091 382.428879 
L 318.904806 424.255363 
L 324.407521 352.145238 
L 329.910236 359.623562 
L 335.412951 315.344906 
L 340.915667 357.476793 
L 346.418382 364.783069 
L 351.921097 356.620911 
L 357.423812 341.715655 
L 362.926527 341.702147 
L 368.429242 350.093275 
L 373.931957 348.619623 
L 379.434672 331.603676 
L 384.937387 351.506414 
L 390.440102 338.831195 
L 395.942817 343.739792 
L 401.445532 344.815343 
L 406.948247 345.180312 
L 412.450962 337.098303 
L 417.953677 338.70142 
L 423.456392 328.094209 
L 428.959107 336.315568 
L 434.461822 349.180935 
L 439.964537 362.801685 
L 445.467252 296.505219 
L 450.969967 274.594741 
L 456.472682 344.159801 
L 461.975397 346.210441 
L 467.478112 299.567379 
L 472.980827 397.368166 
L 478.483542 373.096958 
L 483.986257 377.422608 
L 489.488972 353.140802 
L 494.991687 369.26754 
L 500.494402 362.080194 
L 505.997117 343.901809 
L 511.499832 345.549741 
L 517.002547 351.204778 
L 522.505262 336.767574 
L 528.007977 341.229022 
L 533.510692 338.142143 
L 539.013407 357.88462 
L 544.516122 351.317313 
L 550.018837 387.908827 
L 555.521552 390.981154 
L 561.024267 321.008925 
L 566.526983 428.156577 
L 572.029698 361.636877 
L 577.532413 328.736853 
L 583.035128 377.144882 
L 588.537843 359.444894 
L 594.040558 420.705361 
L 599.543273 311.58923 
L 605.045988 378.893124 
L 610.548703 350.690172 
L 616.051418 360.986601 
L 621.554133 341.785022 
L 627.056848 344.285414 
L 632.559563 343.61483 
L 638.062278 351.673614 
L 643.564993 337.100689 
L 649.067708 344.920677 
L 654.570423 345.622649 
L 660.073138 349.220375 
L 665.575853 334.152791 
L 671.078568 343.999184 
L 676.581283 370.429307 
L 682.083998 353.359919 
L 687.586713 348.819383 
L 693.089428 351.712879 
L 698.592143 329.745888 
L 704.094858 372.062615 
L 709.597573 395.942191 
L 715.100288 378.682828 
L 720.603003 356.311348 
L 726.105718 406.652131 
L 731.608433 405.243626 
L 737.111148 418.441387 
L 742.613863 359.715881 
L 748.116578 346.146896 
L 753.619293 357.09958 
L 759.122008 355.903346 
L 764.624723 355.874748 
L 770.127438 346.514629 
L 775.630153 331.491657 
L 781.132868 345.654164 
L 786.635583 340.922894 
L 792.138299 352.911945 
L 797.641014 355.168696 
L 803.143729 364.161011 
L 808.646444 397.42884 
L 814.149159 414.749497 
L 819.651874 418.301923 
L 825.154589 371.93673 
L 830.657304 353.730769 
L 836.160019 419.058071 
L 841.662734 349.834699 
L 847.165449 376.616408 
L 852.668164 416.75648 
L 858.170879 393.813585 
L 863.673594 391.619725 
L 869.176309 387.505713 
L 874.679024 435.523295 
L 880.181739 397.00036 
L 885.684454 352.505877 
L 891.187169 339.806775 
L 896.689884 347.662132 
L 902.192599 340.985978 
L 907.695314 343.518377 
L 913.198029 363.951085 
L 918.700744 351.051138 
L 924.203459 348.151158 
L 929.706174 355.527506 
L 935.208889 356.604855 
L 940.711604 395.770727 
L 946.214319 378.429372 
L 951.717034 365.830651 
L 957.219749 375.998862 
L 962.722464 337.589598 
L 968.225179 364.744354 
L 973.727894 360.591061 
L 979.230609 400.693265 
L 984.733324 366.902965 
L 990.236039 413.704642 
L 995.738754 359.558929 
L 1001.241469 388.12765 
L 1006.744184 376.961803 
L 1012.246899 364.038394 
L 1017.749615 342.995321 
L 1023.25233 350.638599 
L 1023.25233 350.638599 
" style="fill:none;stroke:#000000;stroke-linecap:square;stroke-width:1.5;"/>
   </g>
   <g id="patch_3">
    <path d="M 58.35125 454.67125 
L 58.35125 33.41625 
" style="fill:none;stroke:#000000;stroke-linecap:square;stroke-linejoin:miter;stroke-width:0.8;"/>
   </g>
   <g id="patch_4">
    <path d="M 1069.2 454.67125 
L 1069.2 33.41625 
" style="fill:none;stroke:#000000;stroke-linecap:square;stroke-linejoin:miter;stroke-width:0.8;"/>
   </g>
   <g id="patch_5">
    <path d="M 58.35125 454.67125 
L 1069.2 454.67125 
" style="fill:none;stroke:#000000;stroke-linecap:square;stroke-linejoin:miter;stroke-width:0.8;"/>
   </g>
   <g id="patch_6">
    <path d="M 58.35125 33.41625 
L 1069.2 33.41625 
" style="fill:none;stroke:#000000;stroke-linecap:square;stroke-linejoin:miter;stroke-width:0.8;"/>
   </g>
   <g id="text_19">
    <!-- HA 预测值、实际值和误差分布图 ID=200 -->
    <defs>
     <path d="M 44.53125 1.953125 
L 35.546875 1.953125 
L 35.546875 33.203125 
L 13.28125 33.203125 
L 13.28125 1.953125 
L 4.296875 1.953125 
L 4.296875 68.75 
L 13.28125 68.75 
L 13.28125 40.625 
L 35.546875 40.625 
L 35.546875 68.75 
L 44.53125 68.75 
z
" id="SimHei-72"/>
     <path d="M 48.046875 1.953125 
L 38.671875 1.953125 
L 33.203125 22.65625 
L 16.015625 22.65625 
L 10.546875 1.953125 
L 1.171875 1.953125 
L 20.703125 69.53125 
L 28.515625 69.53125 
z
M 31.25 30.078125 
L 25 53.90625 
L 24.21875 53.90625 
L 17.96875 30.078125 
z
" id="SimHei-65"/>
     <path id="SimHei-32"/>
     <path d="M 81.25 75 
Q 87.109375 75 92.96875 75.390625 
L 92.96875 68.75 
Q 87.109375 69.140625 81.25 69.140625 
L 70.3125 69.140625 
Q 69.140625 63.28125 67.96875 56.25 
L 89.453125 56.25 
Q 89.0625 50.390625 89.0625 43.75 
L 89.0625 26.953125 
Q 89.0625 20.3125 89.453125 13.28125 
L 82.03125 13.28125 
L 82.03125 50.390625 
L 55.46875 50.390625 
L 55.46875 12.5 
L 48.046875 12.5 
Q 48.4375 21.484375 48.4375 26.953125 
L 48.4375 43.359375 
Q 48.4375 49.609375 48.046875 56.25 
L 60.9375 56.25 
Q 62.5 64.84375 62.5 69.140625 
L 58.203125 69.140625 
Q 51.5625 69.140625 44.53125 68.75 
L 44.53125 75.390625 
Q 51.953125 75 58.203125 75 
z
M 40.625 27.734375 
Q 36.71875 28.515625 33.59375 28.515625 
Q 35.15625 35.15625 35.9375 38.28125 
L 27.34375 38.28125 
L 27.34375 1.953125 
Q 26.953125 -4.6875 22.265625 -6.25 
Q 17.578125 -7.8125 11.71875 -7.8125 
Q 10.9375 -3.515625 8.984375 0.390625 
Q 17.578125 -0.390625 18.9375 0.578125 
Q 20.3125 1.5625 20.3125 5.46875 
L 20.3125 38.28125 
L 16.015625 38.28125 
Q 10.9375 38.28125 5.46875 37.890625 
L 5.46875 44.53125 
Q 10.9375 44.140625 15.625 44.140625 
L 44.53125 44.140625 
Q 42.578125 36.328125 40.625 27.734375 
z
M 73.828125 44.921875 
Q 72.265625 40.234375 71.875 32.8125 
Q 71.484375 25.390625 69.71875 16.203125 
Q 67.96875 7.03125 61.90625 0.96875 
Q 55.859375 -5.078125 45.703125 -10.546875 
Q 42.1875 -7.8125 38.671875 -5.46875 
Q 48.046875 -1.953125 53.703125 3.125 
Q 59.375 8.203125 61.71875 14.640625 
Q 64.0625 21.09375 64.640625 28.90625 
Q 65.234375 36.71875 65.234375 45.703125 
L 73.828125 44.921875 
z
M 25.390625 45.3125 
Q 19.921875 51.171875 12.5 57.03125 
Q 14.453125 58.984375 16.796875 61.71875 
Q 19.53125 59.765625 22.265625 57.421875 
Q 27.34375 64.84375 30.46875 68.359375 
L 21.875 68.359375 
Q 14.0625 68.359375 7.03125 67.96875 
L 7.03125 74.609375 
Q 14.0625 74.21875 21.484375 74.21875 
L 40.234375 74.21875 
L 40.234375 68.359375 
Q 34.375 64.0625 26.953125 53.125 
L 30.46875 50 
Q 27.34375 47.265625 25.390625 45.3125 
z
M 74.609375 11.328125 
Q 89.453125 0 94.921875 -5.078125 
Q 91.40625 -7.8125 89.453125 -10.15625 
Q 84.375 -5.078125 80.265625 -1.359375 
Q 76.171875 2.34375 70.703125 5.46875 
Q 72.65625 8.203125 74.609375 11.328125 
z
" id="SimHei-39044"/>
     <path d="M 62.890625 73.828125 
Q 62.5 69.921875 62.5 62.5 
L 62.5 34.765625 
Q 62.5 27.734375 62.890625 21.09375 
L 55.46875 21.09375 
L 55.46875 67.578125 
L 36.71875 67.578125 
L 36.71875 20.703125 
L 29.6875 20.703125 
Q 30.078125 27.734375 30.078125 34.765625 
L 30.078125 62.5 
Q 30.078125 65.625 29.6875 73.828125 
L 62.890625 73.828125 
z
M 92.1875 79.296875 
Q 91.796875 75 91.796875 68.359375 
L 91.796875 0 
Q 91.796875 -5.078125 88.28125 -6.640625 
Q 84.765625 -8.203125 77.734375 -9.375 
Q 76.953125 -5.078125 74.609375 -0.78125 
Q 80.078125 -0.78125 82.21875 -0.390625 
Q 84.375 0 84.375 3.90625 
L 84.375 68.359375 
Q 84.375 74.609375 83.984375 79.296875 
L 92.1875 79.296875 
z
M 51.171875 58.203125 
Q 50.390625 53.125 50 36.328125 
Q 49.609375 19.53125 44.328125 8.59375 
Q 39.0625 -2.34375 32.421875 -9.375 
Q 28.90625 -6.25 25 -5.078125 
Q 34.375 3.90625 38.671875 15.03125 
Q 42.96875 26.171875 43.15625 38.671875 
Q 43.359375 51.171875 42.578125 59.375 
Q 46.875 58.59375 51.171875 58.203125 
z
M 77.34375 66.796875 
Q 76.953125 62.5 76.953125 55.859375 
L 76.953125 28.515625 
Q 76.953125 20.3125 77.34375 13.28125 
L 69.53125 13.28125 
Q 69.921875 17.96875 69.921875 28.515625 
L 69.921875 55.859375 
Q 69.921875 62.5 69.53125 66.796875 
L 77.34375 66.796875 
z
M 26.5625 26.171875 
Q 21.484375 16.796875 17.375 7.609375 
Q 13.28125 -1.5625 11.328125 -6.25 
Q 7.8125 -3.125 3.125 -0.390625 
Q 7.421875 4.6875 11.90625 13.28125 
Q 16.40625 21.875 19.53125 31.25 
Q 23.046875 28.515625 26.5625 26.171875 
z
M 53.125 16.40625 
Q 59.375 10.15625 67.1875 -1.953125 
Q 64.0625 -3.515625 60.546875 -7.03125 
Q 54.296875 4.296875 47.265625 11.71875 
Q 50.390625 13.671875 53.125 16.40625 
z
M 9.375 55.078125 
Q 17.578125 48.828125 23.4375 43.359375 
Q 20.3125 40.234375 17.96875 37.109375 
Q 12.890625 43.359375 4.6875 49.21875 
Q 7.03125 51.5625 9.375 55.078125 
z
M 21.09375 62.5 
Q 14.84375 68.359375 7.421875 73.046875 
Q 9.765625 75.78125 12.109375 78.90625 
Q 20.3125 73.4375 26.171875 68.359375 
Q 23.4375 66.40625 21.09375 62.5 
z
" id="SimHei-27979"/>
     <path d="M 57.421875 69.53125 
L 57.421875 79.6875 
Q 62.109375 79.296875 67.96875 78.90625 
Q 66.015625 76.171875 65.625 69.53125 
L 80.078125 69.53125 
Q 86.71875 69.53125 91.796875 69.921875 
L 91.796875 62.890625 
Q 86.328125 63.28125 80.078125 63.28125 
L 65.234375 63.28125 
L 64.453125 54.6875 
L 84.375 54.6875 
Q 83.984375 50 83.984375 42.1875 
L 83.984375 2.34375 
Q 91.796875 2.34375 95.3125 2.734375 
L 95.3125 -4.296875 
Q 90.234375 -3.90625 81.25 -3.90625 
L 44.53125 -3.90625 
Q 35.546875 -3.90625 29.6875 -4.296875 
L 29.6875 2.734375 
Q 33.203125 2.34375 40.625 2.34375 
L 40.625 42.1875 
Q 40.625 49.609375 40.234375 54.6875 
L 56.25 54.6875 
L 57.03125 63.28125 
L 50 63.28125 
Q 40.234375 63.28125 34.765625 62.890625 
L 34.765625 69.921875 
Q 39.84375 69.53125 50 69.53125 
z
M 34.765625 76.5625 
Q 31.640625 73.046875 25.78125 58.59375 
L 25.78125 7.03125 
Q 25.78125 -1.171875 26.171875 -8.59375 
L 17.96875 -8.59375 
Q 18.359375 -1.953125 18.359375 5.859375 
L 18.359375 46.09375 
Q 13.671875 38.28125 9.765625 33.59375 
Q 6.640625 37.890625 3.90625 40.234375 
Q 7.8125 44.140625 14.640625 55.265625 
Q 21.484375 66.40625 25.390625 80.46875 
Q 30.859375 77.734375 34.765625 76.5625 
z
M 76.953125 41.40625 
L 76.953125 49.21875 
L 48.046875 49.21875 
L 48.046875 41.40625 
z
M 76.953125 2.34375 
L 76.953125 9.765625 
L 48.046875 9.765625 
L 48.046875 2.34375 
z
M 76.953125 15.625 
L 76.953125 22.65625 
L 48.046875 22.65625 
L 48.046875 15.625 
z
M 76.953125 28.515625 
L 76.953125 35.546875 
L 48.046875 35.546875 
L 48.046875 28.515625 
z
" id="SimHei-20540"/>
     <path d="M 26.953125 -4.296875 
Q 20.703125 10.9375 14.453125 22.65625 
L 20.703125 25.78125 
Q 28.515625 14.84375 36.328125 0.390625 
z
" id="SimHei-12289"/>
     <path d="M 64.453125 54.6875 
Q 63.28125 50 62.5 41.796875 
Q 61.71875 33.59375 60.15625 24.21875 
L 78.515625 24.21875 
Q 85.546875 24.21875 93.359375 24.609375 
L 93.359375 17.1875 
Q 85.15625 17.578125 78.125 17.578125 
L 58.203125 17.578125 
Q 54.6875 9.765625 47.65625 3.90625 
Q 40.625 -1.953125 31.25 -5.265625 
Q 21.875 -8.59375 14.453125 -10.546875 
Q 12.890625 -5.859375 7.8125 -3.125 
Q 19.140625 -1.953125 32.03125 3.3125 
Q 44.921875 8.59375 50 17.578125 
L 22.265625 17.578125 
Q 15.234375 17.578125 6.640625 17.1875 
L 6.640625 24.609375 
Q 15.625 24.21875 22.265625 24.21875 
L 52.734375 24.21875 
Q 53.90625 30.859375 54.484375 38.46875 
Q 55.078125 46.09375 54.6875 57.03125 
Q 59.375 55.46875 64.453125 54.6875 
z
M 50.78125 82.03125 
Q 53.90625 75.78125 56.25 68.359375 
L 90.234375 68.359375 
Q 89.84375 64.0625 89.84375 59.765625 
Q 89.84375 55.859375 90.234375 51.171875 
L 81.25 51.171875 
L 81.25 62.109375 
L 19.140625 62.109375 
L 19.140625 50.390625 
L 10.546875 50.390625 
Q 10.9375 55.078125 10.9375 59.375 
Q 10.9375 64.0625 10.546875 68.359375 
L 46.484375 68.359375 
Q 45.3125 73.046875 42.1875 79.296875 
Q 45.3125 80.46875 50.78125 82.03125 
z
M 62.5 12.890625 
Q 71.09375 8.203125 78.90625 4.09375 
Q 86.71875 0 92.578125 -3.515625 
Q 89.84375 -6.640625 86.71875 -10.15625 
Q 79.6875 -5.078125 71.484375 -0.578125 
Q 63.28125 3.90625 57.421875 6.25 
Q 60.546875 10.15625 62.5 12.890625 
z
M 18.359375 42.96875 
Q 25 39.84375 36.71875 32.03125 
Q 35.15625 29.6875 32.03125 25.78125 
Q 21.09375 33.984375 14.453125 36.71875 
Q 16.796875 39.0625 18.359375 42.96875 
z
M 49.21875 44.140625 
Q 46.484375 41.015625 44.53125 37.890625 
Q 32.03125 46.875 26.171875 48.828125 
Q 28.125 51.5625 30.46875 55.078125 
z
" id="SimHei-23454"/>
     <path d="M 39.0625 76.5625 
Q 37.890625 73.4375 35.15625 64.0625 
Q 32.421875 54.6875 29.296875 45.3125 
Q 34.375 37.5 36.125 32.03125 
Q 37.890625 26.5625 36.90625 22.0625 
Q 35.9375 17.578125 31.4375 14.25 
Q 26.953125 10.9375 21.09375 10.15625 
Q 19.140625 16.40625 17.578125 19.140625 
Q 26.171875 19.140625 27.921875 22.0625 
Q 29.6875 25 28.703125 29.09375 
Q 27.734375 33.203125 25.96875 37.109375 
Q 24.21875 41.015625 21.09375 44.921875 
Q 23.046875 50.390625 25 57.03125 
Q 26.953125 63.671875 28.90625 69.921875 
L 16.015625 69.921875 
L 16.015625 -8.203125 
L 7.8125 -8.203125 
Q 8.203125 2.734375 8.203125 13.28125 
L 8.203125 59.765625 
Q 8.203125 68.359375 7.8125 76.5625 
L 39.0625 76.5625 
z
M 82.03125 51.5625 
Q 88.28125 51.5625 94.53125 51.953125 
L 94.53125 44.53125 
Q 89.453125 44.921875 83.203125 44.921875 
L 70.3125 44.921875 
L 70.3125 1.171875 
Q 70.3125 -5.078125 66.015625 -6.046875 
Q 61.71875 -7.03125 54.296875 -8.203125 
Q 53.90625 -3.515625 51.171875 1.171875 
Q 58.984375 1.171875 60.734375 1.5625 
Q 62.5 1.953125 62.5 4.296875 
L 62.5 44.921875 
L 52.734375 44.921875 
Q 44.140625 44.921875 38.671875 44.53125 
L 38.671875 51.953125 
Q 47.265625 51.5625 52.734375 51.5625 
z
M 77.734375 74.609375 
Q 83.984375 74.609375 88.671875 75.390625 
L 88.671875 67.96875 
Q 83.984375 68.359375 77.734375 68.359375 
L 57.03125 68.359375 
Q 50.390625 68.359375 45.3125 67.96875 
L 45.3125 75.390625 
Q 50 74.609375 57.8125 74.609375 
z
M 33.59375 3.125 
Q 38.28125 10.9375 41.59375 18.546875 
Q 44.921875 26.171875 47.65625 33.984375 
Q 50.78125 32.8125 55.859375 30.46875 
Q 51.953125 23.4375 48.625 15.625 
Q 45.3125 7.8125 41.40625 -0.390625 
Q 38.28125 1.171875 33.59375 3.125 
z
M 82.421875 34.375 
Q 92.1875 15.234375 96.875 5.46875 
Q 92.96875 3.90625 88.671875 1.5625 
Q 82.8125 16.015625 75 30.078125 
Q 77.34375 31.25 82.421875 34.375 
z
" id="SimHei-38469"/>
     <path d="M 91.796875 65.625 
Q 91.40625 57.8125 91.40625 51.171875 
L 91.40625 10.9375 
Q 91.40625 3.90625 91.796875 -0.390625 
L 83.984375 -0.390625 
L 83.984375 8.984375 
L 65.234375 8.984375 
L 65.234375 -1.171875 
L 57.8125 -1.171875 
Q 58.203125 7.8125 58.203125 9.765625 
L 58.203125 51.171875 
Q 58.203125 57.8125 57.8125 65.625 
L 91.796875 65.625 
z
M 51.171875 69.53125 
Q 47.65625 69.53125 35.15625 67.578125 
L 35.15625 50 
L 41.015625 50 
Q 46.875 50 53.515625 50.390625 
L 53.515625 43.359375 
Q 46.875 43.75 41.40625 43.75 
L 35.15625 43.75 
L 35.15625 3.515625 
Q 35.15625 -3.125 35.546875 -8.59375 
L 27.734375 -8.59375 
Q 28.125 -2.34375 28.125 3.515625 
L 28.125 28.90625 
Q 22.265625 17.96875 10.546875 3.90625 
Q 8.59375 6.640625 4.296875 9.375 
Q 12.890625 17.578125 19.328125 28.3125 
Q 25.78125 39.0625 26.5625 43.75 
L 19.53125 43.75 
Q 10.9375 43.75 7.03125 43.359375 
L 7.03125 50.390625 
Q 11.328125 50 19.53125 50 
L 28.125 50 
L 28.125 66.40625 
Q 23.046875 65.625 12.109375 64.453125 
Q 11.328125 68.359375 9.765625 71.484375 
Q 17.1875 71.875 28.515625 73.4375 
Q 39.84375 75 47.65625 78.125 
Q 48.4375 73.828125 51.171875 69.53125 
z
M 83.984375 15.234375 
L 83.984375 58.984375 
L 65.234375 58.984375 
L 65.234375 15.234375 
z
M 48.046875 15.625 
Q 42.96875 25.390625 36.328125 32.8125 
Q 38.671875 34.375 42.1875 37.5 
Q 49.609375 29.296875 54.6875 20.703125 
Q 50.78125 18.359375 48.046875 15.625 
z
" id="SimHei-21644"/>
     <path d="M 72.265625 42.96875 
Q 83.203125 42.96875 90.625 43.359375 
L 90.625 36.71875 
Q 82.8125 37.109375 72.265625 37.109375 
L 64.84375 37.109375 
Q 64.84375 33.203125 64.0625 25.78125 
L 78.515625 25.78125 
Q 87.109375 25.78125 95.3125 26.171875 
L 95.3125 19.140625 
Q 87.109375 19.53125 78.515625 19.53125 
L 66.40625 19.53125 
Q 71.484375 9.375 78.90625 4.484375 
Q 86.328125 -0.390625 95.703125 -1.953125 
Q 92.1875 -5.46875 90.234375 -9.765625 
Q 76.171875 -4.296875 69.53125 2.734375 
Q 62.890625 9.765625 60.9375 15.625 
Q 56.25 5.078125 48.828125 -0.96875 
Q 41.40625 -7.03125 31.640625 -10.546875 
Q 30.859375 -7.03125 26.953125 -3.125 
Q 38.671875 -1.171875 45.890625 6.828125 
Q 53.125 14.84375 54.296875 19.53125 
L 46.484375 19.53125 
Q 37.5 19.53125 31.640625 19.140625 
L 31.640625 26.171875 
Q 38.671875 25.78125 45.3125 25.78125 
L 56.25 25.78125 
Q 57.03125 31.640625 57.03125 37.109375 
L 51.953125 37.109375 
Q 41.796875 37.109375 34.765625 36.71875 
L 34.765625 43.359375 
Q 42.1875 42.96875 49.21875 42.96875 
z
M 84.765625 76.171875 
Q 84.375 71.09375 84.375 63.671875 
Q 84.375 56.25 84.765625 51.953125 
L 38.28125 51.953125 
Q 38.671875 55.859375 38.671875 63.28125 
Q 38.671875 70.703125 38.28125 76.171875 
L 84.765625 76.171875 
z
M 24.21875 51.953125 
Q 23.828125 46.875 23.828125 39.0625 
L 23.828125 10.546875 
L 29.6875 17.1875 
Q 31.640625 13.671875 34.765625 10.9375 
Q 26.171875 4.6875 19.53125 -5.078125 
Q 17.1875 -1.5625 12.890625 0.78125 
Q 16.015625 3.90625 16.40625 7.8125 
L 16.40625 45.3125 
Q 10.9375 45.3125 5.078125 44.921875 
L 5.078125 52.34375 
Q 8.59375 51.953125 11.71875 51.953125 
z
M 77.734375 57.8125 
L 77.734375 69.921875 
L 45.3125 69.921875 
L 45.3125 57.8125 
z
M 15.234375 80.078125 
Q 17.96875 78.125 29.6875 66.796875 
Q 26.953125 64.453125 24.21875 61.328125 
Q 17.96875 68.75 10.546875 74.609375 
Q 13.671875 77.734375 15.234375 80.078125 
z
" id="SimHei-35823"/>
     <path d="M 73.828125 77.734375 
Q 70.3125 73.828125 66.40625 66.796875 
L 75.78125 66.796875 
Q 85.15625 66.796875 91.015625 67.1875 
L 91.015625 60.15625 
Q 84.765625 60.546875 75.78125 60.546875 
L 51.171875 60.546875 
Q 50.390625 56.25 49.21875 51.171875 
L 70.703125 51.171875 
Q 79.296875 51.171875 86.328125 51.5625 
L 86.328125 44.53125 
Q 79.296875 44.921875 70.3125 44.921875 
L 47.65625 44.921875 
Q 46.484375 41.40625 44.53125 36.328125 
L 80.078125 36.328125 
Q 88.671875 36.328125 94.140625 36.71875 
L 94.140625 29.6875 
Q 89.0625 30.078125 80.46875 30.078125 
L 41.40625 30.078125 
Q 37.890625 24.21875 35.15625 20.3125 
Q 41.40625 19.921875 48.4375 19.921875 
L 70.703125 19.921875 
Q 77.734375 19.921875 83.59375 20.3125 
L 83.59375 13.28125 
Q 77.734375 13.671875 71.484375 13.671875 
L 61.328125 13.671875 
L 61.328125 -0.78125 
L 78.125 -0.78125 
Q 81.25 -0.78125 92.1875 -0.390625 
L 92.1875 -7.8125 
Q 82.421875 -7.421875 78.515625 -7.421875 
L 32.8125 -7.421875 
Q 26.5625 -7.421875 21.875 -7.8125 
L 21.875 -0.390625 
Q 27.734375 -0.78125 33.203125 -0.78125 
L 53.515625 -0.78125 
L 53.515625 13.671875 
L 48.4375 13.671875 
Q 41.015625 13.671875 33.984375 13.28125 
L 33.984375 18.75 
Q 30.078125 13.671875 23.234375 7.421875 
Q 16.40625 1.171875 9.765625 -3.90625 
Q 6.640625 -0.390625 3.125 2.34375 
Q 11.71875 7.421875 19.71875 14.453125 
Q 27.734375 21.484375 32.8125 30.078125 
L 20.703125 30.078125 
Q 11.71875 30.078125 5.859375 29.6875 
L 5.859375 36.71875 
Q 11.71875 36.328125 21.09375 36.328125 
L 36.328125 36.328125 
Q 38.28125 40.234375 39.84375 44.921875 
L 26.953125 44.921875 
Q 21.484375 44.921875 15.625 44.53125 
L 15.625 51.5625 
Q 23.4375 51.171875 26.5625 51.171875 
L 41.40625 51.171875 
Q 42.578125 55.859375 43.359375 60.546875 
L 23.4375 60.546875 
Q 17.1875 60.546875 10.15625 60.15625 
L 10.15625 67.1875 
Q 16.015625 66.796875 22.265625 66.796875 
L 35.546875 66.796875 
Q 32.421875 73.046875 28.90625 77.34375 
Q 31.640625 78.90625 35.15625 81.640625 
Q 38.28125 77.734375 42.578125 71.09375 
Q 39.453125 69.53125 36.328125 66.796875 
L 58.59375 66.796875 
Q 62.5 73.4375 64.84375 82.03125 
Q 68.75 79.6875 73.828125 77.734375 
z
" id="SimHei-24046"/>
     <path d="M 15.625 -10.15625 
Q 12.890625 -5.859375 8.984375 -3.515625 
Q 15.234375 -1.171875 20.3125 2.140625 
Q 25.390625 5.46875 29.296875 10.34375 
Q 33.203125 15.234375 35.15625 21.09375 
Q 37.109375 26.953125 37.890625 35.546875 
Q 28.90625 35.546875 23.4375 35.15625 
L 23.4375 43.359375 
Q 29.6875 42.96875 39.453125 42.96875 
L 78.515625 42.96875 
Q 77.734375 37.109375 77.34375 32.8125 
L 74.21875 3.90625 
Q 73.4375 -3.125 67.96875 -5.46875 
Q 62.5 -7.8125 55.859375 -8.203125 
Q 55.46875 -4.296875 51.953125 0.78125 
Q 60.15625 0.390625 63.078125 1.359375 
Q 66.015625 2.34375 66.796875 8.203125 
L 69.53125 35.546875 
L 46.09375 35.546875 
Q 44.921875 25.390625 42.765625 18.546875 
Q 40.625 11.71875 36.71875 6.640625 
Q 32.8125 1.5625 27.34375 -2.734375 
Q 21.875 -7.03125 15.625 -10.15625 
z
M 61.71875 80.859375 
Q 64.453125 72.65625 72.84375 62.109375 
Q 81.25 51.5625 96.484375 43.75 
Q 93.359375 41.015625 90.234375 35.546875 
Q 83.203125 40.625 77.921875 45.109375 
Q 72.65625 49.609375 69.140625 53.515625 
Q 65.625 57.421875 61.328125 64.640625 
Q 57.03125 71.875 54.296875 78.125 
Q 58.59375 79.296875 61.71875 80.859375 
z
M 42.1875 75.390625 
Q 38.671875 69.140625 36.328125 64.453125 
Q 33.984375 59.765625 31.640625 56.046875 
Q 29.296875 52.34375 24.609375 46.09375 
Q 19.921875 39.84375 13.28125 33.203125 
Q 9.765625 36.71875 6.25 38.671875 
Q 14.0625 45.703125 18.546875 51.5625 
Q 23.046875 57.421875 27.140625 64.25 
Q 31.25 71.09375 34.375 79.296875 
Q 37.5 76.953125 42.1875 75.390625 
z
" id="SimHei-20998"/>
     <path d="M 37.109375 66.015625 
Q 41.40625 74.609375 43.359375 82.8125 
Q 48.828125 80.859375 53.125 79.296875 
Q 51.171875 77.734375 46.09375 66.015625 
L 75 66.015625 
Q 86.71875 66.015625 94.140625 66.40625 
L 94.140625 59.375 
L 42.578125 59.375 
Q 36.328125 48.4375 30.859375 41.796875 
L 51.171875 41.796875 
Q 51.171875 50.390625 50.78125 55.859375 
L 58.984375 55.859375 
Q 58.59375 50.390625 58.59375 41.796875 
L 85.9375 41.796875 
Q 85.546875 34.765625 85.546875 27.734375 
L 85.546875 11.71875 
Q 85.546875 4.296875 81.4375 2.34375 
Q 77.34375 0.390625 69.53125 -0.390625 
Q 68.75 5.078125 66.015625 8.59375 
Q 75 8.59375 76.75 9.765625 
Q 78.515625 10.9375 78.125 16.015625 
L 78.125 35.15625 
L 58.59375 35.15625 
L 58.59375 8.59375 
Q 58.59375 0.390625 58.984375 -9.375 
L 50.78125 -9.375 
Q 51.171875 0.390625 51.171875 8.59375 
L 51.171875 35.15625 
L 32.8125 35.15625 
L 32.8125 0 
L 25 0 
Q 25.390625 8.203125 25.390625 16.015625 
L 25.390625 34.765625 
Q 20.3125 28.90625 10.15625 19.921875 
Q 7.421875 23.046875 3.125 25.78125 
Q 11.71875 31.640625 19.71875 40.03125 
Q 27.734375 48.4375 33.59375 59.375 
L 24.21875 59.375 
Q 14.453125 59.375 6.25 58.984375 
L 6.25 66.40625 
Q 14.453125 66.015625 24.21875 66.015625 
z
" id="SimHei-24067"/>
     <path d="M 90.625 77.734375 
Q 90.234375 67.96875 90.234375 56.25 
L 90.234375 14.453125 
Q 90.234375 2.34375 90.625 -9.375 
L 82.8125 -9.375 
L 82.8125 -4.296875 
L 17.578125 -4.296875 
L 17.578125 -10.15625 
L 9.765625 -10.15625 
Q 10.15625 1.953125 10.15625 14.84375 
L 10.15625 56.25 
Q 10.15625 67.578125 9.765625 77.734375 
L 90.625 77.734375 
z
M 82.8125 2.34375 
L 82.8125 71.484375 
L 17.578125 71.484375 
L 17.578125 2.34375 
z
M 50.390625 66.40625 
Q 48.046875 64.0625 46.09375 61.328125 
L 72.265625 61.328125 
Q 70.703125 57.8125 67.1875 52.734375 
Q 63.671875 47.65625 56.25 40.625 
Q 67.96875 34.765625 79.296875 33.59375 
Q 76.5625 30.078125 74.609375 26.171875 
Q 60.15625 30.46875 50.390625 36.71875 
Q 39.0625 29.296875 26.171875 25.78125 
Q 25 29.296875 21.875 32.421875 
Q 34.375 34.375 44.921875 40.625 
Q 39.453125 45.703125 37.109375 49.21875 
Q 33.59375 45.3125 29.6875 41.40625 
Q 26.953125 44.53125 23.828125 46.09375 
Q 30.46875 51.5625 35.15625 58.390625 
Q 39.84375 65.234375 41.796875 69.921875 
Q 45.703125 67.96875 50.390625 66.40625 
z
M 38.28125 19.921875 
Q 55.46875 14.84375 64.0625 11.328125 
Q 62.109375 8.203125 60.15625 4.6875 
Q 44.140625 11.328125 35.546875 13.28125 
Q 37.109375 16.40625 38.28125 19.921875 
z
M 45.703125 32.03125 
Q 58.984375 26.5625 63.671875 25 
Q 61.71875 21.875 60.15625 17.96875 
Q 46.875 24.21875 42.1875 25.78125 
Q 44.140625 28.515625 45.703125 32.03125 
z
M 41.015625 53.90625 
Q 46.875 47.265625 51.171875 44.53125 
Q 56.25 48.4375 60.546875 55.078125 
L 41.796875 55.078125 
L 41.015625 53.90625 
z
" id="SimHei-22270"/>
     <path d="M 28.90625 1.953125 
L 19.921875 1.953125 
L 19.921875 68.75 
L 28.90625 68.75 
z
" id="SimHei-73"/>
     <path d="M 45.703125 35.15625 
Q 45.703125 17.1875 38.078125 9.5625 
Q 30.46875 1.953125 17.578125 1.953125 
L 4.296875 1.953125 
L 4.296875 68.75 
L 17.578125 68.75 
Q 32.03125 68.75 38.859375 60.9375 
Q 45.703125 53.125 45.703125 35.15625 
z
M 36.328125 35.15625 
Q 36.328125 49.609375 31.640625 55.46875 
Q 26.953125 61.328125 17.578125 61.328125 
L 13.28125 61.328125 
L 13.28125 9.375 
L 17.578125 9.375 
Q 26.953125 9.375 31.640625 15.03125 
Q 36.328125 20.703125 36.328125 35.15625 
z
" id="SimHei-68"/>
     <path d="M 46.484375 45.3125 
L 1.953125 45.3125 
L 1.953125 51.5625 
L 46.484375 51.5625 
z
M 46.484375 21.484375 
L 1.953125 21.484375 
L 1.953125 27.734375 
L 46.484375 27.734375 
z
" id="SimHei-61"/>
    </defs>
    <g transform="translate(383.775625 27.41625)scale(0.2 -0.2)">
     <use xlink:href="#SimHei-72"/>
     <use x="50" xlink:href="#SimHei-65"/>
     <use x="100" xlink:href="#SimHei-32"/>
     <use x="150" xlink:href="#SimHei-39044"/>
     <use x="250" xlink:href="#SimHei-27979"/>
     <use x="350" xlink:href="#SimHei-20540"/>
     <use x="450" xlink:href="#SimHei-12289"/>
     <use x="550" xlink:href="#SimHei-23454"/>
     <use x="650" xlink:href="#SimHei-38469"/>
     <use x="750" xlink:href="#SimHei-20540"/>
     <use x="850" xlink:href="#SimHei-21644"/>
     <use x="950" xlink:href="#SimHei-35823"/>
     <use x="1050" xlink:href="#SimHei-24046"/>
     <use x="1150" xlink:href="#SimHei-20998"/>
     <use x="1250" xlink:href="#SimHei-24067"/>
     <use x="1350" xlink:href="#SimHei-22270"/>
     <use x="1450" xlink:href="#SimHei-32"/>
     <use x="1500" xlink:href="#SimHei-73"/>
     <use x="1550" xlink:href="#SimHei-68"/>
     <use x="1600" xlink:href="#SimHei-61"/>
     <use x="1650" xlink:href="#SimHei-50"/>
     <use x="1700" xlink:href="#SimHei-48"/>
     <use x="1750" xlink:href="#SimHei-48"/>
    </g>
   </g>
   <g id="legend_1">
    <g id="patch_7">
     <path d="M 965.7 109.342031 
L 1058.7 109.342031 
Q 1061.7 109.342031 1061.7 106.342031 
L 1061.7 43.91625 
Q 1061.7 40.91625 1058.7 40.91625 
L 965.7 40.91625 
Q 962.7 40.91625 962.7 43.91625 
L 962.7 106.342031 
Q 962.7 109.342031 965.7 109.342031 
z
" style="fill:#ffffff;opacity:0.8;stroke:#cccccc;stroke-linejoin:miter;"/>
    </g>
    <g id="line2d_20">
     <path d="M 968.7 53.677969 
L 998.7 53.677969 
" style="fill:none;stroke:#0000ff;stroke-linecap:square;stroke-width:1.5;"/>
    </g>
    <g id="line2d_21"/>
    <g id="text_20">
     <!-- 真实值 -->
     <defs>
      <path d="M 55.46875 79.6875 
Q 53.90625 76.953125 53.125 72.265625 
L 75.78125 72.265625 
Q 80.859375 72.265625 89.453125 72.65625 
L 89.453125 66.40625 
Q 81.25 66.796875 75.78125 66.796875 
L 52.34375 66.796875 
L 51.5625 60.15625 
L 78.90625 60.15625 
Q 78.515625 55.46875 78.515625 49.21875 
L 78.515625 16.796875 
L 84.375 16.796875 
Q 90.625 16.796875 94.921875 17.1875 
L 94.921875 9.765625 
Q 87.109375 10.15625 76.5625 10.15625 
L 22.65625 10.15625 
Q 12.109375 10.15625 5.46875 9.765625 
L 5.46875 17.1875 
Q 11.328125 16.796875 17.1875 16.796875 
L 22.265625 16.796875 
L 22.265625 48.046875 
Q 22.265625 53.90625 21.875 60.15625 
L 44.140625 60.15625 
L 44.53125 66.796875 
L 21.875 66.796875 
Q 16.40625 66.796875 9.765625 66.40625 
L 9.765625 72.65625 
Q 18.359375 72.265625 21.484375 72.265625 
L 45.703125 72.265625 
Q 46.09375 76.171875 46.09375 80.078125 
Q 51.5625 79.6875 55.46875 79.6875 
z
M 63.671875 8.203125 
Q 70.3125 6.640625 76.953125 3.90625 
Q 83.59375 1.171875 91.015625 -2.34375 
Q 86.71875 -6.640625 85.15625 -8.984375 
Q 78.515625 -4.6875 71.09375 -1.5625 
Q 63.671875 1.5625 59.375 2.734375 
Q 61.328125 5.46875 63.671875 8.203125 
z
M 70.703125 49.21875 
L 70.703125 54.296875 
L 30.078125 54.296875 
L 30.078125 49.21875 
z
M 70.703125 16.796875 
L 70.703125 21.875 
L 30.078125 21.875 
L 30.078125 16.796875 
z
M 43.359375 3.125 
Q 37.109375 -0.390625 29.296875 -3.515625 
Q 21.484375 -6.640625 14.84375 -8.984375 
Q 12.109375 -6.25 9.375 -3.90625 
Q 19.140625 -0.78125 25.390625 2.140625 
Q 31.640625 5.078125 36.71875 8.203125 
Q 39.84375 5.46875 43.359375 3.125 
z
M 70.703125 27.734375 
L 70.703125 32.421875 
L 30.078125 32.421875 
L 30.078125 27.734375 
z
M 70.703125 38.671875 
L 70.703125 43.359375 
L 30.078125 43.359375 
L 30.078125 38.671875 
z
" id="SimHei-30495"/>
     </defs>
     <g transform="translate(1010.7 58.927969)scale(0.15 -0.15)">
      <use xlink:href="#SimHei-30495"/>
      <use x="100" xlink:href="#SimHei-23454"/>
      <use x="200" xlink:href="#SimHei-20540"/>
     </g>
    </g>
    <g id="line2d_22">
     <path d="M 968.7 74.830312 
L 998.7 74.830312 
" style="fill:none;stroke:#ff0000;stroke-linecap:square;stroke-width:1.5;"/>
    </g>
    <g id="line2d_23"/>
    <g id="text_21">
     <!-- 预测值 -->
     <g transform="translate(1010.7 80.080312)scale(0.15 -0.15)">
      <use xlink:href="#SimHei-39044"/>
      <use x="100" xlink:href="#SimHei-27979"/>
      <use x="200" xlink:href="#SimHei-20540"/>
     </g>
    </g>
    <g id="line2d_24">
     <path d="M 968.7 96.217031 
L 998.7 96.217031 
" style="fill:none;stroke:#000000;stroke-linecap:square;stroke-width:1.5;"/>
    </g>
    <g id="line2d_25"/>
    <g id="text_22">
     <!-- 误差值 -->
     <g transform="translate(1010.7 101.467031)scale(0.15 -0.15)">
      <use xlink:href="#SimHei-35823"/>
      <use x="100" xlink:href="#SimHei-24046"/>
      <use x="200" xlink:href="#SimHei-20540"/>
     </g>
    </g>
   </g>
  </g>
 </g>
 <defs>
  <clipPath id="p99f92e53a6">
   <rect height="421.255" width="1010.84875" x="58.35125" y="33.41625"/>
  </clipPath>
 </defs>
</svg>
