<?xml version="1.0" encoding="utf-8" standalone="no"?>
<!DOCTYPE svg PUBLIC "-//W3C//DTD SVG 1.1//EN"
  "http://www.w3.org/Graphics/SVG/1.1/DTD/svg11.dtd">
<!-- Created with matplotlib (https://matplotlib.org/) -->
<svg height="345.6pt" version="1.1" viewBox="0 0 460.8 345.6" width="460.8pt" xmlns="http://www.w3.org/2000/svg" xmlns:xlink="http://www.w3.org/1999/xlink">
 <defs>
  <style type="text/css">
*{stroke-linecap:butt;stroke-linejoin:round;}
  </style>
 </defs>
 <g id="figure_1">
  <g id="patch_1">
   <path d="M 0 345.6 
L 460.8 345.6 
L 460.8 0 
L 0 0 
z
" style="fill:#ffffff;"/>
  </g>
  <g id="axes_1">
   <g id="patch_2">
    <path d="M 54.83 302.2 
L 450 302.2 
L 450 25.44 
L 54.83 25.44 
z
" style="fill:#ffffff;"/>
   </g>
   <g id="matplotlib.axis_1">
    <g id="xtick_1">
     <g id="line2d_1">
      <defs>
       <path d="M 0 0 
L 0 3.5 
" id="mef473e67bf" style="stroke:#000000;stroke-width:0.8;"/>
      </defs>
      <g>
       <use style="stroke:#000000;stroke-width:0.8;" x="72.792273" xlink:href="#mef473e67bf" y="302.2"/>
      </g>
     </g>
     <g id="text_1">
      <!-- 0 -->
      <defs>
       <path d="M 3.125 29.296875 
Q 3.90625 50 6.4375 56.046875 
Q 8.984375 62.109375 13.671875 66.015625 
Q 18.359375 69.921875 25.1875 69.921875 
Q 32.03125 69.921875 37.109375 64.25 
Q 42.1875 58.59375 43.75 50 
Q 45.3125 41.40625 44.71875 30.265625 
Q 44.140625 19.140625 40.8125 12.109375 
Q 37.5 5.078125 30.859375 2.34375 
Q 24.21875 -0.390625 17.578125 2.921875 
Q 10.9375 6.25 8.203125 11.71875 
Q 5.46875 17.1875 4.296875 23.234375 
Q 3.125 29.296875 3.90625 50 
z
M 12.890625 52.734375 
Q 10.546875 31.25 12.5 22.84375 
Q 14.453125 14.453125 18.9375 10.9375 
Q 23.4375 7.421875 28.125 9.5625 
Q 32.8125 11.71875 34.953125 18.15625 
Q 37.109375 24.609375 37.109375 32.21875 
Q 37.109375 39.84375 36.515625 46.09375 
Q 35.9375 52.34375 33 57.421875 
Q 30.078125 62.5 25.1875 62.6875 
Q 20.3125 62.890625 16.59375 57.8125 
Q 12.890625 52.734375 10.546875 31.25 
z
" id="SimHei-48"/>
      </defs>
      <g transform="translate(70.292273 316.075)scale(0.1 -0.1)">
       <use xlink:href="#SimHei-48"/>
      </g>
     </g>
    </g>
    <g id="xtick_2">
     <g id="line2d_2">
      <g>
       <use style="stroke:#000000;stroke-width:0.8;" x="146.107672" xlink:href="#mef473e67bf" y="302.2"/>
      </g>
     </g>
     <g id="text_2">
      <!-- 10 -->
      <defs>
       <path d="M 21.875 56.25 
Q 16.796875 51.171875 8.984375 46.484375 
L 8.984375 53.90625 
Q 18.75 60.546875 25 69.53125 
L 29.6875 69.53125 
L 29.6875 2.34375 
L 21.875 2.34375 
z
" id="SimHei-49"/>
      </defs>
      <g transform="translate(141.107672 316.075)scale(0.1 -0.1)">
       <use xlink:href="#SimHei-49"/>
       <use x="50" xlink:href="#SimHei-48"/>
      </g>
     </g>
    </g>
    <g id="xtick_3">
     <g id="line2d_3">
      <g>
       <use style="stroke:#000000;stroke-width:0.8;" x="219.423071" xlink:href="#mef473e67bf" y="302.2"/>
      </g>
     </g>
     <g id="text_3">
      <!-- 20 -->
      <defs>
       <path d="M 4.6875 3.90625 
Q 5.078125 9.765625 10.15625 14.453125 
Q 15.234375 19.140625 23.046875 29.09375 
Q 30.859375 39.0625 33.203125 44.53125 
Q 35.546875 50 34.953125 53.90625 
Q 34.375 57.8125 31.25 60.34375 
Q 28.125 62.890625 24.015625 62.5 
Q 19.921875 62.109375 16.203125 59.375 
Q 12.5 56.640625 10.546875 51.171875 
L 3.125 52.34375 
Q 6.25 61.328125 11.125 65.421875 
Q 16.015625 69.53125 22.65625 69.921875 
Q 26.5625 70.3125 29.6875 69.71875 
Q 32.8125 69.140625 36.125 66.984375 
Q 39.453125 64.84375 41.59375 60.546875 
Q 43.75 56.25 43.15625 50.1875 
Q 42.578125 44.140625 37.109375 35.734375 
Q 31.640625 27.34375 16.015625 9.375 
L 44.140625 9.375 
L 44.140625 2.34375 
L 4.6875 2.34375 
z
" id="SimHei-50"/>
      </defs>
      <g transform="translate(214.423071 316.075)scale(0.1 -0.1)">
       <use xlink:href="#SimHei-50"/>
       <use x="50" xlink:href="#SimHei-48"/>
      </g>
     </g>
    </g>
    <g id="xtick_4">
     <g id="line2d_4">
      <g>
       <use style="stroke:#000000;stroke-width:0.8;" x="292.738469" xlink:href="#mef473e67bf" y="302.2"/>
      </g>
     </g>
     <g id="text_4">
      <!-- 30 -->
      <defs>
       <path d="M 3.90625 19.140625 
L 10.9375 20.3125 
Q 12.5 15.234375 16.015625 11.90625 
Q 19.53125 8.59375 24.796875 8.78125 
Q 30.078125 8.984375 33.203125 13.078125 
Q 36.328125 17.1875 35.9375 22.453125 
Q 35.546875 27.734375 31.828125 30.65625 
Q 28.125 33.59375 19.921875 34.765625 
L 19.921875 39.84375 
Q 28.125 40.625 31.828125 44.140625 
Q 35.546875 47.65625 35.15625 53.3125 
Q 34.765625 58.984375 30.078125 61.515625 
Q 25.390625 64.0625 20.109375 62.109375 
Q 14.84375 60.15625 11.71875 51.171875 
L 4.6875 52.34375 
Q 7.03125 59.375 11.125 64.0625 
Q 15.234375 68.75 22.265625 69.53125 
Q 29.296875 70.3125 34.5625 67.765625 
Q 39.84375 65.234375 41.984375 59.953125 
Q 44.140625 54.6875 42.578125 48.4375 
Q 41.015625 42.1875 33.59375 37.5 
Q 39.0625 35.15625 41.984375 30.46875 
Q 44.921875 25.78125 43.9375 18.15625 
Q 42.96875 10.546875 37.109375 5.859375 
Q 31.25 1.171875 23.828125 1.359375 
Q 16.40625 1.5625 10.9375 6.046875 
Q 5.46875 10.546875 3.90625 19.140625 
z
" id="SimHei-51"/>
      </defs>
      <g transform="translate(287.738469 316.075)scale(0.1 -0.1)">
       <use xlink:href="#SimHei-51"/>
       <use x="50" xlink:href="#SimHei-48"/>
      </g>
     </g>
    </g>
    <g id="xtick_5">
     <g id="line2d_5">
      <g>
       <use style="stroke:#000000;stroke-width:0.8;" x="366.053868" xlink:href="#mef473e67bf" y="302.2"/>
      </g>
     </g>
     <g id="text_5">
      <!-- 40 -->
      <defs>
       <path d="M 31.25 17.1875 
L 1.171875 17.1875 
L 1.171875 23.828125 
L 32.8125 69.53125 
L 38.671875 69.53125 
L 38.671875 23.828125 
L 48.046875 23.828125 
L 48.046875 17.1875 
L 38.671875 17.1875 
L 38.671875 2.34375 
L 31.25 2.34375 
z
M 31.25 23.828125 
L 31.25 54.6875 
L 9.375 23.828125 
z
" id="SimHei-52"/>
      </defs>
      <g transform="translate(361.053868 316.075)scale(0.1 -0.1)">
       <use xlink:href="#SimHei-52"/>
       <use x="50" xlink:href="#SimHei-48"/>
      </g>
     </g>
    </g>
    <g id="xtick_6">
     <g id="line2d_6">
      <g>
       <use style="stroke:#000000;stroke-width:0.8;" x="439.369267" xlink:href="#mef473e67bf" y="302.2"/>
      </g>
     </g>
     <g id="text_6">
      <!-- 50 -->
      <defs>
       <path d="M 8.59375 20.703125 
Q 11.328125 10.15625 17.96875 8.984375 
Q 24.609375 7.8125 28.703125 10.34375 
Q 32.8125 12.890625 34.5625 16.984375 
Q 36.328125 21.09375 36.125 26.171875 
Q 35.9375 31.25 33.390625 34.765625 
Q 30.859375 38.28125 26.953125 39.453125 
Q 23.046875 40.625 18.15625 39.453125 
Q 13.28125 38.28125 10.15625 33.984375 
L 3.515625 34.765625 
Q 4.296875 37.109375 10.9375 68.359375 
L 41.796875 68.359375 
L 41.796875 61.328125 
L 16.796875 61.328125 
Q 14.84375 50.78125 12.890625 44.53125 
Q 18.75 47.265625 23.828125 47.0625 
Q 28.90625 46.875 33.59375 44.71875 
Q 38.28125 42.578125 40.421875 38.859375 
Q 42.578125 35.15625 43.546875 31.4375 
Q 44.53125 27.734375 44.328125 23.4375 
Q 44.140625 19.140625 42.578125 14.640625 
Q 41.015625 10.15625 37.890625 7.21875 
Q 34.765625 4.296875 30.265625 2.53125 
Q 25.78125 0.78125 19.921875 1.171875 
Q 14.0625 1.5625 8.78125 5.46875 
Q 3.515625 9.375 1.5625 18.75 
z
" id="SimHei-53"/>
      </defs>
      <g transform="translate(434.369267 316.075)scale(0.1 -0.1)">
       <use xlink:href="#SimHei-53"/>
       <use x="50" xlink:href="#SimHei-48"/>
      </g>
     </g>
    </g>
    <g id="text_7">
     <!-- Epoch -->
     <defs>
      <path d="M 45.3125 1.953125 
L 5.46875 1.953125 
L 5.46875 68.75 
L 43.359375 68.75 
L 43.359375 61.328125 
L 14.453125 61.328125 
L 14.453125 40.625 
L 41.015625 40.625 
L 41.015625 33.203125 
L 14.453125 33.203125 
L 14.453125 9.375 
L 45.3125 9.375 
z
" id="SimHei-69"/>
      <path d="M 44.140625 23.828125 
Q 44.140625 12.5 38.671875 6.640625 
Q 33.203125 0.78125 25.390625 0.78125 
Q 21.09375 0.78125 17.96875 2.53125 
Q 14.84375 4.296875 12.5 7.8125 
L 12.5 -12.5 
L 4.6875 -12.5 
L 4.6875 45.703125 
L 12.5 45.703125 
L 12.5 39.84375 
Q 14.84375 43.359375 17.96875 44.921875 
Q 21.09375 46.484375 25.390625 46.484375 
Q 33.203125 46.484375 38.671875 40.8125 
Q 44.140625 35.15625 44.140625 23.828125 
z
M 35.546875 23.828125 
Q 35.546875 31.25 32.609375 35.34375 
Q 29.6875 39.453125 23.828125 39.453125 
Q 19.140625 39.453125 15.8125 35.34375 
Q 12.5 31.25 12.5 23.828125 
Q 12.5 16.40625 15.8125 12.109375 
Q 19.140625 7.8125 23.828125 7.8125 
Q 29.6875 7.8125 32.609375 12.109375 
Q 35.546875 16.40625 35.546875 23.828125 
z
" id="SimHei-112"/>
      <path d="M 45.703125 23.828125 
Q 45.703125 13.671875 39.453125 7.421875 
Q 33.203125 1.171875 24.609375 1.171875 
Q 16.015625 1.171875 9.765625 7.421875 
Q 3.515625 13.671875 3.515625 23.828125 
Q 3.515625 33.984375 9.765625 40.234375 
Q 16.015625 46.484375 24.609375 46.484375 
Q 33.203125 46.484375 39.453125 40.234375 
Q 45.703125 33.984375 45.703125 23.828125 
z
M 37.109375 23.828125 
Q 37.109375 31.640625 33.203125 35.546875 
Q 29.296875 39.453125 24.609375 39.453125 
Q 19.921875 39.453125 16.015625 35.546875 
Q 12.109375 31.640625 12.109375 23.828125 
Q 12.109375 16.015625 16.015625 12.109375 
Q 19.921875 8.203125 24.609375 8.203125 
Q 29.296875 8.203125 33.203125 12.109375 
Q 37.109375 16.015625 37.109375 23.828125 
z
" id="SimHei-111"/>
      <path d="M 44.53125 19.53125 
Q 44.53125 11.328125 38.859375 6.25 
Q 33.203125 1.171875 24.609375 1.171875 
Q 16.015625 1.171875 9.765625 7.21875 
Q 3.515625 13.28125 3.515625 23.828125 
Q 3.515625 34.375 9.765625 40.421875 
Q 16.015625 46.484375 24.609375 46.484375 
Q 33.203125 46.484375 38.28125 41.984375 
Q 43.359375 37.5 43.359375 31.25 
L 34.765625 31.25 
Q 34.375 35.9375 31.4375 37.6875 
Q 28.515625 39.453125 24.609375 39.453125 
Q 19.921875 39.453125 16.015625 35.734375 
Q 12.109375 32.03125 12.109375 23.828125 
Q 12.109375 15.625 16.015625 11.90625 
Q 19.921875 8.203125 24.609375 8.203125 
Q 29.6875 8.203125 32.8125 10.9375 
Q 35.9375 13.671875 35.9375 19.53125 
z
" id="SimHei-99"/>
      <path d="M 43.75 1.953125 
L 35.9375 1.953125 
L 35.9375 30.078125 
Q 35.9375 34.765625 33.59375 37.5 
Q 31.25 40.234375 27.34375 40.234375 
Q 22.265625 40.234375 17.765625 34.953125 
Q 13.28125 29.6875 13.28125 21.875 
L 13.28125 1.953125 
L 5.46875 1.953125 
L 5.46875 68.75 
L 13.28125 68.75 
L 13.28125 37.5 
Q 16.40625 41.796875 20.109375 44.140625 
Q 23.828125 46.484375 29.6875 46.484375 
Q 36.71875 46.484375 40.234375 42.578125 
Q 43.75 38.671875 43.75 32.8125 
z
" id="SimHei-104"/>
     </defs>
     <g transform="translate(233.665 331.6375)scale(0.15 -0.15)">
      <use xlink:href="#SimHei-69"/>
      <use x="50" xlink:href="#SimHei-112"/>
      <use x="100" xlink:href="#SimHei-111"/>
      <use x="150" xlink:href="#SimHei-99"/>
      <use x="200" xlink:href="#SimHei-104"/>
     </g>
    </g>
   </g>
   <g id="matplotlib.axis_2">
    <g id="ytick_1">
     <g id="line2d_7">
      <defs>
       <path d="M 0 0 
L -3.5 0 
" id="m5e5b34ed48" style="stroke:#000000;stroke-width:0.8;"/>
      </defs>
      <g>
       <use style="stroke:#000000;stroke-width:0.8;" x="54.83" xlink:href="#m5e5b34ed48" y="262.956483"/>
      </g>
     </g>
     <g id="text_8">
      <!-- 0.01 -->
      <defs>
       <path d="M 16.796875 1.953125 
L 7.8125 1.953125 
L 7.8125 10.546875 
L 16.796875 10.546875 
z
" id="SimHei-46"/>
      </defs>
      <g transform="translate(27.83 266.393983)scale(0.1 -0.1)">
       <use xlink:href="#SimHei-48"/>
       <use x="50" xlink:href="#SimHei-46"/>
       <use x="100" xlink:href="#SimHei-48"/>
       <use x="150" xlink:href="#SimHei-49"/>
      </g>
     </g>
    </g>
    <g id="ytick_2">
     <g id="line2d_8">
      <g>
       <use style="stroke:#000000;stroke-width:0.8;" x="54.83" xlink:href="#m5e5b34ed48" y="206.832647"/>
      </g>
     </g>
     <g id="text_9">
      <!-- 0.02 -->
      <g transform="translate(27.83 210.270147)scale(0.1 -0.1)">
       <use xlink:href="#SimHei-48"/>
       <use x="50" xlink:href="#SimHei-46"/>
       <use x="100" xlink:href="#SimHei-48"/>
       <use x="150" xlink:href="#SimHei-50"/>
      </g>
     </g>
    </g>
    <g id="ytick_3">
     <g id="line2d_9">
      <g>
       <use style="stroke:#000000;stroke-width:0.8;" x="54.83" xlink:href="#m5e5b34ed48" y="150.70881"/>
      </g>
     </g>
     <g id="text_10">
      <!-- 0.03 -->
      <g transform="translate(27.83 154.14631)scale(0.1 -0.1)">
       <use xlink:href="#SimHei-48"/>
       <use x="50" xlink:href="#SimHei-46"/>
       <use x="100" xlink:href="#SimHei-48"/>
       <use x="150" xlink:href="#SimHei-51"/>
      </g>
     </g>
    </g>
    <g id="ytick_4">
     <g id="line2d_10">
      <g>
       <use style="stroke:#000000;stroke-width:0.8;" x="54.83" xlink:href="#m5e5b34ed48" y="94.584974"/>
      </g>
     </g>
     <g id="text_11">
      <!-- 0.04 -->
      <g transform="translate(27.83 98.022474)scale(0.1 -0.1)">
       <use xlink:href="#SimHei-48"/>
       <use x="50" xlink:href="#SimHei-46"/>
       <use x="100" xlink:href="#SimHei-48"/>
       <use x="150" xlink:href="#SimHei-52"/>
      </g>
     </g>
    </g>
    <g id="ytick_5">
     <g id="line2d_11">
      <g>
       <use style="stroke:#000000;stroke-width:0.8;" x="54.83" xlink:href="#m5e5b34ed48" y="38.461137"/>
      </g>
     </g>
     <g id="text_12">
      <!-- 0.05 -->
      <g transform="translate(27.83 41.898637)scale(0.1 -0.1)">
       <use xlink:href="#SimHei-48"/>
       <use x="50" xlink:href="#SimHei-46"/>
       <use x="100" xlink:href="#SimHei-48"/>
       <use x="150" xlink:href="#SimHei-53"/>
      </g>
     </g>
    </g>
    <g id="text_13">
     <!-- loss -->
     <defs>
      <path d="M 28.515625 1.953125 
L 20.703125 1.953125 
L 20.703125 68.75 
L 28.515625 68.75 
z
" id="SimHei-108"/>
      <path d="M 42.96875 14.0625 
Q 42.96875 7.8125 38.078125 4.484375 
Q 33.203125 1.171875 25.78125 1.171875 
Q 16.40625 1.171875 11.328125 4.875 
Q 6.25 8.59375 6.25 15.625 
L 14.0625 15.625 
Q 14.0625 10.9375 17.375 9.375 
Q 20.703125 7.8125 25.390625 7.8125 
Q 30.078125 7.8125 32.421875 9.5625 
Q 34.765625 11.328125 34.765625 14.0625 
Q 34.765625 16.015625 32.8125 17.96875 
Q 30.859375 19.921875 23.046875 21.09375 
Q 14.0625 22.265625 10.734375 25.578125 
Q 7.421875 28.90625 7.421875 34.375 
Q 7.421875 39.0625 11.90625 42.765625 
Q 16.40625 46.484375 25 46.484375 
Q 32.8125 46.484375 37.296875 42.96875 
Q 41.796875 39.453125 41.796875 33.59375 
L 33.984375 33.59375 
Q 33.984375 37.109375 31.4375 38.46875 
Q 28.90625 39.84375 25 39.84375 
Q 19.921875 39.84375 17.765625 38.078125 
Q 15.625 36.328125 15.625 33.984375 
Q 15.625 31.25 17.578125 29.6875 
Q 19.53125 28.125 25.78125 27.34375 
Q 35.9375 25.78125 39.453125 22.453125 
Q 42.96875 19.140625 42.96875 14.0625 
z
" id="SimHei-115"/>
     </defs>
     <g transform="translate(21.955 178.82)rotate(-90)scale(0.15 -0.15)">
      <use xlink:href="#SimHei-108"/>
      <use x="50" xlink:href="#SimHei-111"/>
      <use x="100" xlink:href="#SimHei-115"/>
      <use x="150" xlink:href="#SimHei-115"/>
     </g>
    </g>
   </g>
   <g id="line2d_12">
    <path clip-path="url(#p2496e6e6f3)" d="M 72.792273 38.02 
L 80.123813 200.475279 
L 87.455353 215.922914 
L 94.786892 226.899759 
L 102.118432 236.30549 
L 109.449972 244.945251 
L 116.781512 252.732894 
L 124.113052 259.353644 
L 131.444592 264.729086 
L 138.776132 268.884101 
L 146.107672 272.070082 
L 153.439212 274.473189 
L 160.770751 276.248067 
L 168.102291 277.566868 
L 175.433831 278.542317 
L 182.765371 279.311377 
L 190.096911 279.906436 
L 197.428451 280.398746 
L 204.759991 280.80484 
L 212.091531 281.143286 
L 219.423071 281.433813 
L 226.75461 281.700578 
L 234.08615 281.950109 
L 241.41769 282.183591 
L 248.74923 282.408906 
L 256.08077 282.617871 
L 263.41231 282.819216 
L 270.74385 283.011823 
L 278.07539 283.198153 
L 285.406929 283.379944 
L 292.738469 283.556128 
L 300.070009 283.729393 
L 307.401549 283.896556 
L 314.733089 284.061382 
L 322.064629 284.223606 
L 329.396169 284.381049 
L 336.727709 284.536435 
L 344.059249 284.688709 
L 351.390788 284.838552 
L 358.722328 284.984847 
L 366.053868 285.12853 
L 373.385408 285.270023 
L 380.716948 285.40906 
L 388.048488 285.543173 
L 395.380028 285.676143 
L 402.711568 285.806895 
L 410.043108 285.936016 
L 417.374647 286.061204 
L 424.706187 286.184306 
L 432.037727 286.305185 
" style="fill:none;stroke:#ff0000;stroke-linecap:square;stroke-width:1.5;"/>
   </g>
   <g id="line2d_13">
    <path clip-path="url(#p2496e6e6f3)" d="M 72.792273 189.391815 
L 80.123813 208.594598 
L 87.455353 220.473341 
L 94.786892 230.367875 
L 102.118432 239.490568 
L 109.449972 248.169854 
L 116.781512 255.95559 
L 124.113052 262.634176 
L 131.444592 268.154817 
L 138.776132 272.521277 
L 146.107672 275.906217 
L 153.439212 278.444845 
L 160.770751 280.28744 
L 168.102291 281.611443 
L 175.433831 282.591368 
L 182.765371 283.339145 
L 190.096911 283.928971 
L 197.428451 284.408822 
L 204.759991 284.806164 
L 212.091531 285.143212 
L 219.423071 285.429832 
L 226.75461 285.679949 
L 234.08615 285.907088 
L 241.41769 286.112052 
L 248.74923 286.300287 
L 256.08077 286.478332 
L 263.41231 286.64723 
L 270.74385 286.808604 
L 278.07539 286.96138 
L 285.406929 287.109391 
L 292.738469 287.250262 
L 300.070009 287.386186 
L 307.401549 287.521883 
L 314.733089 287.654409 
L 322.064629 287.78916 
L 329.396169 287.920957 
L 336.727709 288.050617 
L 344.059249 288.177887 
L 351.390788 288.304141 
L 358.722328 288.431253 
L 366.053868 288.556671 
L 373.385408 288.68092 
L 380.716948 288.804195 
L 388.048488 288.922162 
L 395.380028 289.042426 
L 402.711568 289.157058 
L 410.043108 289.274457 
L 417.374647 289.388778 
L 424.706187 289.503719 
L 432.037727 289.62 
" style="fill:none;stroke:#008000;stroke-linecap:square;stroke-width:1.5;"/>
   </g>
   <g id="patch_3">
    <path d="M 54.83 302.2 
L 54.83 25.44 
" style="fill:none;stroke:#000000;stroke-linecap:square;stroke-linejoin:miter;stroke-width:0.8;"/>
   </g>
   <g id="patch_4">
    <path d="M 450 302.2 
L 450 25.44 
" style="fill:none;stroke:#000000;stroke-linecap:square;stroke-linejoin:miter;stroke-width:0.8;"/>
   </g>
   <g id="patch_5">
    <path d="M 54.83 302.2 
L 450 302.2 
" style="fill:none;stroke:#000000;stroke-linecap:square;stroke-linejoin:miter;stroke-width:0.8;"/>
   </g>
   <g id="patch_6">
    <path d="M 54.83 25.44 
L 450 25.44 
" style="fill:none;stroke:#000000;stroke-linecap:square;stroke-linejoin:miter;stroke-width:0.8;"/>
   </g>
   <g id="text_14">
    <!-- MiniDeepST -->
    <defs>
     <path d="M 45.703125 1.953125 
L 37.890625 1.953125 
L 37.890625 49.609375 
L 37.109375 49.609375 
L 27.734375 1.953125 
L 21.484375 1.953125 
L 12.109375 49.609375 
L 11.328125 49.609375 
L 11.328125 1.953125 
L 3.515625 1.953125 
L 3.515625 68.75 
L 15.625 68.75 
L 24.21875 24.609375 
L 25 24.609375 
L 33.59375 68.75 
L 45.703125 68.75 
z
" id="SimHei-77"/>
     <path d="M 28.125 58.203125 
L 20.3125 58.203125 
L 20.3125 68.359375 
L 28.125 68.359375 
z
M 28.125 1.953125 
L 20.3125 1.953125 
L 20.3125 45.703125 
L 28.125 45.703125 
z
" id="SimHei-105"/>
     <path d="M 43.75 1.953125 
L 35.9375 1.953125 
L 35.9375 30.078125 
Q 35.9375 34.765625 33.59375 37.5 
Q 31.25 40.234375 27.34375 40.234375 
Q 22.265625 40.234375 17.765625 34.953125 
Q 13.28125 29.6875 13.28125 21.875 
L 13.28125 1.953125 
L 5.46875 1.953125 
L 5.46875 45.703125 
L 13.28125 45.703125 
L 13.28125 37.5 
Q 16.40625 41.796875 20.109375 44.140625 
Q 23.828125 46.484375 29.6875 46.484375 
Q 36.71875 46.484375 40.234375 42.578125 
Q 43.75 38.671875 43.75 32.8125 
z
" id="SimHei-110"/>
     <path d="M 45.703125 35.15625 
Q 45.703125 17.1875 38.078125 9.5625 
Q 30.46875 1.953125 17.578125 1.953125 
L 4.296875 1.953125 
L 4.296875 68.75 
L 17.578125 68.75 
Q 32.03125 68.75 38.859375 60.9375 
Q 45.703125 53.125 45.703125 35.15625 
z
M 36.328125 35.15625 
Q 36.328125 49.609375 31.640625 55.46875 
Q 26.953125 61.328125 17.578125 61.328125 
L 13.28125 61.328125 
L 13.28125 9.375 
L 17.578125 9.375 
Q 26.953125 9.375 31.640625 15.03125 
Q 36.328125 20.703125 36.328125 35.15625 
z
" id="SimHei-68"/>
     <path d="M 44.53125 16.796875 
Q 43.75 9.765625 38.28125 5.46875 
Q 32.8125 1.171875 25.390625 1.171875 
Q 16.015625 1.171875 9.953125 7.21875 
Q 3.90625 13.28125 3.90625 23.828125 
Q 3.90625 34.375 9.953125 40.421875 
Q 16.015625 46.484375 25.390625 46.484375 
Q 33.59375 46.484375 38.859375 41.203125 
Q 44.140625 35.9375 44.140625 23.828125 
L 12.5 23.828125 
Q 12.5 15.234375 16.203125 11.71875 
Q 19.921875 8.203125 25.390625 8.203125 
Q 29.6875 8.203125 32.421875 10.34375 
Q 35.15625 12.5 35.9375 16.796875 
z
M 35.15625 30.078125 
Q 34.375 35.546875 31.640625 37.6875 
Q 28.90625 39.84375 24.609375 39.84375 
Q 20.703125 39.84375 17.578125 37.6875 
Q 14.453125 35.546875 12.890625 30.078125 
z
" id="SimHei-101"/>
     <path d="M 45.3125 20.703125 
Q 45.3125 11.71875 39.640625 6.4375 
Q 33.984375 1.171875 24.21875 1.171875 
Q 14.453125 1.171875 8.984375 6.640625 
Q 3.515625 12.109375 3.515625 20.3125 
L 3.515625 23.046875 
L 12.5 23.046875 
L 12.5 20.703125 
Q 12.5 14.84375 16.015625 11.71875 
Q 19.53125 8.59375 24.21875 8.59375 
Q 30.46875 8.59375 33.390625 11.90625 
Q 36.328125 15.234375 36.328125 19.921875 
Q 36.328125 23.828125 32.8125 27.140625 
Q 29.296875 30.46875 22.65625 33.203125 
Q 13.28125 36.71875 9.171875 41.015625 
Q 5.078125 45.3125 5.078125 51.171875 
Q 5.078125 59.375 10.734375 64.453125 
Q 16.40625 69.53125 24.21875 69.53125 
Q 34.375 69.53125 38.859375 63.46875 
Q 43.359375 57.421875 43.359375 50.390625 
L 34.375 50.390625 
Q 34.765625 54.6875 32.03125 58.203125 
Q 29.296875 61.71875 24.21875 61.71875 
Q 19.53125 61.71875 16.796875 59.171875 
Q 14.0625 56.640625 14.0625 52.34375 
Q 14.0625 48.828125 16.203125 46.28125 
Q 18.359375 43.75 27.34375 40.234375 
Q 35.9375 36.71875 40.625 31.828125 
Q 45.3125 26.953125 45.3125 20.703125 
z
" id="SimHei-83"/>
     <path d="M 44.53125 61.328125 
L 28.90625 61.328125 
L 28.90625 1.953125 
L 19.921875 1.953125 
L 19.921875 61.328125 
L 4.296875 61.328125 
L 4.296875 68.75 
L 44.53125 68.75 
z
" id="SimHei-84"/>
    </defs>
    <g transform="translate(222.415 19.44)scale(0.12 -0.12)">
     <use xlink:href="#SimHei-77"/>
     <use x="50" xlink:href="#SimHei-105"/>
     <use x="100" xlink:href="#SimHei-110"/>
     <use x="150" xlink:href="#SimHei-105"/>
     <use x="200" xlink:href="#SimHei-68"/>
     <use x="250" xlink:href="#SimHei-101"/>
     <use x="300" xlink:href="#SimHei-101"/>
     <use x="350" xlink:href="#SimHei-112"/>
     <use x="400" xlink:href="#SimHei-83"/>
     <use x="450" xlink:href="#SimHei-84"/>
    </g>
   </g>
   <g id="legend_1">
    <g id="patch_7">
     <path d="M 371 61.916562 
L 443 61.916562 
Q 445 61.916562 445 59.916562 
L 445 32.44 
Q 445 30.44 443 30.44 
L 371 30.44 
Q 369 30.44 369 32.44 
L 369 59.916562 
Q 369 61.916562 371 61.916562 
z
" style="fill:#ffffff;opacity:0.8;stroke:#cccccc;stroke-linejoin:miter;"/>
    </g>
    <g id="line2d_14">
     <path d="M 373 38.90875 
L 393 38.90875 
" style="fill:none;stroke:#ff0000;stroke-linecap:square;stroke-width:1.5;"/>
    </g>
    <g id="line2d_15"/>
    <g id="text_15">
     <!-- 训练损失 -->
     <defs>
      <path d="M 25.78125 51.5625 
Q 25.390625 42.578125 25.390625 34.765625 
L 25.390625 10.546875 
Q 30.46875 17.578125 32.03125 19.921875 
Q 33.984375 17.578125 36.71875 14.0625 
Q 31.640625 7.8125 28.125 3.3125 
Q 24.609375 -1.171875 20.703125 -6.640625 
Q 17.96875 -3.125 14.84375 -0.78125 
Q 17.96875 3.515625 17.96875 9.765625 
L 17.96875 44.921875 
L 15.234375 44.921875 
Q 9.375 44.921875 4.6875 44.53125 
L 4.6875 51.953125 
Q 9.375 51.5625 15.234375 51.5625 
z
M 53.515625 71.875 
Q 52.734375 67.96875 52.921875 52.53125 
Q 53.125 37.109375 52.140625 29.484375 
Q 51.171875 21.875 48.234375 13.078125 
Q 45.3125 4.296875 38.28125 -5.859375 
Q 34.765625 -3.125 30.859375 -1.953125 
Q 39.84375 7.8125 43.15625 21.28125 
Q 46.484375 34.765625 46.09375 52.140625 
Q 45.703125 69.53125 45.3125 73.046875 
Q 49.21875 72.265625 53.515625 71.875 
z
M 91.796875 73.4375 
Q 91.40625 70.3125 91.40625 62.109375 
L 91.40625 9.765625 
Q 91.40625 1.953125 91.796875 -6.25 
L 84.375 -6.25 
Q 84.765625 1.953125 84.765625 9.375 
L 84.765625 62.109375 
Q 84.765625 70.3125 84.375 73.4375 
L 91.796875 73.4375 
z
M 71.875 2.734375 
L 64.453125 2.734375 
Q 64.84375 11.328125 64.84375 17.96875 
L 64.84375 56.25 
Q 64.84375 63.28125 64.453125 67.96875 
L 71.875 67.96875 
z
M 15.625 80.46875 
Q 25.78125 71.875 32.8125 64.0625 
Q 29.296875 61.328125 27.34375 58.59375 
Q 16.40625 71.09375 10.9375 75 
Q 13.28125 77.34375 15.625 80.46875 
z
" id="SimHei-35757"/>
      <path d="M 51.5625 59.765625 
Q 46.09375 59.765625 37.5 59.375 
L 37.5 66.40625 
Q 46.09375 66.015625 51.953125 66.015625 
L 56.640625 66.015625 
Q 60.546875 77.34375 60.9375 80.859375 
Q 65.625 78.515625 69.53125 76.953125 
Q 67.96875 75.390625 66.59375 72.0625 
Q 65.234375 68.75 64.0625 66.015625 
L 78.515625 66.015625 
Q 84.765625 66.015625 92.1875 66.40625 
L 92.1875 59.375 
Q 86.71875 59.765625 78.515625 59.765625 
L 62.109375 59.765625 
Q 60.15625 55.078125 57.8125 49.21875 
L 73.046875 49.21875 
Q 72.65625 44.921875 72.65625 38.671875 
L 72.65625 30.859375 
L 77.734375 30.859375 
Q 83.59375 30.859375 90.625 31.25 
L 90.625 24.21875 
Q 83.59375 24.609375 77.734375 24.609375 
L 72.65625 24.609375 
L 72.65625 1.953125 
Q 72.65625 -4.6875 69.71875 -6.640625 
Q 66.796875 -8.59375 57.03125 -9.765625 
Q 56.640625 -5.859375 53.90625 -1.5625 
Q 63.671875 -1.953125 64.640625 -0.390625 
Q 65.625 1.171875 65.625 5.078125 
L 65.625 24.609375 
L 53.515625 24.609375 
Q 50.78125 24.609375 48.4375 24.40625 
Q 46.09375 24.21875 42.96875 23.046875 
Q 41.40625 26.953125 39.84375 30.46875 
Q 43.75 31.640625 48.828125 43.359375 
Q 46.09375 43.359375 38.28125 42.96875 
L 38.28125 49.609375 
Q 47.265625 49.21875 50.78125 49.21875 
Q 53.125 55.078125 54.6875 59.765625 
z
M 25.78125 46.09375 
Q 29.296875 51.5625 32.8125 60.9375 
Q 36.328125 58.203125 40.234375 56.25 
Q 36.328125 51.171875 31.640625 42.96875 
Q 26.953125 34.765625 16.796875 21.09375 
Q 20.3125 21.875 37.5 24.609375 
Q 36.71875 20.3125 37.109375 17.96875 
Q 28.515625 17.1875 10.15625 12.890625 
Q 8.203125 16.796875 6.25 19.921875 
Q 9.765625 21.875 13.859375 27.140625 
Q 17.96875 32.421875 22.65625 40.234375 
Q 20.3125 40.625 15.8125 40.03125 
Q 11.328125 39.453125 7.03125 38.28125 
Q 5.46875 41.796875 3.90625 45.703125 
Q 7.8125 48.046875 12.6875 58.203125 
Q 17.578125 68.359375 20.703125 78.125 
Q 25 75.390625 28.90625 74.21875 
Q 25 68.359375 21.671875 61.90625 
Q 18.359375 55.46875 12.5 45.703125 
Q 21.484375 45.703125 25.78125 46.09375 
z
M 37.890625 10.9375 
Q 37.5 6.640625 37.890625 3.90625 
Q 31.25 2.34375 22.84375 -0.390625 
Q 14.453125 -3.125 7.421875 -6.640625 
Q 6.25 -2.34375 4.6875 1.953125 
Q 14.84375 4.296875 18.546875 5.265625 
Q 22.265625 6.25 37.890625 10.9375 
z
M 58.203125 13.671875 
Q 57.03125 12.5 51.359375 6.25 
Q 45.703125 0 38.671875 -7.421875 
Q 35.9375 -3.90625 33.59375 -1.953125 
Q 37.890625 1.5625 42.96875 7.21875 
Q 48.046875 12.890625 51.953125 19.140625 
Q 54.296875 16.40625 58.203125 13.671875 
z
M 82.421875 19.140625 
Q 92.578125 5.859375 96.875 -1.5625 
Q 92.96875 -3.125 89.84375 -5.859375 
Q 85.546875 2.734375 76.5625 14.84375 
Q 79.296875 16.40625 82.421875 19.140625 
z
M 65.625 30.859375 
L 65.625 43.359375 
L 55.859375 43.359375 
Q 51.953125 35.15625 49.609375 30.859375 
z
" id="SimHei-32451"/>
      <path d="M 18.359375 71.875 
Q 18.359375 77.34375 17.96875 82.03125 
L 26.171875 82.03125 
Q 25.78125 77.734375 25.78125 71.875 
L 25.78125 63.671875 
Q 30.46875 63.671875 36.328125 64.0625 
L 36.328125 56.640625 
Q 30.46875 57.03125 25.78125 57.03125 
L 25.78125 39.0625 
Q 29.296875 39.84375 35.546875 42.96875 
Q 35.546875 39.84375 35.9375 35.9375 
Q 31.640625 34.375 25.78125 31.640625 
L 25.78125 2.734375 
Q 25.78125 -3.515625 22.265625 -5.078125 
Q 18.75 -6.640625 9.765625 -7.8125 
Q 9.375 -3.90625 7.03125 0.78125 
Q 12.5 0.390625 15.421875 0.578125 
Q 18.359375 0.78125 18.359375 5.46875 
L 18.359375 28.90625 
Q 10.546875 26.171875 6.25 23.4375 
Q 5.859375 28.125 3.90625 32.8125 
Q 9.375 33.59375 18.359375 36.71875 
L 18.359375 57.03125 
Q 10.15625 57.03125 5.078125 56.640625 
L 5.078125 64.0625 
Q 9.765625 63.671875 18.359375 63.671875 
z
M 86.71875 78.515625 
Q 86.328125 72.65625 86.328125 66.796875 
Q 86.328125 61.328125 86.71875 55.078125 
L 45.3125 55.078125 
Q 45.703125 61.328125 45.703125 66.796875 
Q 45.703125 72.65625 45.3125 78.515625 
L 86.71875 78.515625 
z
M 90.234375 48.046875 
Q 89.84375 42.578125 89.84375 36.71875 
L 89.84375 26.953125 
Q 89.84375 21.09375 90.234375 13.671875 
L 82.421875 13.671875 
L 82.421875 41.40625 
L 49.21875 41.40625 
L 49.21875 13.28125 
L 41.40625 13.28125 
Q 41.796875 19.921875 41.796875 26.5625 
L 41.796875 36.328125 
Q 41.796875 40.625 41.40625 48.046875 
L 90.234375 48.046875 
z
M 70.703125 34.375 
Q 69.140625 28.515625 68.15625 20.890625 
Q 67.1875 13.28125 64.453125 8.390625 
Q 61.71875 3.515625 56.25 -0.96875 
Q 50.78125 -5.46875 37.890625 -10.15625 
Q 36.328125 -7.03125 32.03125 -2.734375 
Q 42.96875 -0.78125 49.015625 3.125 
Q 55.078125 7.03125 57.8125 11.90625 
Q 60.546875 16.796875 60.9375 22.84375 
Q 61.328125 28.90625 61.328125 35.546875 
Q 66.015625 34.765625 70.703125 34.375 
z
M 79.6875 61.328125 
L 79.6875 72.65625 
L 52.734375 72.65625 
L 52.734375 61.328125 
z
M 73.046875 11.71875 
Q 77.734375 8.984375 84.5625 5.265625 
Q 91.40625 1.5625 96.484375 -1.953125 
Q 93.359375 -5.078125 91.40625 -8.59375 
Q 86.328125 -4.6875 81.25 -1.359375 
Q 76.171875 1.953125 68.359375 5.46875 
Q 71.09375 8.59375 73.046875 11.71875 
z
" id="SimHei-25439"/>
      <path d="M 32.03125 69.53125 
Q 30.078125 67.578125 26.171875 58.59375 
L 46.09375 58.59375 
Q 46.09375 72.65625 45.703125 79.6875 
Q 49.609375 79.296875 54.6875 78.90625 
Q 53.90625 73.4375 53.703125 69.140625 
Q 53.515625 64.84375 53.515625 58.59375 
L 71.875 58.59375 
Q 78.125 58.59375 84.765625 58.984375 
L 84.765625 51.5625 
Q 78.515625 51.953125 71.875 51.953125 
L 53.515625 51.953125 
Q 53.515625 43.359375 52.734375 34.375 
L 78.90625 34.375 
Q 84.765625 34.375 91.796875 34.765625 
L 91.796875 27.34375 
Q 84.765625 27.734375 78.90625 27.734375 
L 55.859375 27.734375 
Q 60.546875 17.1875 71.875 10.546875 
Q 83.203125 3.90625 94.140625 1.5625 
Q 91.015625 -2.34375 88.671875 -7.421875 
Q 77.34375 -3.125 66.40625 4.484375 
Q 55.46875 12.109375 50 23.046875 
Q 45.3125 12.890625 36.328125 4.6875 
Q 27.34375 -3.515625 12.109375 -10.15625 
Q 10.15625 -6.25 6.25 -2.734375 
Q 19.53125 0.78125 29.875 9.171875 
Q 40.234375 17.578125 43.359375 27.734375 
L 20.703125 27.734375 
Q 14.453125 27.734375 7.03125 27.34375 
L 7.03125 34.765625 
Q 14.453125 34.375 20.703125 34.375 
L 44.921875 34.375 
Q 46.09375 42.578125 46.09375 51.953125 
L 23.4375 51.953125 
Q 18.75 43.75 15.234375 38.28125 
Q 12.109375 40.234375 7.8125 41.796875 
Q 14.84375 50.390625 18.546875 58.59375 
Q 22.265625 66.796875 23.4375 73.046875 
Q 28.125 70.703125 32.03125 69.53125 
z
" id="SimHei-22833"/>
     </defs>
     <g transform="translate(401 42.40875)scale(0.1 -0.1)">
      <use xlink:href="#SimHei-35757"/>
      <use x="100" xlink:href="#SimHei-32451"/>
      <use x="200" xlink:href="#SimHei-25439"/>
      <use x="300" xlink:href="#SimHei-22833"/>
     </g>
    </g>
    <g id="line2d_16">
     <path d="M 373 53.166562 
L 393 53.166562 
" style="fill:none;stroke:#008000;stroke-linecap:square;stroke-width:1.5;"/>
    </g>
    <g id="line2d_17"/>
    <g id="text_16">
     <!-- 验证损失 -->
     <defs>
      <path d="M 35.9375 73.828125 
Q 35.15625 70.3125 34.765625 63.671875 
L 32.03125 33.203125 
L 39.453125 33.203125 
Q 39.0625 30.078125 38.671875 22.65625 
L 37.109375 1.171875 
Q 37.109375 -7.03125 32.421875 -8.203125 
Q 27.734375 -9.375 19.53125 -10.546875 
Q 18.359375 -5.078125 16.40625 -1.5625 
Q 24.609375 -1.5625 27.140625 -1.359375 
Q 29.6875 -1.171875 30.46875 2.34375 
L 31.640625 26.5625 
L 8.59375 26.5625 
Q 8.984375 33.984375 9.171875 42.765625 
Q 9.375 51.5625 9.375 59.375 
L 17.1875 59.375 
Q 16.40625 55.078125 16.015625 48.234375 
Q 15.625 41.40625 15.625 33.203125 
L 25.390625 33.203125 
L 28.125 67.578125 
L 17.578125 67.578125 
Q 11.328125 67.578125 5.46875 67.1875 
L 5.46875 74.21875 
Q 11.328125 73.828125 17.578125 73.828125 
z
M 67.578125 76.171875 
Q 73.828125 64.453125 80.46875 58.984375 
Q 87.109375 53.515625 96.09375 50.390625 
Q 92.578125 47.265625 90.625 42.578125 
Q 85.15625 45.703125 80.078125 50 
L 80.078125 43.359375 
Q 75 43.75 65.625 43.75 
Q 56.25 43.75 50.390625 43.359375 
L 50.390625 49.609375 
Q 48.046875 46.484375 43.75 41.40625 
Q 40.234375 44.921875 36.328125 46.875 
Q 42.578125 51.171875 45.890625 55.46875 
Q 49.21875 59.765625 51.75 64.453125 
Q 54.296875 69.140625 56.046875 73.046875 
Q 57.8125 76.953125 58.984375 81.640625 
Q 64.0625 80.46875 69.53125 79.296875 
z
M 87.5 33.59375 
Q 85.546875 31.25 84.375 27.140625 
Q 83.203125 23.046875 80.65625 14.25 
Q 78.125 5.46875 76.5625 0.390625 
L 82.03125 0.390625 
Q 84.765625 0.390625 90.625 0.78125 
L 90.625 -6.25 
Q 85.546875 -5.859375 82.03125 -5.859375 
L 51.953125 -5.859375 
Q 44.921875 -5.859375 41.796875 -6.25 
L 41.796875 0.78125 
Q 46.484375 0.390625 52.34375 0.390625 
L 69.921875 0.390625 
Q 73.046875 8.984375 75 17.96875 
L 78.90625 35.9375 
Q 82.03125 34.765625 87.5 33.59375 
z
M 79.6875 50.390625 
Q 75 53.90625 71.09375 58.984375 
Q 67.1875 64.0625 63.28125 71.875 
Q 60.15625 65.625 57.609375 61.125 
Q 55.078125 56.640625 50.78125 50.390625 
z
M 50.78125 33.984375 
Q 52.34375 28.515625 54.09375 21.484375 
Q 55.859375 14.453125 57.421875 8.59375 
Q 53.90625 8.203125 50.78125 6.640625 
Q 49.609375 14.0625 48.234375 19.140625 
Q 46.875 24.21875 44.53125 32.03125 
Q 47.65625 33.203125 50.78125 33.984375 
z
M 27.734375 17.578125 
Q 27.34375 14.84375 26.953125 10.9375 
Q 21.09375 9.765625 17.375 8.984375 
Q 13.671875 8.203125 5.859375 5.859375 
Q 4.6875 10.15625 3.125 14.453125 
Q 8.59375 14.84375 14.453125 15.625 
Q 20.3125 16.40625 27.734375 17.578125 
z
M 67.1875 25.78125 
Q 67.96875 20.703125 69.140625 12.890625 
L 62.890625 11.328125 
Q 61.328125 19.921875 60.546875 24.40625 
Q 59.765625 28.90625 58.59375 34.765625 
Q 62.109375 35.546875 65.625 35.9375 
z
" id="SimHei-39564"/>
      <path d="M 80.078125 73.046875 
Q 87.890625 73.046875 94.53125 73.4375 
L 94.53125 66.015625 
Q 87.890625 66.40625 80.078125 66.40625 
L 70.3125 66.40625 
L 70.3125 41.015625 
L 79.296875 41.015625 
Q 85.9375 41.015625 92.1875 41.40625 
L 92.1875 33.984375 
Q 86.328125 34.375 79.296875 34.375 
L 70.3125 34.375 
L 70.3125 1.953125 
L 81.25 1.953125 
Q 87.890625 1.953125 96.484375 2.34375 
L 96.484375 -5.078125 
Q 87.890625 -4.6875 81.25 -4.6875 
L 46.875 -4.6875 
Q 37.5 -4.6875 31.25 -5.078125 
L 31.25 2.34375 
Q 37.5 1.953125 43.359375 1.953125 
L 43.359375 32.421875 
Q 43.359375 40.625 42.96875 46.09375 
L 51.171875 46.09375 
Q 50.78125 41.015625 50.78125 32.421875 
L 50.78125 1.953125 
L 62.5 1.953125 
L 62.5 66.40625 
L 55.46875 66.40625 
Q 46.484375 66.40625 38.28125 66.015625 
L 38.28125 73.4375 
Q 46.484375 73.046875 55.46875 73.046875 
z
M 13.28125 -1.953125 
Q 17.96875 2.734375 17.96875 7.8125 
L 17.96875 42.96875 
L 14.453125 42.96875 
Q 8.984375 42.96875 3.515625 42.578125 
L 3.515625 50 
Q 8.59375 49.609375 14.453125 49.609375 
L 25.78125 49.609375 
Q 25.390625 42.1875 25.390625 33.984375 
L 25.390625 12.5 
Q 28.90625 16.796875 31.640625 20.703125 
Q 33.59375 16.40625 36.328125 12.890625 
Q 32.03125 7.8125 28.3125 3.3125 
Q 24.609375 -1.171875 19.140625 -8.203125 
Q 16.40625 -4.6875 13.28125 -1.953125 
z
M 23.828125 60.9375 
Q 17.1875 70.3125 12.5 75.390625 
Q 15.625 77.734375 18.359375 80.859375 
L 30.078125 66.796875 
Q 26.171875 64.0625 23.828125 60.9375 
z
" id="SimHei-35777"/>
     </defs>
     <g transform="translate(401 56.666562)scale(0.1 -0.1)">
      <use xlink:href="#SimHei-39564"/>
      <use x="100" xlink:href="#SimHei-35777"/>
      <use x="200" xlink:href="#SimHei-25439"/>
      <use x="300" xlink:href="#SimHei-22833"/>
     </g>
    </g>
   </g>
  </g>
 </g>
 <defs>
  <clipPath id="p2496e6e6f3">
   <rect height="276.76" width="395.17" x="54.83" y="25.44"/>
  </clipPath>
 </defs>
</svg>
