<?xml version="1.0" encoding="utf-8" standalone="no"?>
<!DOCTYPE svg PUBLIC "-//W3C//DTD SVG 1.1//EN"
  "http://www.w3.org/Graphics/SVG/1.1/DTD/svg11.dtd">
<!-- Created with matplotlib (https://matplotlib.org/) -->
<svg height="504pt" version="1.1" viewBox="0 0 1080 504" width="1080pt" xmlns="http://www.w3.org/2000/svg" xmlns:xlink="http://www.w3.org/1999/xlink">
 <defs>
  <style type="text/css">
*{stroke-linecap:butt;stroke-linejoin:round;}
  </style>
 </defs>
 <g id="figure_1">
  <g id="patch_1">
   <path d="M 0 504 
L 1080 504 
L 1080 0 
L 0 0 
z
" style="fill:#ffffff;"/>
  </g>
  <g id="axes_1">
   <g id="patch_2">
    <path d="M 58.35125 454.67125 
L 1069.2 454.67125 
L 1069.2 33.41625 
L 58.35125 33.41625 
z
" style="fill:#ffffff;"/>
   </g>
   <g id="matplotlib.axis_1">
    <g id="xtick_1">
     <g id="line2d_1">
      <defs>
       <path d="M 0 0 
L 0 3.5 
" id="m9c809d9d00" style="stroke:#000000;stroke-width:0.8;"/>
      </defs>
      <g>
       <use style="stroke:#000000;stroke-width:0.8;" x="109.801635" xlink:href="#m9c809d9d00" y="454.67125"/>
      </g>
     </g>
     <g id="text_1">
      <!-- 12月8日 -->
      <defs>
       <path d="M 21.875 56.25 
Q 16.796875 51.171875 8.984375 46.484375 
L 8.984375 53.90625 
Q 18.75 60.546875 25 69.53125 
L 29.6875 69.53125 
L 29.6875 2.34375 
L 21.875 2.34375 
z
" id="SimHei-49"/>
       <path d="M 4.6875 3.90625 
Q 5.078125 9.765625 10.15625 14.453125 
Q 15.234375 19.140625 23.046875 29.09375 
Q 30.859375 39.0625 33.203125 44.53125 
Q 35.546875 50 34.953125 53.90625 
Q 34.375 57.8125 31.25 60.34375 
Q 28.125 62.890625 24.015625 62.5 
Q 19.921875 62.109375 16.203125 59.375 
Q 12.5 56.640625 10.546875 51.171875 
L 3.125 52.34375 
Q 6.25 61.328125 11.125 65.421875 
Q 16.015625 69.53125 22.65625 69.921875 
Q 26.5625 70.3125 29.6875 69.71875 
Q 32.8125 69.140625 36.125 66.984375 
Q 39.453125 64.84375 41.59375 60.546875 
Q 43.75 56.25 43.15625 50.1875 
Q 42.578125 44.140625 37.109375 35.734375 
Q 31.640625 27.34375 16.015625 9.375 
L 44.140625 9.375 
L 44.140625 2.34375 
L 4.6875 2.34375 
z
" id="SimHei-50"/>
       <path d="M 82.03125 75.390625 
Q 81.25 66.015625 81.25 58.59375 
L 81.25 3.125 
Q 81.25 -4.296875 77.34375 -5.859375 
Q 73.4375 -7.421875 62.109375 -8.203125 
Q 61.328125 -3.515625 58.59375 0.78125 
Q 67.1875 0.390625 70.5 0.78125 
Q 73.828125 1.171875 73.828125 6.25 
L 73.828125 25 
L 28.90625 25 
Q 26.953125 12.109375 22.65625 3.515625 
Q 18.359375 -5.078125 14.0625 -8.984375 
Q 10.9375 -6.25 6.25 -5.078125 
Q 12.5 0.390625 16.203125 8 
Q 19.921875 15.625 20.890625 23.046875 
Q 21.875 30.46875 21.875 39.453125 
L 21.875 56.640625 
Q 21.875 65.234375 21.484375 75.390625 
L 82.03125 75.390625 
z
M 73.828125 53.125 
L 73.828125 69.53125 
L 29.296875 69.53125 
L 29.296875 53.125 
z
M 73.828125 31.25 
L 73.828125 47.265625 
L 29.296875 47.265625 
L 29.296875 31.25 
z
" id="SimHei-26376"/>
       <path d="M 2.734375 16.796875 
Q 2.734375 26.171875 5.078125 30.65625 
Q 7.421875 35.15625 12.890625 37.890625 
Q 8.203125 40.625 6.640625 43.9375 
Q 5.078125 47.265625 4.875 51.5625 
Q 4.6875 55.859375 6.046875 58.984375 
Q 7.421875 62.109375 10.15625 64.84375 
Q 12.890625 67.578125 16.203125 68.546875 
Q 19.53125 69.53125 23.4375 69.53125 
Q 27.34375 69.53125 30.46875 68.75 
Q 33.59375 67.96875 37.109375 65.421875 
Q 40.625 62.890625 42.1875 58.203125 
Q 43.75 53.515625 41.984375 47.265625 
Q 40.234375 41.015625 32.8125 37.5 
Q 39.453125 35.546875 42.1875 31.4375 
Q 44.921875 27.34375 44.921875 21.484375 
Q 44.921875 15.625 43.15625 12.109375 
Q 41.40625 8.59375 39.25 6.25 
Q 37.109375 3.90625 33.390625 2.53125 
Q 29.6875 1.171875 24.015625 1.171875 
Q 18.359375 1.171875 14.25 2.53125 
Q 10.15625 3.90625 7.421875 6.640625 
Q 4.6875 9.375 3.703125 13.078125 
Q 2.734375 16.796875 2.734375 26.171875 
z
M 10.9375 26.5625 
Q 10.546875 17.1875 12.296875 13.671875 
Q 14.0625 10.15625 18.75 9.171875 
Q 23.4375 8.203125 28.515625 9.375 
Q 33.59375 10.546875 35.546875 14.84375 
Q 37.5 19.140625 36.90625 23.4375 
Q 36.328125 27.734375 32.03125 30.65625 
Q 27.734375 33.59375 22.65625 33.203125 
Q 17.578125 32.8125 14.25 29.6875 
Q 10.9375 26.5625 10.546875 17.1875 
z
M 12.109375 56.25 
Q 12.109375 48.4375 14.84375 44.921875 
Q 17.578125 41.40625 23.4375 41.40625 
Q 29.296875 41.40625 32.21875 44.921875 
Q 35.15625 48.4375 34.953125 53.3125 
Q 34.765625 58.203125 31.4375 60.546875 
Q 28.125 62.890625 22.453125 62.5 
Q 16.796875 62.109375 14.453125 59.171875 
Q 12.109375 56.25 12.109375 48.4375 
z
" id="SimHei-56"/>
       <path d="M 83.984375 78.125 
Q 83.59375 58.984375 83.59375 35.546875 
Q 83.59375 12.109375 83.984375 -7.03125 
L 75 -7.03125 
L 75 2.734375 
L 28.125 2.734375 
L 28.125 -8.984375 
L 19.53125 -8.984375 
Q 19.921875 8.984375 19.921875 33.203125 
Q 19.921875 57.421875 19.53125 78.125 
L 83.984375 78.125 
z
M 75 9.375 
L 75 37.109375 
L 28.125 37.109375 
L 28.125 9.375 
z
M 75 43.75 
L 75 71.09375 
L 28.125 71.09375 
L 28.125 43.75 
z
" id="SimHei-26085"/>
      </defs>
      <g transform="translate(83.551635 472.862656)scale(0.15 -0.15)">
       <use xlink:href="#SimHei-49"/>
       <use x="50" xlink:href="#SimHei-50"/>
       <use x="100" xlink:href="#SimHei-26376"/>
       <use x="200" xlink:href="#SimHei-56"/>
       <use x="250" xlink:href="#SimHei-26085"/>
      </g>
     </g>
    </g>
    <g id="xtick_2">
     <g id="line2d_2">
      <g>
       <use style="stroke:#000000;stroke-width:0.8;" x="241.866796" xlink:href="#m9c809d9d00" y="454.67125"/>
      </g>
     </g>
     <g id="text_2">
      <!-- 12月9日 -->
      <defs>
       <path d="M 12.5 1.171875 
Q 21.09375 15.625 26.5625 27.34375 
Q 16.796875 25.78125 10.34375 29.875 
Q 3.90625 33.984375 2.53125 41.015625 
Q 1.171875 48.046875 2.734375 53.703125 
Q 4.296875 59.375 7.609375 63.078125 
Q 10.9375 66.796875 15.625 68.359375 
Q 20.3125 69.921875 24.015625 69.921875 
Q 27.734375 69.921875 31.640625 68.359375 
Q 35.546875 66.796875 38.671875 63.671875 
Q 41.796875 60.546875 42.96875 57.21875 
Q 44.140625 53.90625 44.140625 48.625 
Q 44.140625 43.359375 40.234375 35.15625 
Q 36.328125 26.953125 21.09375 1.171875 
z
M 9.765625 50 
Q 10.9375 39.84375 14.640625 36.515625 
Q 18.359375 33.203125 22.65625 33.59375 
Q 26.953125 33.984375 29.484375 35.9375 
Q 32.03125 37.890625 34.375 42.578125 
Q 35.9375 48.4375 35.15625 52.53125 
Q 34.375 56.640625 31.046875 59.375 
Q 27.734375 62.109375 23.828125 62.109375 
Q 21.484375 62.5 17.765625 60.9375 
Q 14.0625 59.375 11.90625 54.6875 
Q 9.765625 50 10.9375 39.84375 
z
" id="SimHei-57"/>
      </defs>
      <g transform="translate(215.616796 472.862656)scale(0.15 -0.15)">
       <use xlink:href="#SimHei-49"/>
       <use x="50" xlink:href="#SimHei-50"/>
       <use x="100" xlink:href="#SimHei-26376"/>
       <use x="200" xlink:href="#SimHei-57"/>
       <use x="250" xlink:href="#SimHei-26085"/>
      </g>
     </g>
    </g>
    <g id="xtick_3">
     <g id="line2d_3">
      <g>
       <use style="stroke:#000000;stroke-width:0.8;" x="373.931957" xlink:href="#m9c809d9d00" y="454.67125"/>
      </g>
     </g>
     <g id="text_3">
      <!-- 12月10日 -->
      <defs>
       <path d="M 3.125 29.296875 
Q 3.90625 50 6.4375 56.046875 
Q 8.984375 62.109375 13.671875 66.015625 
Q 18.359375 69.921875 25.1875 69.921875 
Q 32.03125 69.921875 37.109375 64.25 
Q 42.1875 58.59375 43.75 50 
Q 45.3125 41.40625 44.71875 30.265625 
Q 44.140625 19.140625 40.8125 12.109375 
Q 37.5 5.078125 30.859375 2.34375 
Q 24.21875 -0.390625 17.578125 2.921875 
Q 10.9375 6.25 8.203125 11.71875 
Q 5.46875 17.1875 4.296875 23.234375 
Q 3.125 29.296875 3.90625 50 
z
M 12.890625 52.734375 
Q 10.546875 31.25 12.5 22.84375 
Q 14.453125 14.453125 18.9375 10.9375 
Q 23.4375 7.421875 28.125 9.5625 
Q 32.8125 11.71875 34.953125 18.15625 
Q 37.109375 24.609375 37.109375 32.21875 
Q 37.109375 39.84375 36.515625 46.09375 
Q 35.9375 52.34375 33 57.421875 
Q 30.078125 62.5 25.1875 62.6875 
Q 20.3125 62.890625 16.59375 57.8125 
Q 12.890625 52.734375 10.546875 31.25 
z
" id="SimHei-48"/>
      </defs>
      <g transform="translate(343.931957 472.862656)scale(0.15 -0.15)">
       <use xlink:href="#SimHei-49"/>
       <use x="50" xlink:href="#SimHei-50"/>
       <use x="100" xlink:href="#SimHei-26376"/>
       <use x="200" xlink:href="#SimHei-49"/>
       <use x="250" xlink:href="#SimHei-48"/>
       <use x="300" xlink:href="#SimHei-26085"/>
      </g>
     </g>
    </g>
    <g id="xtick_4">
     <g id="line2d_4">
      <g>
       <use style="stroke:#000000;stroke-width:0.8;" x="505.997117" xlink:href="#m9c809d9d00" y="454.67125"/>
      </g>
     </g>
     <g id="text_4">
      <!-- 12月11日 -->
      <g transform="translate(475.997117 472.862656)scale(0.15 -0.15)">
       <use xlink:href="#SimHei-49"/>
       <use x="50" xlink:href="#SimHei-50"/>
       <use x="100" xlink:href="#SimHei-26376"/>
       <use x="200" xlink:href="#SimHei-49"/>
       <use x="250" xlink:href="#SimHei-49"/>
       <use x="300" xlink:href="#SimHei-26085"/>
      </g>
     </g>
    </g>
    <g id="xtick_5">
     <g id="line2d_5">
      <g>
       <use style="stroke:#000000;stroke-width:0.8;" x="638.062278" xlink:href="#m9c809d9d00" y="454.67125"/>
      </g>
     </g>
     <g id="text_5">
      <!-- 12月12日 -->
      <g transform="translate(608.062278 472.862656)scale(0.15 -0.15)">
       <use xlink:href="#SimHei-49"/>
       <use x="50" xlink:href="#SimHei-50"/>
       <use x="100" xlink:href="#SimHei-26376"/>
       <use x="200" xlink:href="#SimHei-49"/>
       <use x="250" xlink:href="#SimHei-50"/>
       <use x="300" xlink:href="#SimHei-26085"/>
      </g>
     </g>
    </g>
    <g id="xtick_6">
     <g id="line2d_6">
      <g>
       <use style="stroke:#000000;stroke-width:0.8;" x="770.127438" xlink:href="#m9c809d9d00" y="454.67125"/>
      </g>
     </g>
     <g id="text_6">
      <!-- 12月13日 -->
      <defs>
       <path d="M 3.90625 19.140625 
L 10.9375 20.3125 
Q 12.5 15.234375 16.015625 11.90625 
Q 19.53125 8.59375 24.796875 8.78125 
Q 30.078125 8.984375 33.203125 13.078125 
Q 36.328125 17.1875 35.9375 22.453125 
Q 35.546875 27.734375 31.828125 30.65625 
Q 28.125 33.59375 19.921875 34.765625 
L 19.921875 39.84375 
Q 28.125 40.625 31.828125 44.140625 
Q 35.546875 47.65625 35.15625 53.3125 
Q 34.765625 58.984375 30.078125 61.515625 
Q 25.390625 64.0625 20.109375 62.109375 
Q 14.84375 60.15625 11.71875 51.171875 
L 4.6875 52.34375 
Q 7.03125 59.375 11.125 64.0625 
Q 15.234375 68.75 22.265625 69.53125 
Q 29.296875 70.3125 34.5625 67.765625 
Q 39.84375 65.234375 41.984375 59.953125 
Q 44.140625 54.6875 42.578125 48.4375 
Q 41.015625 42.1875 33.59375 37.5 
Q 39.0625 35.15625 41.984375 30.46875 
Q 44.921875 25.78125 43.9375 18.15625 
Q 42.96875 10.546875 37.109375 5.859375 
Q 31.25 1.171875 23.828125 1.359375 
Q 16.40625 1.5625 10.9375 6.046875 
Q 5.46875 10.546875 3.90625 19.140625 
z
" id="SimHei-51"/>
      </defs>
      <g transform="translate(740.127438 472.862656)scale(0.15 -0.15)">
       <use xlink:href="#SimHei-49"/>
       <use x="50" xlink:href="#SimHei-50"/>
       <use x="100" xlink:href="#SimHei-26376"/>
       <use x="200" xlink:href="#SimHei-49"/>
       <use x="250" xlink:href="#SimHei-51"/>
       <use x="300" xlink:href="#SimHei-26085"/>
      </g>
     </g>
    </g>
    <g id="xtick_7">
     <g id="line2d_7">
      <g>
       <use style="stroke:#000000;stroke-width:0.8;" x="902.192599" xlink:href="#m9c809d9d00" y="454.67125"/>
      </g>
     </g>
     <g id="text_7">
      <!-- 12月14日 -->
      <defs>
       <path d="M 31.25 17.1875 
L 1.171875 17.1875 
L 1.171875 23.828125 
L 32.8125 69.53125 
L 38.671875 69.53125 
L 38.671875 23.828125 
L 48.046875 23.828125 
L 48.046875 17.1875 
L 38.671875 17.1875 
L 38.671875 2.34375 
L 31.25 2.34375 
z
M 31.25 23.828125 
L 31.25 54.6875 
L 9.375 23.828125 
z
" id="SimHei-52"/>
      </defs>
      <g transform="translate(872.192599 472.862656)scale(0.15 -0.15)">
       <use xlink:href="#SimHei-49"/>
       <use x="50" xlink:href="#SimHei-50"/>
       <use x="100" xlink:href="#SimHei-26376"/>
       <use x="200" xlink:href="#SimHei-49"/>
       <use x="250" xlink:href="#SimHei-52"/>
       <use x="300" xlink:href="#SimHei-26085"/>
      </g>
     </g>
    </g>
    <g id="text_8">
     <!-- 时间 -->
     <defs>
      <path d="M 39.453125 71.484375 
Q 39.0625 57.421875 39.0625 37.5 
Q 39.0625 17.578125 39.453125 6.25 
L 31.25 6.25 
L 31.25 13.671875 
L 15.625 13.671875 
L 15.625 0.78125 
L 7.421875 0.78125 
Q 7.8125 18.75 7.8125 36.71875 
Q 7.8125 55.078125 7.421875 71.484375 
L 39.453125 71.484375 
z
M 76.171875 59.765625 
Q 76.171875 71.484375 75.78125 81.640625 
L 84.375 81.640625 
Q 83.984375 71.484375 83.984375 59.765625 
Q 89.84375 59.765625 96.484375 60.15625 
L 96.484375 52.734375 
Q 89.84375 53.125 83.984375 53.125 
L 83.984375 0.78125 
Q 83.984375 -5.078125 79.296875 -6.640625 
Q 74.609375 -8.203125 67.1875 -8.984375 
Q 67.1875 -4.296875 62.890625 0 
Q 70.3125 -0.78125 73.234375 -0.390625 
Q 76.171875 0 76.171875 4.6875 
L 76.171875 53.125 
Q 56.640625 53.125 43.359375 52.734375 
L 43.359375 60.15625 
Q 55.859375 59.765625 76.171875 59.765625 
z
M 31.25 20.3125 
L 31.25 39.84375 
L 15.625 39.84375 
L 15.625 20.3125 
z
M 31.25 46.484375 
L 31.25 64.84375 
L 15.625 64.84375 
L 15.625 46.484375 
z
M 55.46875 42.578125 
Q 60.546875 34.375 65.234375 25 
Q 61.328125 23.828125 57.03125 21.484375 
Q 53.90625 30.859375 48.046875 39.0625 
Q 51.5625 40.625 55.46875 42.578125 
z
" id="SimHei-26102"/>
      <path d="M 69.53125 55.46875 
Q 69.140625 48.046875 69.140625 42.578125 
L 69.140625 21.875 
Q 69.140625 16.796875 69.53125 9.765625 
L 30.078125 9.765625 
Q 30.46875 16.796875 30.46875 22.265625 
L 30.46875 42.578125 
Q 30.46875 48.046875 30.078125 55.46875 
L 69.53125 55.46875 
z
M 90.625 76.171875 
Q 90.234375 68.75 90.234375 61.328125 
L 90.234375 3.90625 
Q 90.625 -5.078125 85.34375 -7.03125 
Q 80.078125 -8.984375 73.828125 -9.765625 
Q 73.4375 -5.078125 70.703125 -0.390625 
Q 78.125 -0.78125 80.265625 0.390625 
Q 82.421875 1.5625 82.421875 5.46875 
L 82.421875 69.53125 
L 58.984375 69.53125 
Q 49.609375 69.53125 41.40625 69.140625 
L 41.40625 76.5625 
Q 49.609375 76.171875 58.984375 76.171875 
z
M 8.59375 -8.203125 
Q 9.375 -0.390625 9.375 8.203125 
L 9.375 49.21875 
Q 9.375 57.421875 8.59375 62.890625 
L 17.578125 62.890625 
Q 17.1875 57.03125 17.1875 51.5625 
L 17.1875 7.8125 
Q 17.1875 0 17.578125 -8.203125 
z
M 61.71875 16.015625 
L 61.71875 30.46875 
L 37.890625 30.46875 
L 37.890625 16.015625 
z
M 61.71875 36.71875 
L 61.71875 49.21875 
L 37.890625 49.21875 
L 37.890625 36.71875 
z
M 23.828125 82.8125 
Q 27.34375 78.125 34.765625 67.96875 
Q 30.46875 66.015625 26.5625 63.671875 
Q 22.65625 71.484375 16.796875 78.515625 
Q 21.09375 81.640625 23.828125 82.8125 
z
" id="SimHei-38388"/>
     </defs>
     <g transform="translate(548.775625 490.749375)scale(0.15 -0.15)">
      <use xlink:href="#SimHei-26102"/>
      <use x="100" xlink:href="#SimHei-38388"/>
     </g>
    </g>
   </g>
   <g id="matplotlib.axis_2">
    <g id="ytick_1">
     <g id="line2d_8">
      <defs>
       <path d="M 0 0 
L -3.5 0 
" id="m226b533e36" style="stroke:#000000;stroke-width:0.8;"/>
      </defs>
      <g>
       <use style="stroke:#000000;stroke-width:0.8;" x="58.35125" xlink:href="#m226b533e36" y="445.644936"/>
      </g>
     </g>
     <g id="text_9">
      <!-- -40 -->
      <defs>
       <path d="M 46.484375 33.203125 
L 1.953125 33.203125 
L 1.953125 39.453125 
L 46.484375 39.453125 
z
" id="SimHei-45"/>
      </defs>
      <g transform="translate(28.85125 450.801186)scale(0.15 -0.15)">
       <use xlink:href="#SimHei-45"/>
       <use x="50" xlink:href="#SimHei-52"/>
       <use x="100" xlink:href="#SimHei-48"/>
      </g>
     </g>
    </g>
    <g id="ytick_2">
     <g id="line2d_9">
      <g>
       <use style="stroke:#000000;stroke-width:0.8;" x="58.35125" xlink:href="#m226b533e36" y="396.941174"/>
      </g>
     </g>
     <g id="text_10">
      <!-- -20 -->
      <g transform="translate(28.85125 402.097424)scale(0.15 -0.15)">
       <use xlink:href="#SimHei-45"/>
       <use x="50" xlink:href="#SimHei-50"/>
       <use x="100" xlink:href="#SimHei-48"/>
      </g>
     </g>
    </g>
    <g id="ytick_3">
     <g id="line2d_10">
      <g>
       <use style="stroke:#000000;stroke-width:0.8;" x="58.35125" xlink:href="#m226b533e36" y="348.237412"/>
      </g>
     </g>
     <g id="text_11">
      <!-- 0 -->
      <g transform="translate(43.85125 353.393662)scale(0.15 -0.15)">
       <use xlink:href="#SimHei-48"/>
      </g>
     </g>
    </g>
    <g id="ytick_4">
     <g id="line2d_11">
      <g>
       <use style="stroke:#000000;stroke-width:0.8;" x="58.35125" xlink:href="#m226b533e36" y="299.53365"/>
      </g>
     </g>
     <g id="text_12">
      <!-- 20 -->
      <g transform="translate(36.35125 304.6899)scale(0.15 -0.15)">
       <use xlink:href="#SimHei-50"/>
       <use x="50" xlink:href="#SimHei-48"/>
      </g>
     </g>
    </g>
    <g id="ytick_5">
     <g id="line2d_12">
      <g>
       <use style="stroke:#000000;stroke-width:0.8;" x="58.35125" xlink:href="#m226b533e36" y="250.829888"/>
      </g>
     </g>
     <g id="text_13">
      <!-- 40 -->
      <g transform="translate(36.35125 255.986138)scale(0.15 -0.15)">
       <use xlink:href="#SimHei-52"/>
       <use x="50" xlink:href="#SimHei-48"/>
      </g>
     </g>
    </g>
    <g id="ytick_6">
     <g id="line2d_13">
      <g>
       <use style="stroke:#000000;stroke-width:0.8;" x="58.35125" xlink:href="#m226b533e36" y="202.126126"/>
      </g>
     </g>
     <g id="text_14">
      <!-- 60 -->
      <defs>
       <path d="M 3.515625 19.53125 
Q 4.296875 30.859375 6.046875 34.765625 
Q 7.8125 38.671875 11.328125 44.53125 
L 27.34375 69.53125 
L 36.328125 69.53125 
L 19.921875 43.75 
Q 30.46875 46.484375 36.71875 42.96875 
Q 42.96875 39.453125 45.109375 34.953125 
Q 47.265625 30.46875 47.453125 25.1875 
Q 47.65625 19.921875 45.890625 14.84375 
Q 44.140625 9.765625 39.640625 5.65625 
Q 35.15625 1.5625 27.140625 1.171875 
Q 19.140625 0.78125 13.46875 4.09375 
Q 7.8125 7.421875 5.65625 13.46875 
Q 3.515625 19.53125 4.296875 30.859375 
z
M 12.5 16.015625 
Q 19.53125 8.59375 25.390625 8.203125 
Q 31.25 7.8125 35.15625 12.109375 
Q 39.0625 16.40625 39.0625 24.609375 
Q 39.0625 32.8125 34.171875 35.9375 
Q 29.296875 39.0625 23.234375 38.28125 
Q 17.1875 37.5 14.453125 32.421875 
Q 11.71875 27.34375 12.109375 21.671875 
Q 12.5 16.015625 19.53125 8.59375 
z
" id="SimHei-54"/>
      </defs>
      <g transform="translate(36.35125 207.282376)scale(0.15 -0.15)">
       <use xlink:href="#SimHei-54"/>
       <use x="50" xlink:href="#SimHei-48"/>
      </g>
     </g>
    </g>
    <g id="ytick_7">
     <g id="line2d_14">
      <g>
       <use style="stroke:#000000;stroke-width:0.8;" x="58.35125" xlink:href="#m226b533e36" y="153.422364"/>
      </g>
     </g>
     <g id="text_15">
      <!-- 80 -->
      <g transform="translate(36.35125 158.578614)scale(0.15 -0.15)">
       <use xlink:href="#SimHei-56"/>
       <use x="50" xlink:href="#SimHei-48"/>
      </g>
     </g>
    </g>
    <g id="ytick_8">
     <g id="line2d_15">
      <g>
       <use style="stroke:#000000;stroke-width:0.8;" x="58.35125" xlink:href="#m226b533e36" y="104.718602"/>
      </g>
     </g>
     <g id="text_16">
      <!-- 100 -->
      <g transform="translate(28.85125 109.874852)scale(0.15 -0.15)">
       <use xlink:href="#SimHei-49"/>
       <use x="50" xlink:href="#SimHei-48"/>
       <use x="100" xlink:href="#SimHei-48"/>
      </g>
     </g>
    </g>
    <g id="ytick_9">
     <g id="line2d_16">
      <g>
       <use style="stroke:#000000;stroke-width:0.8;" x="58.35125" xlink:href="#m226b533e36" y="56.01484"/>
      </g>
     </g>
     <g id="text_17">
      <!-- 120 -->
      <g transform="translate(28.85125 61.17109)scale(0.15 -0.15)">
       <use xlink:href="#SimHei-49"/>
       <use x="50" xlink:href="#SimHei-50"/>
       <use x="100" xlink:href="#SimHei-48"/>
      </g>
     </g>
    </g>
    <g id="text_18">
     <!-- 流量 -->
     <defs>
      <path d="M 58.203125 82.03125 
Q 62.109375 76.171875 66.015625 69.53125 
L 78.515625 69.53125 
Q 84.765625 69.53125 92.578125 69.921875 
L 92.578125 62.890625 
Q 83.203125 63.28125 78.515625 63.28125 
L 53.515625 63.28125 
Q 56.640625 60.9375 58.984375 59.765625 
Q 57.03125 58.203125 53.90625 54.296875 
Q 50.78125 50.390625 44.53125 43.359375 
Q 58.59375 43.75 74.609375 44.53125 
Q 70.703125 49.21875 66.796875 52.734375 
Q 70.703125 55.46875 72.265625 57.421875 
Q 83.203125 46.09375 90.625 37.109375 
Q 87.109375 34.375 84.375 32.03125 
Q 81.25 36.328125 78.90625 39.453125 
Q 70.3125 38.671875 55.65625 37.6875 
Q 41.015625 36.71875 35.9375 35.15625 
Q 34.765625 38.671875 32.421875 41.796875 
Q 36.328125 42.96875 41.796875 49.609375 
Q 47.265625 56.25 50.78125 63.28125 
L 46.484375 63.28125 
Q 39.453125 63.28125 32.03125 62.5 
L 32.03125 69.921875 
Q 39.453125 69.53125 46.484375 69.53125 
L 57.421875 69.53125 
Q 54.296875 75 51.953125 78.125 
Q 55.859375 80.078125 58.203125 82.03125 
z
M 78.515625 31.640625 
Q 78.125 26.5625 78.125 21.484375 
L 78.125 2.34375 
Q 78.125 -1.171875 81.640625 -1.171875 
L 85.546875 -1.171875 
Q 88.671875 -1.171875 89.0625 7.8125 
Q 92.1875 5.46875 96.875 4.296875 
Q 94.53125 -5.46875 91.984375 -6.640625 
Q 89.453125 -7.8125 85.9375 -7.8125 
L 78.515625 -7.8125 
Q 71.09375 -7.8125 71.09375 -0.390625 
L 71.09375 22.265625 
Q 71.09375 26.953125 70.703125 31.640625 
L 78.515625 31.640625 
z
M 48.828125 30.859375 
Q 48.046875 26.953125 47.453125 18.9375 
Q 46.875 10.9375 43.9375 3.515625 
Q 41.015625 -3.90625 30.46875 -10.9375 
Q 27.734375 -7.421875 24.609375 -5.078125 
Q 32.421875 -1.5625 36.125 4.484375 
Q 39.84375 10.546875 40.234375 18.15625 
Q 40.625 25.78125 40.234375 31.640625 
Q 44.140625 30.859375 48.828125 30.859375 
z
M 62.5 31.640625 
Q 62.109375 29.296875 62.109375 21.875 
L 62.109375 4.6875 
Q 62.109375 -0.390625 62.5 -7.8125 
L 54.296875 -7.8125 
Q 54.6875 -0.78125 54.6875 4.6875 
L 54.6875 21.875 
Q 54.6875 28.515625 54.296875 31.640625 
L 62.5 31.640625 
z
M 29.6875 25.390625 
Q 25.78125 18.75 21.09375 8.78125 
Q 16.40625 -1.171875 13.28125 -6.640625 
Q 9.765625 -3.90625 5.078125 -1.953125 
Q 8.984375 2.734375 14.0625 11.71875 
Q 19.140625 20.703125 22.65625 30.46875 
Q 25.78125 27.734375 29.6875 25.390625 
z
M 9.765625 53.90625 
Q 18.75 48.4375 26.953125 42.578125 
Q 23.828125 39.453125 21.484375 35.546875 
Q 14.453125 42.1875 5.078125 46.875 
Q 7.421875 50 9.765625 53.90625 
z
M 14.453125 77.734375 
Q 23.4375 72.265625 29.6875 67.1875 
Q 26.953125 63.671875 24.21875 60.546875 
Q 17.96875 66.796875 9.765625 71.484375 
Q 12.5 75 14.453125 77.734375 
z
" id="SimHei-27969"/>
      <path d="M 82.03125 39.0625 
Q 81.640625 34.375 81.640625 26.5625 
Q 81.640625 19.140625 82.03125 14.84375 
L 53.515625 14.84375 
L 53.515625 9.765625 
L 71.484375 9.765625 
Q 78.125 9.765625 83.984375 10.15625 
L 83.984375 4.296875 
Q 78.515625 4.6875 71.484375 4.6875 
L 53.515625 4.6875 
L 53.515625 -1.171875 
L 80.078125 -1.171875 
Q 86.328125 -1.171875 92.578125 -0.78125 
L 92.578125 -6.640625 
Q 86.328125 -6.25 80.078125 -6.25 
L 19.921875 -6.25 
Q 14.0625 -6.25 7.421875 -6.640625 
L 7.421875 -0.78125 
Q 14.453125 -0.78125 19.921875 -1.171875 
L 46.484375 -1.171875 
L 46.484375 4.6875 
L 26.953125 4.6875 
Q 21.09375 4.6875 15.234375 3.90625 
L 15.234375 10.15625 
Q 21.484375 9.765625 26.953125 9.765625 
L 46.484375 9.765625 
L 46.484375 14.84375 
L 17.96875 14.84375 
Q 18.359375 21.484375 18.359375 27.734375 
Q 18.359375 33.984375 17.96875 39.0625 
L 82.03125 39.0625 
z
M 81.25 77.34375 
Q 80.859375 71.484375 80.859375 66.40625 
Q 80.859375 61.328125 81.25 53.125 
L 18.75 53.125 
Q 19.140625 61.328125 19.140625 66.40625 
Q 19.140625 71.484375 18.75 77.34375 
L 81.25 77.34375 
z
M 76.5625 48.4375 
Q 85.9375 48.828125 93.75 49.21875 
L 93.75 42.96875 
Q 85.9375 43.359375 76.953125 43.359375 
L 25.78125 43.359375 
Q 15.234375 43.359375 5.078125 42.96875 
L 5.078125 49.21875 
Q 15.234375 48.828125 25.78125 48.4375 
z
M 73.828125 57.8125 
L 73.828125 62.890625 
L 26.171875 62.890625 
L 26.171875 57.8125 
z
M 73.828125 67.96875 
L 73.828125 72.65625 
L 26.171875 72.65625 
L 26.171875 67.96875 
z
M 74.21875 29.296875 
L 74.21875 33.984375 
L 53.515625 33.984375 
L 53.515625 29.296875 
z
M 46.484375 29.296875 
L 46.484375 33.984375 
L 25.78125 33.984375 
L 25.78125 29.296875 
z
M 46.484375 19.921875 
L 46.484375 24.21875 
L 25.78125 24.21875 
L 25.78125 19.921875 
z
M 74.21875 19.921875 
L 74.21875 24.21875 
L 53.515625 24.21875 
L 53.515625 19.921875 
z
" id="SimHei-37327"/>
     </defs>
     <g transform="translate(22.97625 259.04375)rotate(-90)scale(0.15 -0.15)">
      <use xlink:href="#SimHei-27969"/>
      <use x="100" xlink:href="#SimHei-37327"/>
     </g>
    </g>
   </g>
   <g id="line2d_17">
    <path clip-path="url(#p570854e561)" d="M 104.29892 322.929166 
L 109.801635 312.509136 
L 115.304351 327.315902 
L 120.807066 338.206281 
L 126.309781 331.587434 
L 131.812496 333.575506 
L 137.315211 337.542504 
L 148.320641 311.268217 
L 153.823356 254.855577 
L 159.326071 237.466389 
L 164.828786 212.924331 
L 170.331501 223.411485 
L 175.834216 252.469824 
L 181.336931 243.380617 
L 186.839646 249.120703 
L 192.342361 256.488924 
L 197.845076 220.911604 
L 203.347791 240.838718 
L 208.850506 205.761708 
L 214.353221 237.037063 
L 219.855936 280.345562 
L 225.358651 308.747644 
L 230.861366 304.316795 
L 236.364081 323.138637 
L 241.866796 323.246461 
L 247.369511 322.271153 
L 252.872226 335.16031 
L 258.374941 332.827731 
L 263.877656 334.031341 
L 269.380371 312.855399 
L 274.883086 279.958437 
L 280.385801 155.381797 
L 285.888516 122.912841 
L 291.391231 119.530032 
L 296.893946 147.552491 
L 302.396661 81.42764 
L 307.899376 124.267345 
L 313.402091 135.372464 
L 318.904806 52.671084 
L 324.407521 121.227632 
L 329.910236 85.942012 
L 335.412951 179.207462 
L 340.915667 182.255939 
L 346.418382 194.739449 
L 351.921097 246.87066 
L 357.423812 309.7956 
L 362.926527 323.496274 
L 368.429242 324.426489 
L 373.931957 319.985391 
L 379.434672 330.961176 
L 384.937387 325.172915 
L 390.440102 331.433478 
L 395.942817 333.852964 
L 401.445532 322.02223 
L 406.948247 261.689202 
L 412.450962 188.578706 
L 417.953677 136.389329 
L 423.456392 135.250183 
L 428.959107 119.957424 
L 439.964537 125.230975 
L 445.467252 171.410207 
L 450.969967 189.83012 
L 456.472682 127.46759 
L 461.975397 120.752199 
L 467.478112 169.14594 
L 472.980827 143.757234 
L 478.483542 170.407028 
L 483.986257 213.155403 
L 489.488972 294.512638 
L 494.991687 293.150921 
L 500.494402 316.995976 
L 505.997117 322.899917 
L 511.499832 329.585612 
L 517.002547 331.026573 
L 522.505262 338.095123 
L 528.007977 338.894095 
L 533.510692 331.77279 
L 539.013407 252.9577 
L 544.516122 164.595798 
L 550.018837 86.247966 
L 555.521552 66.777743 
L 561.024267 121.990387 
L 566.526983 68.197916 
L 572.029698 135.012691 
L 577.532413 135.993517 
L 583.035128 89.817802 
L 588.537843 119.641073 
L 594.040558 52.564205 
L 599.543273 147.655774 
L 605.045988 149.209176 
L 610.548703 202.370376 
L 616.051418 234.790806 
L 621.554133 295.997292 
L 627.056848 322.232719 
L 632.559563 333.912738 
L 638.062278 321.435237 
L 643.564993 333.994617 
L 649.067708 330.579458 
L 654.570423 325.529525 
L 660.073138 329.054955 
L 665.575853 327.95114 
L 671.078568 272.217324 
L 676.581283 143.695049 
L 682.083998 122.541227 
L 687.586713 118.445969 
L 693.089428 121.251098 
L 698.592143 164.174453 
L 704.094858 110.940989 
L 709.597573 86.574408 
L 715.100288 106.406264 
L 720.603003 126.658981 
L 726.105718 55.837754 
L 731.608433 85.371182 
L 737.111148 107.11569 
L 742.613863 184.56515 
L 748.116578 240.231254 
L 753.619293 291.530451 
L 759.122008 311.537197 
L 764.624723 317.532239 
L 770.127438 324.713865 
L 775.630153 338.419647 
L 781.132868 334.857711 
L 786.635583 329.641234 
L 792.138299 328.94476 
L 797.641014 314.885277 
L 803.143729 262.24787 
L 808.646444 141.261778 
L 814.149159 80.906136 
L 819.651874 61.732844 
L 825.154589 108.571284 
L 830.657304 147.21587 
L 836.160019 111.41999 
L 841.662734 143.853805 
L 847.165449 109.899369 
L 852.668164 86.667748 
L 858.170879 84.000192 
L 863.673594 92.455026 
L 869.176309 142.93493 
L 874.679024 136.879058 
L 880.181739 195.085109 
L 885.684454 286.574317 
L 891.187169 318.100404 
L 896.689884 320.673893 
L 902.192599 323.889895 
L 907.695314 324.670056 
L 913.198029 306.140251 
L 918.700744 319.636343 
L 924.203459 331.778504 
L 929.706174 320.881063 
L 935.208889 301.667435 
L 940.711604 219.066221 
L 951.717034 166.057897 
L 957.219749 150.417811 
L 962.722464 200.899013 
L 968.225179 204.652562 
L 973.727894 192.957204 
L 979.230609 155.918678 
L 984.733324 198.378899 
L 990.236039 136.753181 
L 995.738754 181.599998 
L 1001.241469 167.168918 
L 1006.744184 202.341571 
L 1012.246899 255.237849 
L 1017.749615 296.65777 
L 1023.25233 307.34684 
L 1023.25233 307.34684 
" style="fill:none;stroke:#0000ff;stroke-linecap:square;stroke-width:1.5;"/>
   </g>
   <g id="line2d_18">
    <path clip-path="url(#p570854e561)" d="M 104.29892 320.137648 
L 109.801635 316.104202 
L 115.304351 317.111907 
L 120.807066 326.236311 
L 126.309781 324.633933 
L 131.812496 326.586335 
L 137.315211 325.209742 
L 142.817926 311.827322 
L 148.320641 277.474591 
L 153.823356 238.905347 
L 159.326071 212.823455 
L 164.828786 187.523273 
L 170.331501 198.479296 
L 175.834216 228.956339 
L 181.336931 227.593917 
L 186.839646 229.356192 
L 192.342361 210.251698 
L 197.845076 200.754399 
L 203.347791 202.224853 
L 208.850506 218.550951 
L 214.353221 241.954891 
L 219.855936 270.917213 
L 225.358651 306.759547 
L 230.861366 318.930222 
L 236.364081 323.625011 
L 241.866796 318.173867 
L 247.369511 320.387962 
L 252.872226 325.202496 
L 258.374941 324.47561 
L 263.877656 326.857567 
L 269.380371 323.927457 
L 274.883086 291.676767 
L 280.385801 206.889953 
L 285.888516 141.287496 
L 291.391231 124.670148 
L 296.893946 129.173029 
L 302.396661 153.410719 
L 307.899376 171.697349 
L 313.402091 160.979231 
L 318.904806 139.956968 
L 324.407521 124.517706 
L 329.910236 106.345275 
L 335.412951 121.933209 
L 340.915667 162.762765 
L 346.418382 217.073464 
L 351.921097 260.260707 
L 357.423812 295.283629 
L 362.926527 317.364802 
L 368.429242 322.231159 
L 373.931957 317.385607 
L 379.434672 319.226025 
L 384.937387 325.416542 
L 390.440102 324.234455 
L 395.942817 326.027359 
L 401.445532 321.162351 
L 406.948247 287.161373 
L 412.450962 207.292799 
L 417.953677 151.794229 
L 423.456392 121.70868 
L 428.959107 125.434724 
L 434.461822 141.926881 
L 439.964537 169.276585 
L 445.467252 169.261936 
L 450.969967 149.307063 
L 456.472682 140.243895 
L 461.975397 119.412684 
L 467.478112 122.251154 
L 472.980827 172.852648 
L 478.483542 210.993437 
L 483.986257 259.134662 
L 489.488972 299.246149 
L 494.991687 316.241783 
L 500.494402 322.805266 
L 505.997117 318.721827 
L 511.499832 319.747987 
L 517.002547 323.175589 
L 522.505262 324.658623 
L 528.007977 326.63071 
L 533.510692 322.634229 
L 539.013407 289.856885 
L 544.516122 206.589749 
L 550.018837 148.990374 
L 555.521552 120.943562 
L 561.024267 128.64613 
L 566.526983 140.486565 
L 572.029698 162.773214 
L 577.532413 168.702046 
L 583.035128 147.930416 
L 588.537843 117.875881 
L 594.040558 97.137725 
L 599.543273 127.972443 
L 605.045988 164.052282 
L 610.548703 215.43678 
L 616.051418 259.086275 
L 621.554133 298.550539 
L 627.056848 316.995678 
L 632.559563 321.578522 
L 638.062278 318.631922 
L 643.564993 319.746727 
L 649.067708 324.878961 
L 654.570423 324.575714 
L 660.073138 326.392863 
L 665.575853 321.910942 
L 671.078568 287.224053 
L 676.581283 203.449005 
L 682.083998 128.621461 
L 687.586713 120.301488 
L 693.089428 120.244314 
L 698.592143 134.754773 
L 704.094858 155.854579 
L 709.597573 147.056598 
L 715.100288 145.120129 
L 720.603003 123.366425 
L 726.105718 108.108836 
L 731.608433 121.856052 
L 737.111148 150.38624 
L 742.613863 194.744638 
L 748.116578 249.654671 
L 753.619293 299.604344 
L 759.122008 315.932571 
L 764.624723 322.685521 
L 770.127438 321.849201 
L 775.630153 321.987649 
L 786.635583 324.988974 
L 792.138299 326.764837 
L 797.641014 322.056505 
L 803.143729 282.520144 
L 808.646444 197.978606 
L 814.149159 133.9704 
L 819.651874 110.185019 
L 825.154589 103.83394 
L 830.657304 134.568305 
L 836.160019 155.244691 
L 841.662734 142.442626 
L 847.165449 139.12092 
L 852.668164 113.223997 
L 858.170879 103.303321 
L 863.673594 109.143125 
L 869.176309 150.210238 
L 874.679024 200.277955 
L 880.181739 248.378361 
L 885.684454 289.343845 
L 891.187169 310.292889 
L 896.689884 320.218486 
L 902.192599 318.767414 
L 913.198029 323.926835 
L 918.700744 323.836642 
L 924.203459 326.667312 
L 929.706174 322.626077 
L 935.208889 303.446746 
L 940.711604 255.444355 
L 946.214319 192.957252 
L 951.717034 161.628427 
L 957.219749 152.082525 
L 962.722464 159.577049 
L 968.225179 195.186669 
L 973.727894 202.647824 
L 979.230609 197.665019 
L 984.733324 197.382996 
L 990.236039 172.148143 
L 995.738754 172.643065 
L 1001.241469 195.495897 
L 1006.744184 226.767231 
L 1012.246899 269.174938 
L 1017.749615 300.274415 
L 1023.25233 315.798191 
L 1023.25233 315.798191 
" style="fill:none;stroke:#ff0000;stroke-linecap:square;stroke-width:1.5;"/>
   </g>
   <g id="line2d_19">
    <path clip-path="url(#p570854e561)" d="M 104.29892 345.445894 
L 109.801635 351.832478 
L 115.304351 338.033418 
L 120.807066 336.267442 
L 126.309781 341.283911 
L 131.812496 341.248241 
L 137.315211 335.90465 
L 142.817926 335.676254 
L 148.320641 314.443785 
L 153.823356 332.287183 
L 159.326071 323.594477 
L 164.828786 322.836354 
L 170.331501 323.305223 
L 175.834216 324.723926 
L 181.336931 332.450713 
L 186.839646 328.472901 
L 192.342361 302.000186 
L 197.845076 328.080207 
L 203.347791 309.623547 
L 208.850506 361.026655 
L 214.353221 353.15524 
L 219.855936 338.809064 
L 225.358651 346.249315 
L 230.861366 362.850839 
L 236.364081 348.723786 
L 241.866796 343.164818 
L 247.369511 346.354221 
L 252.872226 338.279598 
L 258.374941 339.885291 
L 263.877656 341.063638 
L 269.380371 359.30947 
L 274.883086 359.955742 
L 280.385801 399.745568 
L 285.888516 366.612066 
L 291.391231 353.377527 
L 296.893946 329.85795 
L 302.396661 420.22049 
L 307.899376 395.667416 
L 313.402091 373.844179 
L 318.904806 435.523295 
L 324.407521 351.527486 
L 329.910236 368.640675 
L 335.412951 290.963159 
L 340.915667 328.744238 
L 346.418382 370.571427 
L 351.921097 361.627458 
L 357.423812 333.725441 
L 362.926527 342.10594 
L 368.429242 346.042081 
L 373.931957 345.637628 
L 379.434672 336.502261 
L 384.937387 348.481039 
L 390.440102 341.038389 
L 395.942817 340.411807 
L 401.445532 347.377533 
L 406.948247 373.709583 
L 412.450962 366.951506 
L 417.953677 363.642312 
L 423.456392 334.695909 
L 428.959107 353.714711 
L 434.461822 367.550068 
L 439.964537 392.283023 
L 445.467252 346.089142 
L 450.969967 307.714354 
L 456.472682 361.013717 
L 461.975397 346.897897 
L 467.478112 301.342626 
L 472.980827 377.332826 
L 478.483542 388.823821 
L 483.986257 394.216671 
L 489.488972 352.970923 
L 494.991687 371.328274 
L 500.494402 354.046702 
L 505.997117 344.059322 
L 511.499832 338.399787 
L 517.002547 340.386428 
L 522.505262 334.800912 
L 528.007977 335.974027 
L 533.510692 339.098852 
L 539.013407 385.136597 
L 544.516122 390.231363 
L 550.018837 410.97982 
L 555.521552 402.403231 
L 561.024267 354.893155 
L 566.526983 420.526062 
L 572.029698 375.997935 
L 577.532413 380.945941 
L 583.035128 406.350025 
L 588.537843 346.472219 
L 594.040558 392.810932 
L 599.543273 328.554081 
L 605.045988 363.080518 
L 610.548703 361.303816 
L 616.051418 372.53288 
L 621.554133 350.790659 
L 627.056848 343.000371 
L 632.559563 335.903196 
L 638.062278 345.434097 
L 643.564993 333.989522 
L 649.067708 342.536914 
L 654.570423 347.283601 
L 660.073138 345.57532 
L 665.575853 342.197214 
L 671.078568 363.244141 
L 676.581283 407.991369 
L 682.083998 354.317646 
L 687.586713 350.092931 
L 693.089428 347.230628 
L 698.592143 318.817732 
L 704.094858 393.151003 
L 709.597573 408.719601 
L 715.100288 386.951277 
L 720.603003 344.944855 
L 726.105718 400.508494 
L 731.608433 384.722283 
L 737.111148 391.507962 
L 742.613863 358.4169 
L 748.116578 357.660829 
L 753.619293 356.311304 
L 759.122008 352.632787 
L 764.624723 353.390694 
L 770.127438 345.372749 
L 775.630153 331.805414 
L 781.132868 336.813361 
L 786.635583 343.585152 
L 792.138299 346.057489 
L 797.641014 355.40864 
L 803.143729 368.509686 
L 808.646444 404.95424 
L 814.149159 401.301675 
L 819.651874 396.689587 
L 825.154589 343.500068 
L 830.657304 335.589847 
L 836.160019 392.062112 
L 841.662734 346.826233 
L 847.165449 377.458963 
L 852.668164 374.793661 
L 858.170879 367.540541 
L 863.673594 364.92551 
L 869.176309 355.51272 
L 874.679024 411.636309 
L 880.181739 401.530664 
L 885.684454 351.00694 
L 891.187169 340.429897 
L 896.689884 347.782005 
L 902.192599 343.114931 
L 907.695314 344.974881 
L 913.198029 366.023996 
L 918.700744 352.437711 
L 924.203459 343.126221 
L 929.706174 349.982426 
L 935.208889 350.016723 
L 940.711604 384.615546 
L 946.214319 348.739532 
L 951.717034 343.807942 
L 957.219749 349.902127 
L 962.722464 306.915447 
L 968.225179 338.771519 
L 973.727894 357.928032 
L 979.230609 389.983753 
L 984.733324 347.241509 
L 990.236039 383.632374 
L 995.738754 339.280479 
L 1001.241469 376.564391 
L 1006.744184 372.663071 
L 1017.749615 351.854058 
L 1023.25233 356.688763 
L 1023.25233 356.688763 
" style="fill:none;stroke:#000000;stroke-linecap:square;stroke-width:1.5;"/>
   </g>
   <g id="patch_3">
    <path d="M 58.35125 454.67125 
L 58.35125 33.41625 
" style="fill:none;stroke:#000000;stroke-linecap:square;stroke-linejoin:miter;stroke-width:0.8;"/>
   </g>
   <g id="patch_4">
    <path d="M 1069.2 454.67125 
L 1069.2 33.41625 
" style="fill:none;stroke:#000000;stroke-linecap:square;stroke-linejoin:miter;stroke-width:0.8;"/>
   </g>
   <g id="patch_5">
    <path d="M 58.35125 454.67125 
L 1069.2 454.67125 
" style="fill:none;stroke:#000000;stroke-linecap:square;stroke-linejoin:miter;stroke-width:0.8;"/>
   </g>
   <g id="patch_6">
    <path d="M 58.35125 33.41625 
L 1069.2 33.41625 
" style="fill:none;stroke:#000000;stroke-linecap:square;stroke-linejoin:miter;stroke-width:0.8;"/>
   </g>
   <g id="text_19">
    <!-- MiniDeepST 预测值、实际值和误差分布图 ID=200  -->
    <defs>
     <path d="M 45.703125 1.953125 
L 37.890625 1.953125 
L 37.890625 49.609375 
L 37.109375 49.609375 
L 27.734375 1.953125 
L 21.484375 1.953125 
L 12.109375 49.609375 
L 11.328125 49.609375 
L 11.328125 1.953125 
L 3.515625 1.953125 
L 3.515625 68.75 
L 15.625 68.75 
L 24.21875 24.609375 
L 25 24.609375 
L 33.59375 68.75 
L 45.703125 68.75 
z
" id="SimHei-77"/>
     <path d="M 28.125 58.203125 
L 20.3125 58.203125 
L 20.3125 68.359375 
L 28.125 68.359375 
z
M 28.125 1.953125 
L 20.3125 1.953125 
L 20.3125 45.703125 
L 28.125 45.703125 
z
" id="SimHei-105"/>
     <path d="M 43.75 1.953125 
L 35.9375 1.953125 
L 35.9375 30.078125 
Q 35.9375 34.765625 33.59375 37.5 
Q 31.25 40.234375 27.34375 40.234375 
Q 22.265625 40.234375 17.765625 34.953125 
Q 13.28125 29.6875 13.28125 21.875 
L 13.28125 1.953125 
L 5.46875 1.953125 
L 5.46875 45.703125 
L 13.28125 45.703125 
L 13.28125 37.5 
Q 16.40625 41.796875 20.109375 44.140625 
Q 23.828125 46.484375 29.6875 46.484375 
Q 36.71875 46.484375 40.234375 42.578125 
Q 43.75 38.671875 43.75 32.8125 
z
" id="SimHei-110"/>
     <path d="M 45.703125 35.15625 
Q 45.703125 17.1875 38.078125 9.5625 
Q 30.46875 1.953125 17.578125 1.953125 
L 4.296875 1.953125 
L 4.296875 68.75 
L 17.578125 68.75 
Q 32.03125 68.75 38.859375 60.9375 
Q 45.703125 53.125 45.703125 35.15625 
z
M 36.328125 35.15625 
Q 36.328125 49.609375 31.640625 55.46875 
Q 26.953125 61.328125 17.578125 61.328125 
L 13.28125 61.328125 
L 13.28125 9.375 
L 17.578125 9.375 
Q 26.953125 9.375 31.640625 15.03125 
Q 36.328125 20.703125 36.328125 35.15625 
z
" id="SimHei-68"/>
     <path d="M 44.53125 16.796875 
Q 43.75 9.765625 38.28125 5.46875 
Q 32.8125 1.171875 25.390625 1.171875 
Q 16.015625 1.171875 9.953125 7.21875 
Q 3.90625 13.28125 3.90625 23.828125 
Q 3.90625 34.375 9.953125 40.421875 
Q 16.015625 46.484375 25.390625 46.484375 
Q 33.59375 46.484375 38.859375 41.203125 
Q 44.140625 35.9375 44.140625 23.828125 
L 12.5 23.828125 
Q 12.5 15.234375 16.203125 11.71875 
Q 19.921875 8.203125 25.390625 8.203125 
Q 29.6875 8.203125 32.421875 10.34375 
Q 35.15625 12.5 35.9375 16.796875 
z
M 35.15625 30.078125 
Q 34.375 35.546875 31.640625 37.6875 
Q 28.90625 39.84375 24.609375 39.84375 
Q 20.703125 39.84375 17.578125 37.6875 
Q 14.453125 35.546875 12.890625 30.078125 
z
" id="SimHei-101"/>
     <path d="M 44.140625 23.828125 
Q 44.140625 12.5 38.671875 6.640625 
Q 33.203125 0.78125 25.390625 0.78125 
Q 21.09375 0.78125 17.96875 2.53125 
Q 14.84375 4.296875 12.5 7.8125 
L 12.5 -12.5 
L 4.6875 -12.5 
L 4.6875 45.703125 
L 12.5 45.703125 
L 12.5 39.84375 
Q 14.84375 43.359375 17.96875 44.921875 
Q 21.09375 46.484375 25.390625 46.484375 
Q 33.203125 46.484375 38.671875 40.8125 
Q 44.140625 35.15625 44.140625 23.828125 
z
M 35.546875 23.828125 
Q 35.546875 31.25 32.609375 35.34375 
Q 29.6875 39.453125 23.828125 39.453125 
Q 19.140625 39.453125 15.8125 35.34375 
Q 12.5 31.25 12.5 23.828125 
Q 12.5 16.40625 15.8125 12.109375 
Q 19.140625 7.8125 23.828125 7.8125 
Q 29.6875 7.8125 32.609375 12.109375 
Q 35.546875 16.40625 35.546875 23.828125 
z
" id="SimHei-112"/>
     <path d="M 45.3125 20.703125 
Q 45.3125 11.71875 39.640625 6.4375 
Q 33.984375 1.171875 24.21875 1.171875 
Q 14.453125 1.171875 8.984375 6.640625 
Q 3.515625 12.109375 3.515625 20.3125 
L 3.515625 23.046875 
L 12.5 23.046875 
L 12.5 20.703125 
Q 12.5 14.84375 16.015625 11.71875 
Q 19.53125 8.59375 24.21875 8.59375 
Q 30.46875 8.59375 33.390625 11.90625 
Q 36.328125 15.234375 36.328125 19.921875 
Q 36.328125 23.828125 32.8125 27.140625 
Q 29.296875 30.46875 22.65625 33.203125 
Q 13.28125 36.71875 9.171875 41.015625 
Q 5.078125 45.3125 5.078125 51.171875 
Q 5.078125 59.375 10.734375 64.453125 
Q 16.40625 69.53125 24.21875 69.53125 
Q 34.375 69.53125 38.859375 63.46875 
Q 43.359375 57.421875 43.359375 50.390625 
L 34.375 50.390625 
Q 34.765625 54.6875 32.03125 58.203125 
Q 29.296875 61.71875 24.21875 61.71875 
Q 19.53125 61.71875 16.796875 59.171875 
Q 14.0625 56.640625 14.0625 52.34375 
Q 14.0625 48.828125 16.203125 46.28125 
Q 18.359375 43.75 27.34375 40.234375 
Q 35.9375 36.71875 40.625 31.828125 
Q 45.3125 26.953125 45.3125 20.703125 
z
" id="SimHei-83"/>
     <path d="M 44.53125 61.328125 
L 28.90625 61.328125 
L 28.90625 1.953125 
L 19.921875 1.953125 
L 19.921875 61.328125 
L 4.296875 61.328125 
L 4.296875 68.75 
L 44.53125 68.75 
z
" id="SimHei-84"/>
     <path id="SimHei-32"/>
     <path d="M 81.25 75 
Q 87.109375 75 92.96875 75.390625 
L 92.96875 68.75 
Q 87.109375 69.140625 81.25 69.140625 
L 70.3125 69.140625 
Q 69.140625 63.28125 67.96875 56.25 
L 89.453125 56.25 
Q 89.0625 50.390625 89.0625 43.75 
L 89.0625 26.953125 
Q 89.0625 20.3125 89.453125 13.28125 
L 82.03125 13.28125 
L 82.03125 50.390625 
L 55.46875 50.390625 
L 55.46875 12.5 
L 48.046875 12.5 
Q 48.4375 21.484375 48.4375 26.953125 
L 48.4375 43.359375 
Q 48.4375 49.609375 48.046875 56.25 
L 60.9375 56.25 
Q 62.5 64.84375 62.5 69.140625 
L 58.203125 69.140625 
Q 51.5625 69.140625 44.53125 68.75 
L 44.53125 75.390625 
Q 51.953125 75 58.203125 75 
z
M 40.625 27.734375 
Q 36.71875 28.515625 33.59375 28.515625 
Q 35.15625 35.15625 35.9375 38.28125 
L 27.34375 38.28125 
L 27.34375 1.953125 
Q 26.953125 -4.6875 22.265625 -6.25 
Q 17.578125 -7.8125 11.71875 -7.8125 
Q 10.9375 -3.515625 8.984375 0.390625 
Q 17.578125 -0.390625 18.9375 0.578125 
Q 20.3125 1.5625 20.3125 5.46875 
L 20.3125 38.28125 
L 16.015625 38.28125 
Q 10.9375 38.28125 5.46875 37.890625 
L 5.46875 44.53125 
Q 10.9375 44.140625 15.625 44.140625 
L 44.53125 44.140625 
Q 42.578125 36.328125 40.625 27.734375 
z
M 73.828125 44.921875 
Q 72.265625 40.234375 71.875 32.8125 
Q 71.484375 25.390625 69.71875 16.203125 
Q 67.96875 7.03125 61.90625 0.96875 
Q 55.859375 -5.078125 45.703125 -10.546875 
Q 42.1875 -7.8125 38.671875 -5.46875 
Q 48.046875 -1.953125 53.703125 3.125 
Q 59.375 8.203125 61.71875 14.640625 
Q 64.0625 21.09375 64.640625 28.90625 
Q 65.234375 36.71875 65.234375 45.703125 
L 73.828125 44.921875 
z
M 25.390625 45.3125 
Q 19.921875 51.171875 12.5 57.03125 
Q 14.453125 58.984375 16.796875 61.71875 
Q 19.53125 59.765625 22.265625 57.421875 
Q 27.34375 64.84375 30.46875 68.359375 
L 21.875 68.359375 
Q 14.0625 68.359375 7.03125 67.96875 
L 7.03125 74.609375 
Q 14.0625 74.21875 21.484375 74.21875 
L 40.234375 74.21875 
L 40.234375 68.359375 
Q 34.375 64.0625 26.953125 53.125 
L 30.46875 50 
Q 27.34375 47.265625 25.390625 45.3125 
z
M 74.609375 11.328125 
Q 89.453125 0 94.921875 -5.078125 
Q 91.40625 -7.8125 89.453125 -10.15625 
Q 84.375 -5.078125 80.265625 -1.359375 
Q 76.171875 2.34375 70.703125 5.46875 
Q 72.65625 8.203125 74.609375 11.328125 
z
" id="SimHei-39044"/>
     <path d="M 62.890625 73.828125 
Q 62.5 69.921875 62.5 62.5 
L 62.5 34.765625 
Q 62.5 27.734375 62.890625 21.09375 
L 55.46875 21.09375 
L 55.46875 67.578125 
L 36.71875 67.578125 
L 36.71875 20.703125 
L 29.6875 20.703125 
Q 30.078125 27.734375 30.078125 34.765625 
L 30.078125 62.5 
Q 30.078125 65.625 29.6875 73.828125 
L 62.890625 73.828125 
z
M 92.1875 79.296875 
Q 91.796875 75 91.796875 68.359375 
L 91.796875 0 
Q 91.796875 -5.078125 88.28125 -6.640625 
Q 84.765625 -8.203125 77.734375 -9.375 
Q 76.953125 -5.078125 74.609375 -0.78125 
Q 80.078125 -0.78125 82.21875 -0.390625 
Q 84.375 0 84.375 3.90625 
L 84.375 68.359375 
Q 84.375 74.609375 83.984375 79.296875 
L 92.1875 79.296875 
z
M 51.171875 58.203125 
Q 50.390625 53.125 50 36.328125 
Q 49.609375 19.53125 44.328125 8.59375 
Q 39.0625 -2.34375 32.421875 -9.375 
Q 28.90625 -6.25 25 -5.078125 
Q 34.375 3.90625 38.671875 15.03125 
Q 42.96875 26.171875 43.15625 38.671875 
Q 43.359375 51.171875 42.578125 59.375 
Q 46.875 58.59375 51.171875 58.203125 
z
M 77.34375 66.796875 
Q 76.953125 62.5 76.953125 55.859375 
L 76.953125 28.515625 
Q 76.953125 20.3125 77.34375 13.28125 
L 69.53125 13.28125 
Q 69.921875 17.96875 69.921875 28.515625 
L 69.921875 55.859375 
Q 69.921875 62.5 69.53125 66.796875 
L 77.34375 66.796875 
z
M 26.5625 26.171875 
Q 21.484375 16.796875 17.375 7.609375 
Q 13.28125 -1.5625 11.328125 -6.25 
Q 7.8125 -3.125 3.125 -0.390625 
Q 7.421875 4.6875 11.90625 13.28125 
Q 16.40625 21.875 19.53125 31.25 
Q 23.046875 28.515625 26.5625 26.171875 
z
M 53.125 16.40625 
Q 59.375 10.15625 67.1875 -1.953125 
Q 64.0625 -3.515625 60.546875 -7.03125 
Q 54.296875 4.296875 47.265625 11.71875 
Q 50.390625 13.671875 53.125 16.40625 
z
M 9.375 55.078125 
Q 17.578125 48.828125 23.4375 43.359375 
Q 20.3125 40.234375 17.96875 37.109375 
Q 12.890625 43.359375 4.6875 49.21875 
Q 7.03125 51.5625 9.375 55.078125 
z
M 21.09375 62.5 
Q 14.84375 68.359375 7.421875 73.046875 
Q 9.765625 75.78125 12.109375 78.90625 
Q 20.3125 73.4375 26.171875 68.359375 
Q 23.4375 66.40625 21.09375 62.5 
z
" id="SimHei-27979"/>
     <path d="M 57.421875 69.53125 
L 57.421875 79.6875 
Q 62.109375 79.296875 67.96875 78.90625 
Q 66.015625 76.171875 65.625 69.53125 
L 80.078125 69.53125 
Q 86.71875 69.53125 91.796875 69.921875 
L 91.796875 62.890625 
Q 86.328125 63.28125 80.078125 63.28125 
L 65.234375 63.28125 
L 64.453125 54.6875 
L 84.375 54.6875 
Q 83.984375 50 83.984375 42.1875 
L 83.984375 2.34375 
Q 91.796875 2.34375 95.3125 2.734375 
L 95.3125 -4.296875 
Q 90.234375 -3.90625 81.25 -3.90625 
L 44.53125 -3.90625 
Q 35.546875 -3.90625 29.6875 -4.296875 
L 29.6875 2.734375 
Q 33.203125 2.34375 40.625 2.34375 
L 40.625 42.1875 
Q 40.625 49.609375 40.234375 54.6875 
L 56.25 54.6875 
L 57.03125 63.28125 
L 50 63.28125 
Q 40.234375 63.28125 34.765625 62.890625 
L 34.765625 69.921875 
Q 39.84375 69.53125 50 69.53125 
z
M 34.765625 76.5625 
Q 31.640625 73.046875 25.78125 58.59375 
L 25.78125 7.03125 
Q 25.78125 -1.171875 26.171875 -8.59375 
L 17.96875 -8.59375 
Q 18.359375 -1.953125 18.359375 5.859375 
L 18.359375 46.09375 
Q 13.671875 38.28125 9.765625 33.59375 
Q 6.640625 37.890625 3.90625 40.234375 
Q 7.8125 44.140625 14.640625 55.265625 
Q 21.484375 66.40625 25.390625 80.46875 
Q 30.859375 77.734375 34.765625 76.5625 
z
M 76.953125 41.40625 
L 76.953125 49.21875 
L 48.046875 49.21875 
L 48.046875 41.40625 
z
M 76.953125 2.34375 
L 76.953125 9.765625 
L 48.046875 9.765625 
L 48.046875 2.34375 
z
M 76.953125 15.625 
L 76.953125 22.65625 
L 48.046875 22.65625 
L 48.046875 15.625 
z
M 76.953125 28.515625 
L 76.953125 35.546875 
L 48.046875 35.546875 
L 48.046875 28.515625 
z
" id="SimHei-20540"/>
     <path d="M 26.953125 -4.296875 
Q 20.703125 10.9375 14.453125 22.65625 
L 20.703125 25.78125 
Q 28.515625 14.84375 36.328125 0.390625 
z
" id="SimHei-12289"/>
     <path d="M 64.453125 54.6875 
Q 63.28125 50 62.5 41.796875 
Q 61.71875 33.59375 60.15625 24.21875 
L 78.515625 24.21875 
Q 85.546875 24.21875 93.359375 24.609375 
L 93.359375 17.1875 
Q 85.15625 17.578125 78.125 17.578125 
L 58.203125 17.578125 
Q 54.6875 9.765625 47.65625 3.90625 
Q 40.625 -1.953125 31.25 -5.265625 
Q 21.875 -8.59375 14.453125 -10.546875 
Q 12.890625 -5.859375 7.8125 -3.125 
Q 19.140625 -1.953125 32.03125 3.3125 
Q 44.921875 8.59375 50 17.578125 
L 22.265625 17.578125 
Q 15.234375 17.578125 6.640625 17.1875 
L 6.640625 24.609375 
Q 15.625 24.21875 22.265625 24.21875 
L 52.734375 24.21875 
Q 53.90625 30.859375 54.484375 38.46875 
Q 55.078125 46.09375 54.6875 57.03125 
Q 59.375 55.46875 64.453125 54.6875 
z
M 50.78125 82.03125 
Q 53.90625 75.78125 56.25 68.359375 
L 90.234375 68.359375 
Q 89.84375 64.0625 89.84375 59.765625 
Q 89.84375 55.859375 90.234375 51.171875 
L 81.25 51.171875 
L 81.25 62.109375 
L 19.140625 62.109375 
L 19.140625 50.390625 
L 10.546875 50.390625 
Q 10.9375 55.078125 10.9375 59.375 
Q 10.9375 64.0625 10.546875 68.359375 
L 46.484375 68.359375 
Q 45.3125 73.046875 42.1875 79.296875 
Q 45.3125 80.46875 50.78125 82.03125 
z
M 62.5 12.890625 
Q 71.09375 8.203125 78.90625 4.09375 
Q 86.71875 0 92.578125 -3.515625 
Q 89.84375 -6.640625 86.71875 -10.15625 
Q 79.6875 -5.078125 71.484375 -0.578125 
Q 63.28125 3.90625 57.421875 6.25 
Q 60.546875 10.15625 62.5 12.890625 
z
M 18.359375 42.96875 
Q 25 39.84375 36.71875 32.03125 
Q 35.15625 29.6875 32.03125 25.78125 
Q 21.09375 33.984375 14.453125 36.71875 
Q 16.796875 39.0625 18.359375 42.96875 
z
M 49.21875 44.140625 
Q 46.484375 41.015625 44.53125 37.890625 
Q 32.03125 46.875 26.171875 48.828125 
Q 28.125 51.5625 30.46875 55.078125 
z
" id="SimHei-23454"/>
     <path d="M 39.0625 76.5625 
Q 37.890625 73.4375 35.15625 64.0625 
Q 32.421875 54.6875 29.296875 45.3125 
Q 34.375 37.5 36.125 32.03125 
Q 37.890625 26.5625 36.90625 22.0625 
Q 35.9375 17.578125 31.4375 14.25 
Q 26.953125 10.9375 21.09375 10.15625 
Q 19.140625 16.40625 17.578125 19.140625 
Q 26.171875 19.140625 27.921875 22.0625 
Q 29.6875 25 28.703125 29.09375 
Q 27.734375 33.203125 25.96875 37.109375 
Q 24.21875 41.015625 21.09375 44.921875 
Q 23.046875 50.390625 25 57.03125 
Q 26.953125 63.671875 28.90625 69.921875 
L 16.015625 69.921875 
L 16.015625 -8.203125 
L 7.8125 -8.203125 
Q 8.203125 2.734375 8.203125 13.28125 
L 8.203125 59.765625 
Q 8.203125 68.359375 7.8125 76.5625 
L 39.0625 76.5625 
z
M 82.03125 51.5625 
Q 88.28125 51.5625 94.53125 51.953125 
L 94.53125 44.53125 
Q 89.453125 44.921875 83.203125 44.921875 
L 70.3125 44.921875 
L 70.3125 1.171875 
Q 70.3125 -5.078125 66.015625 -6.046875 
Q 61.71875 -7.03125 54.296875 -8.203125 
Q 53.90625 -3.515625 51.171875 1.171875 
Q 58.984375 1.171875 60.734375 1.5625 
Q 62.5 1.953125 62.5 4.296875 
L 62.5 44.921875 
L 52.734375 44.921875 
Q 44.140625 44.921875 38.671875 44.53125 
L 38.671875 51.953125 
Q 47.265625 51.5625 52.734375 51.5625 
z
M 77.734375 74.609375 
Q 83.984375 74.609375 88.671875 75.390625 
L 88.671875 67.96875 
Q 83.984375 68.359375 77.734375 68.359375 
L 57.03125 68.359375 
Q 50.390625 68.359375 45.3125 67.96875 
L 45.3125 75.390625 
Q 50 74.609375 57.8125 74.609375 
z
M 33.59375 3.125 
Q 38.28125 10.9375 41.59375 18.546875 
Q 44.921875 26.171875 47.65625 33.984375 
Q 50.78125 32.8125 55.859375 30.46875 
Q 51.953125 23.4375 48.625 15.625 
Q 45.3125 7.8125 41.40625 -0.390625 
Q 38.28125 1.171875 33.59375 3.125 
z
M 82.421875 34.375 
Q 92.1875 15.234375 96.875 5.46875 
Q 92.96875 3.90625 88.671875 1.5625 
Q 82.8125 16.015625 75 30.078125 
Q 77.34375 31.25 82.421875 34.375 
z
" id="SimHei-38469"/>
     <path d="M 91.796875 65.625 
Q 91.40625 57.8125 91.40625 51.171875 
L 91.40625 10.9375 
Q 91.40625 3.90625 91.796875 -0.390625 
L 83.984375 -0.390625 
L 83.984375 8.984375 
L 65.234375 8.984375 
L 65.234375 -1.171875 
L 57.8125 -1.171875 
Q 58.203125 7.8125 58.203125 9.765625 
L 58.203125 51.171875 
Q 58.203125 57.8125 57.8125 65.625 
L 91.796875 65.625 
z
M 51.171875 69.53125 
Q 47.65625 69.53125 35.15625 67.578125 
L 35.15625 50 
L 41.015625 50 
Q 46.875 50 53.515625 50.390625 
L 53.515625 43.359375 
Q 46.875 43.75 41.40625 43.75 
L 35.15625 43.75 
L 35.15625 3.515625 
Q 35.15625 -3.125 35.546875 -8.59375 
L 27.734375 -8.59375 
Q 28.125 -2.34375 28.125 3.515625 
L 28.125 28.90625 
Q 22.265625 17.96875 10.546875 3.90625 
Q 8.59375 6.640625 4.296875 9.375 
Q 12.890625 17.578125 19.328125 28.3125 
Q 25.78125 39.0625 26.5625 43.75 
L 19.53125 43.75 
Q 10.9375 43.75 7.03125 43.359375 
L 7.03125 50.390625 
Q 11.328125 50 19.53125 50 
L 28.125 50 
L 28.125 66.40625 
Q 23.046875 65.625 12.109375 64.453125 
Q 11.328125 68.359375 9.765625 71.484375 
Q 17.1875 71.875 28.515625 73.4375 
Q 39.84375 75 47.65625 78.125 
Q 48.4375 73.828125 51.171875 69.53125 
z
M 83.984375 15.234375 
L 83.984375 58.984375 
L 65.234375 58.984375 
L 65.234375 15.234375 
z
M 48.046875 15.625 
Q 42.96875 25.390625 36.328125 32.8125 
Q 38.671875 34.375 42.1875 37.5 
Q 49.609375 29.296875 54.6875 20.703125 
Q 50.78125 18.359375 48.046875 15.625 
z
" id="SimHei-21644"/>
     <path d="M 72.265625 42.96875 
Q 83.203125 42.96875 90.625 43.359375 
L 90.625 36.71875 
Q 82.8125 37.109375 72.265625 37.109375 
L 64.84375 37.109375 
Q 64.84375 33.203125 64.0625 25.78125 
L 78.515625 25.78125 
Q 87.109375 25.78125 95.3125 26.171875 
L 95.3125 19.140625 
Q 87.109375 19.53125 78.515625 19.53125 
L 66.40625 19.53125 
Q 71.484375 9.375 78.90625 4.484375 
Q 86.328125 -0.390625 95.703125 -1.953125 
Q 92.1875 -5.46875 90.234375 -9.765625 
Q 76.171875 -4.296875 69.53125 2.734375 
Q 62.890625 9.765625 60.9375 15.625 
Q 56.25 5.078125 48.828125 -0.96875 
Q 41.40625 -7.03125 31.640625 -10.546875 
Q 30.859375 -7.03125 26.953125 -3.125 
Q 38.671875 -1.171875 45.890625 6.828125 
Q 53.125 14.84375 54.296875 19.53125 
L 46.484375 19.53125 
Q 37.5 19.53125 31.640625 19.140625 
L 31.640625 26.171875 
Q 38.671875 25.78125 45.3125 25.78125 
L 56.25 25.78125 
Q 57.03125 31.640625 57.03125 37.109375 
L 51.953125 37.109375 
Q 41.796875 37.109375 34.765625 36.71875 
L 34.765625 43.359375 
Q 42.1875 42.96875 49.21875 42.96875 
z
M 84.765625 76.171875 
Q 84.375 71.09375 84.375 63.671875 
Q 84.375 56.25 84.765625 51.953125 
L 38.28125 51.953125 
Q 38.671875 55.859375 38.671875 63.28125 
Q 38.671875 70.703125 38.28125 76.171875 
L 84.765625 76.171875 
z
M 24.21875 51.953125 
Q 23.828125 46.875 23.828125 39.0625 
L 23.828125 10.546875 
L 29.6875 17.1875 
Q 31.640625 13.671875 34.765625 10.9375 
Q 26.171875 4.6875 19.53125 -5.078125 
Q 17.1875 -1.5625 12.890625 0.78125 
Q 16.015625 3.90625 16.40625 7.8125 
L 16.40625 45.3125 
Q 10.9375 45.3125 5.078125 44.921875 
L 5.078125 52.34375 
Q 8.59375 51.953125 11.71875 51.953125 
z
M 77.734375 57.8125 
L 77.734375 69.921875 
L 45.3125 69.921875 
L 45.3125 57.8125 
z
M 15.234375 80.078125 
Q 17.96875 78.125 29.6875 66.796875 
Q 26.953125 64.453125 24.21875 61.328125 
Q 17.96875 68.75 10.546875 74.609375 
Q 13.671875 77.734375 15.234375 80.078125 
z
" id="SimHei-35823"/>
     <path d="M 73.828125 77.734375 
Q 70.3125 73.828125 66.40625 66.796875 
L 75.78125 66.796875 
Q 85.15625 66.796875 91.015625 67.1875 
L 91.015625 60.15625 
Q 84.765625 60.546875 75.78125 60.546875 
L 51.171875 60.546875 
Q 50.390625 56.25 49.21875 51.171875 
L 70.703125 51.171875 
Q 79.296875 51.171875 86.328125 51.5625 
L 86.328125 44.53125 
Q 79.296875 44.921875 70.3125 44.921875 
L 47.65625 44.921875 
Q 46.484375 41.40625 44.53125 36.328125 
L 80.078125 36.328125 
Q 88.671875 36.328125 94.140625 36.71875 
L 94.140625 29.6875 
Q 89.0625 30.078125 80.46875 30.078125 
L 41.40625 30.078125 
Q 37.890625 24.21875 35.15625 20.3125 
Q 41.40625 19.921875 48.4375 19.921875 
L 70.703125 19.921875 
Q 77.734375 19.921875 83.59375 20.3125 
L 83.59375 13.28125 
Q 77.734375 13.671875 71.484375 13.671875 
L 61.328125 13.671875 
L 61.328125 -0.78125 
L 78.125 -0.78125 
Q 81.25 -0.78125 92.1875 -0.390625 
L 92.1875 -7.8125 
Q 82.421875 -7.421875 78.515625 -7.421875 
L 32.8125 -7.421875 
Q 26.5625 -7.421875 21.875 -7.8125 
L 21.875 -0.390625 
Q 27.734375 -0.78125 33.203125 -0.78125 
L 53.515625 -0.78125 
L 53.515625 13.671875 
L 48.4375 13.671875 
Q 41.015625 13.671875 33.984375 13.28125 
L 33.984375 18.75 
Q 30.078125 13.671875 23.234375 7.421875 
Q 16.40625 1.171875 9.765625 -3.90625 
Q 6.640625 -0.390625 3.125 2.34375 
Q 11.71875 7.421875 19.71875 14.453125 
Q 27.734375 21.484375 32.8125 30.078125 
L 20.703125 30.078125 
Q 11.71875 30.078125 5.859375 29.6875 
L 5.859375 36.71875 
Q 11.71875 36.328125 21.09375 36.328125 
L 36.328125 36.328125 
Q 38.28125 40.234375 39.84375 44.921875 
L 26.953125 44.921875 
Q 21.484375 44.921875 15.625 44.53125 
L 15.625 51.5625 
Q 23.4375 51.171875 26.5625 51.171875 
L 41.40625 51.171875 
Q 42.578125 55.859375 43.359375 60.546875 
L 23.4375 60.546875 
Q 17.1875 60.546875 10.15625 60.15625 
L 10.15625 67.1875 
Q 16.015625 66.796875 22.265625 66.796875 
L 35.546875 66.796875 
Q 32.421875 73.046875 28.90625 77.34375 
Q 31.640625 78.90625 35.15625 81.640625 
Q 38.28125 77.734375 42.578125 71.09375 
Q 39.453125 69.53125 36.328125 66.796875 
L 58.59375 66.796875 
Q 62.5 73.4375 64.84375 82.03125 
Q 68.75 79.6875 73.828125 77.734375 
z
" id="SimHei-24046"/>
     <path d="M 15.625 -10.15625 
Q 12.890625 -5.859375 8.984375 -3.515625 
Q 15.234375 -1.171875 20.3125 2.140625 
Q 25.390625 5.46875 29.296875 10.34375 
Q 33.203125 15.234375 35.15625 21.09375 
Q 37.109375 26.953125 37.890625 35.546875 
Q 28.90625 35.546875 23.4375 35.15625 
L 23.4375 43.359375 
Q 29.6875 42.96875 39.453125 42.96875 
L 78.515625 42.96875 
Q 77.734375 37.109375 77.34375 32.8125 
L 74.21875 3.90625 
Q 73.4375 -3.125 67.96875 -5.46875 
Q 62.5 -7.8125 55.859375 -8.203125 
Q 55.46875 -4.296875 51.953125 0.78125 
Q 60.15625 0.390625 63.078125 1.359375 
Q 66.015625 2.34375 66.796875 8.203125 
L 69.53125 35.546875 
L 46.09375 35.546875 
Q 44.921875 25.390625 42.765625 18.546875 
Q 40.625 11.71875 36.71875 6.640625 
Q 32.8125 1.5625 27.34375 -2.734375 
Q 21.875 -7.03125 15.625 -10.15625 
z
M 61.71875 80.859375 
Q 64.453125 72.65625 72.84375 62.109375 
Q 81.25 51.5625 96.484375 43.75 
Q 93.359375 41.015625 90.234375 35.546875 
Q 83.203125 40.625 77.921875 45.109375 
Q 72.65625 49.609375 69.140625 53.515625 
Q 65.625 57.421875 61.328125 64.640625 
Q 57.03125 71.875 54.296875 78.125 
Q 58.59375 79.296875 61.71875 80.859375 
z
M 42.1875 75.390625 
Q 38.671875 69.140625 36.328125 64.453125 
Q 33.984375 59.765625 31.640625 56.046875 
Q 29.296875 52.34375 24.609375 46.09375 
Q 19.921875 39.84375 13.28125 33.203125 
Q 9.765625 36.71875 6.25 38.671875 
Q 14.0625 45.703125 18.546875 51.5625 
Q 23.046875 57.421875 27.140625 64.25 
Q 31.25 71.09375 34.375 79.296875 
Q 37.5 76.953125 42.1875 75.390625 
z
" id="SimHei-20998"/>
     <path d="M 37.109375 66.015625 
Q 41.40625 74.609375 43.359375 82.8125 
Q 48.828125 80.859375 53.125 79.296875 
Q 51.171875 77.734375 46.09375 66.015625 
L 75 66.015625 
Q 86.71875 66.015625 94.140625 66.40625 
L 94.140625 59.375 
L 42.578125 59.375 
Q 36.328125 48.4375 30.859375 41.796875 
L 51.171875 41.796875 
Q 51.171875 50.390625 50.78125 55.859375 
L 58.984375 55.859375 
Q 58.59375 50.390625 58.59375 41.796875 
L 85.9375 41.796875 
Q 85.546875 34.765625 85.546875 27.734375 
L 85.546875 11.71875 
Q 85.546875 4.296875 81.4375 2.34375 
Q 77.34375 0.390625 69.53125 -0.390625 
Q 68.75 5.078125 66.015625 8.59375 
Q 75 8.59375 76.75 9.765625 
Q 78.515625 10.9375 78.125 16.015625 
L 78.125 35.15625 
L 58.59375 35.15625 
L 58.59375 8.59375 
Q 58.59375 0.390625 58.984375 -9.375 
L 50.78125 -9.375 
Q 51.171875 0.390625 51.171875 8.59375 
L 51.171875 35.15625 
L 32.8125 35.15625 
L 32.8125 0 
L 25 0 
Q 25.390625 8.203125 25.390625 16.015625 
L 25.390625 34.765625 
Q 20.3125 28.90625 10.15625 19.921875 
Q 7.421875 23.046875 3.125 25.78125 
Q 11.71875 31.640625 19.71875 40.03125 
Q 27.734375 48.4375 33.59375 59.375 
L 24.21875 59.375 
Q 14.453125 59.375 6.25 58.984375 
L 6.25 66.40625 
Q 14.453125 66.015625 24.21875 66.015625 
z
" id="SimHei-24067"/>
     <path d="M 90.625 77.734375 
Q 90.234375 67.96875 90.234375 56.25 
L 90.234375 14.453125 
Q 90.234375 2.34375 90.625 -9.375 
L 82.8125 -9.375 
L 82.8125 -4.296875 
L 17.578125 -4.296875 
L 17.578125 -10.15625 
L 9.765625 -10.15625 
Q 10.15625 1.953125 10.15625 14.84375 
L 10.15625 56.25 
Q 10.15625 67.578125 9.765625 77.734375 
L 90.625 77.734375 
z
M 82.8125 2.34375 
L 82.8125 71.484375 
L 17.578125 71.484375 
L 17.578125 2.34375 
z
M 50.390625 66.40625 
Q 48.046875 64.0625 46.09375 61.328125 
L 72.265625 61.328125 
Q 70.703125 57.8125 67.1875 52.734375 
Q 63.671875 47.65625 56.25 40.625 
Q 67.96875 34.765625 79.296875 33.59375 
Q 76.5625 30.078125 74.609375 26.171875 
Q 60.15625 30.46875 50.390625 36.71875 
Q 39.0625 29.296875 26.171875 25.78125 
Q 25 29.296875 21.875 32.421875 
Q 34.375 34.375 44.921875 40.625 
Q 39.453125 45.703125 37.109375 49.21875 
Q 33.59375 45.3125 29.6875 41.40625 
Q 26.953125 44.53125 23.828125 46.09375 
Q 30.46875 51.5625 35.15625 58.390625 
Q 39.84375 65.234375 41.796875 69.921875 
Q 45.703125 67.96875 50.390625 66.40625 
z
M 38.28125 19.921875 
Q 55.46875 14.84375 64.0625 11.328125 
Q 62.109375 8.203125 60.15625 4.6875 
Q 44.140625 11.328125 35.546875 13.28125 
Q 37.109375 16.40625 38.28125 19.921875 
z
M 45.703125 32.03125 
Q 58.984375 26.5625 63.671875 25 
Q 61.71875 21.875 60.15625 17.96875 
Q 46.875 24.21875 42.1875 25.78125 
Q 44.140625 28.515625 45.703125 32.03125 
z
M 41.015625 53.90625 
Q 46.875 47.265625 51.171875 44.53125 
Q 56.25 48.4375 60.546875 55.078125 
L 41.796875 55.078125 
L 41.015625 53.90625 
z
" id="SimHei-22270"/>
     <path d="M 28.90625 1.953125 
L 19.921875 1.953125 
L 19.921875 68.75 
L 28.90625 68.75 
z
" id="SimHei-73"/>
     <path d="M 46.484375 45.3125 
L 1.953125 45.3125 
L 1.953125 51.5625 
L 46.484375 51.5625 
z
M 46.484375 21.484375 
L 1.953125 21.484375 
L 1.953125 27.734375 
L 46.484375 27.734375 
z
" id="SimHei-61"/>
    </defs>
    <g transform="translate(338.775625 27.41625)scale(0.2 -0.2)">
     <use xlink:href="#SimHei-77"/>
     <use x="50" xlink:href="#SimHei-105"/>
     <use x="100" xlink:href="#SimHei-110"/>
     <use x="150" xlink:href="#SimHei-105"/>
     <use x="200" xlink:href="#SimHei-68"/>
     <use x="250" xlink:href="#SimHei-101"/>
     <use x="300" xlink:href="#SimHei-101"/>
     <use x="350" xlink:href="#SimHei-112"/>
     <use x="400" xlink:href="#SimHei-83"/>
     <use x="450" xlink:href="#SimHei-84"/>
     <use x="500" xlink:href="#SimHei-32"/>
     <use x="550" xlink:href="#SimHei-39044"/>
     <use x="650" xlink:href="#SimHei-27979"/>
     <use x="750" xlink:href="#SimHei-20540"/>
     <use x="850" xlink:href="#SimHei-12289"/>
     <use x="950" xlink:href="#SimHei-23454"/>
     <use x="1050" xlink:href="#SimHei-38469"/>
     <use x="1150" xlink:href="#SimHei-20540"/>
     <use x="1250" xlink:href="#SimHei-21644"/>
     <use x="1350" xlink:href="#SimHei-35823"/>
     <use x="1450" xlink:href="#SimHei-24046"/>
     <use x="1550" xlink:href="#SimHei-20998"/>
     <use x="1650" xlink:href="#SimHei-24067"/>
     <use x="1750" xlink:href="#SimHei-22270"/>
     <use x="1850" xlink:href="#SimHei-32"/>
     <use x="1900" xlink:href="#SimHei-73"/>
     <use x="1950" xlink:href="#SimHei-68"/>
     <use x="2000" xlink:href="#SimHei-61"/>
     <use x="2050" xlink:href="#SimHei-50"/>
     <use x="2100" xlink:href="#SimHei-48"/>
     <use x="2150" xlink:href="#SimHei-48"/>
     <use x="2200" xlink:href="#SimHei-32"/>
    </g>
   </g>
   <g id="legend_1">
    <g id="patch_7">
     <path d="M 965.7 109.342031 
L 1058.7 109.342031 
Q 1061.7 109.342031 1061.7 106.342031 
L 1061.7 43.91625 
Q 1061.7 40.91625 1058.7 40.91625 
L 965.7 40.91625 
Q 962.7 40.91625 962.7 43.91625 
L 962.7 106.342031 
Q 962.7 109.342031 965.7 109.342031 
z
" style="fill:#ffffff;opacity:0.8;stroke:#cccccc;stroke-linejoin:miter;"/>
    </g>
    <g id="line2d_20">
     <path d="M 968.7 53.677969 
L 998.7 53.677969 
" style="fill:none;stroke:#0000ff;stroke-linecap:square;stroke-width:1.5;"/>
    </g>
    <g id="line2d_21"/>
    <g id="text_20">
     <!-- 真实值 -->
     <defs>
      <path d="M 55.46875 79.6875 
Q 53.90625 76.953125 53.125 72.265625 
L 75.78125 72.265625 
Q 80.859375 72.265625 89.453125 72.65625 
L 89.453125 66.40625 
Q 81.25 66.796875 75.78125 66.796875 
L 52.34375 66.796875 
L 51.5625 60.15625 
L 78.90625 60.15625 
Q 78.515625 55.46875 78.515625 49.21875 
L 78.515625 16.796875 
L 84.375 16.796875 
Q 90.625 16.796875 94.921875 17.1875 
L 94.921875 9.765625 
Q 87.109375 10.15625 76.5625 10.15625 
L 22.65625 10.15625 
Q 12.109375 10.15625 5.46875 9.765625 
L 5.46875 17.1875 
Q 11.328125 16.796875 17.1875 16.796875 
L 22.265625 16.796875 
L 22.265625 48.046875 
Q 22.265625 53.90625 21.875 60.15625 
L 44.140625 60.15625 
L 44.53125 66.796875 
L 21.875 66.796875 
Q 16.40625 66.796875 9.765625 66.40625 
L 9.765625 72.65625 
Q 18.359375 72.265625 21.484375 72.265625 
L 45.703125 72.265625 
Q 46.09375 76.171875 46.09375 80.078125 
Q 51.5625 79.6875 55.46875 79.6875 
z
M 63.671875 8.203125 
Q 70.3125 6.640625 76.953125 3.90625 
Q 83.59375 1.171875 91.015625 -2.34375 
Q 86.71875 -6.640625 85.15625 -8.984375 
Q 78.515625 -4.6875 71.09375 -1.5625 
Q 63.671875 1.5625 59.375 2.734375 
Q 61.328125 5.46875 63.671875 8.203125 
z
M 70.703125 49.21875 
L 70.703125 54.296875 
L 30.078125 54.296875 
L 30.078125 49.21875 
z
M 70.703125 16.796875 
L 70.703125 21.875 
L 30.078125 21.875 
L 30.078125 16.796875 
z
M 43.359375 3.125 
Q 37.109375 -0.390625 29.296875 -3.515625 
Q 21.484375 -6.640625 14.84375 -8.984375 
Q 12.109375 -6.25 9.375 -3.90625 
Q 19.140625 -0.78125 25.390625 2.140625 
Q 31.640625 5.078125 36.71875 8.203125 
Q 39.84375 5.46875 43.359375 3.125 
z
M 70.703125 27.734375 
L 70.703125 32.421875 
L 30.078125 32.421875 
L 30.078125 27.734375 
z
M 70.703125 38.671875 
L 70.703125 43.359375 
L 30.078125 43.359375 
L 30.078125 38.671875 
z
" id="SimHei-30495"/>
     </defs>
     <g transform="translate(1010.7 58.927969)scale(0.15 -0.15)">
      <use xlink:href="#SimHei-30495"/>
      <use x="100" xlink:href="#SimHei-23454"/>
      <use x="200" xlink:href="#SimHei-20540"/>
     </g>
    </g>
    <g id="line2d_22">
     <path d="M 968.7 74.830312 
L 998.7 74.830312 
" style="fill:none;stroke:#ff0000;stroke-linecap:square;stroke-width:1.5;"/>
    </g>
    <g id="line2d_23"/>
    <g id="text_21">
     <!-- 预测值 -->
     <g transform="translate(1010.7 80.080312)scale(0.15 -0.15)">
      <use xlink:href="#SimHei-39044"/>
      <use x="100" xlink:href="#SimHei-27979"/>
      <use x="200" xlink:href="#SimHei-20540"/>
     </g>
    </g>
    <g id="line2d_24">
     <path d="M 968.7 96.217031 
L 998.7 96.217031 
" style="fill:none;stroke:#000000;stroke-linecap:square;stroke-width:1.5;"/>
    </g>
    <g id="line2d_25"/>
    <g id="text_22">
     <!-- 误差值 -->
     <g transform="translate(1010.7 101.467031)scale(0.15 -0.15)">
      <use xlink:href="#SimHei-35823"/>
      <use x="100" xlink:href="#SimHei-24046"/>
      <use x="200" xlink:href="#SimHei-20540"/>
     </g>
    </g>
   </g>
  </g>
 </g>
 <defs>
  <clipPath id="p570854e561">
   <rect height="421.255" width="1010.84875" x="58.35125" y="33.41625"/>
  </clipPath>
 </defs>
</svg>
